<svg width="10" height="10" viewBox="0 0 10 10" fill="none" xmlns="http://www.w3.org/2000/svg">
<path opacity="0.9" fill-rule="evenodd" clip-rule="evenodd" d="M5.41398 0.663979C5.41398 0.297273 5.11671 0 4.75 0C4.3833 0 4.08603 0.297273 4.08603 0.663979V4.08603H0.663979C0.297274 4.08603 0 4.3833 0 4.75C0 5.11671 0.297274 5.41398 0.663979 5.41398H4.08603V8.83602C4.08603 9.20273 4.3833 9.5 4.75 9.5C5.11671 9.5 5.41398 9.20273 5.41398 8.83602V5.41398H8.83602C9.20273 5.41398 9.5 5.11671 9.5 4.75C9.5 4.3833 9.20273 4.08603 8.83602 4.08603H5.41398V0.663979Z" fill="#9D9D9D"/>
</svg>
