<svg width="18" height="18" viewBox="0 0 18 18" fill="none" xmlns="http://www.w3.org/2000/svg">
<path fill-rule="evenodd" clip-rule="evenodd" d="M16 1.5H2C1.72386 1.5 1.5 1.72386 1.5 2V16C1.5 16.2761 1.72386 16.5 2 16.5H16C16.2761 16.5 16.5 16.2761 16.5 16V2C16.5 1.72386 16.2761 1.5 16 1.5ZM2 0C0.895431 0 0 0.89543 0 2V16C0 17.1046 0.89543 18 2 18H16C17.1046 18 18 17.1046 18 16V2C18 0.895431 17.1046 0 16 0H2Z" fill="black"/>
<path fill-rule="evenodd" clip-rule="evenodd" d="M14.5438 5.48344C14.829 5.78374 14.8169 6.25846 14.5166 6.54375L8.20078 12.5438C7.91338 12.8168 7.46313 12.819 7.17305 12.5488L4.48884 10.0488C4.18573 9.76652 4.16887 9.29195 4.45118 8.98884C4.73348 8.68573 5.20806 8.66887 5.51117 8.95117L7.67913 10.9704L13.4834 5.45625C13.7837 5.17096 14.2585 5.18313 14.5438 5.48344Z" fill="black"/>
</svg>
