<svg width="18" height="18" viewBox="0 0 18 18" fill="none" xmlns="http://www.w3.org/2000/svg">
<path fill-rule="evenodd" clip-rule="evenodd" d="M2 0C0.895431 0 0 0.89543 0 2V16C0 17.1046 0.89543 18 2 18H16C17.1046 18 18 17.1046 18 16V2C18 0.895431 17.1046 0 16 0H2ZM14.5166 6.54375C14.8169 6.25846 14.829 5.78374 14.5438 5.48344C14.2585 5.18314 13.7837 5.17096 13.4834 5.45625L7.67913 10.9704L5.51117 8.95117C5.20806 8.66887 4.73348 8.68573 4.45118 8.98884C4.16887 9.29195 4.18573 9.76652 4.48884 10.0488L7.17305 12.5488C7.46313 12.819 7.91338 12.8168 8.20078 12.5438L14.5166 6.54375Z" fill="#202020"/>
</svg>
