<svg width="16" height="16" viewBox="0 0 16 16" fill="none" xmlns="http://www.w3.org/2000/svg">
<path fill-rule="evenodd" clip-rule="evenodd" d="M8 16C12.4183 16 16 12.4183 16 8C16 3.58172 12.4183 0 8 0C3.58172 0 0 3.58172 0 8C0 12.4183 3.58172 16 8 16ZM11.28 6.78003C11.4124 6.63785 11.4846 6.44981 11.4811 6.25551C11.4777 6.06121 11.399 5.87582 11.2616 5.73841C11.1242 5.60099 10.9388 5.52228 10.7445 5.51885C10.5502 5.51543 10.3621 5.58755 10.22 5.72003L7.24997 8.69003L5.77997 7.22003C5.63779 7.08755 5.44975 7.01543 5.25545 7.01885C5.06114 7.02228 4.87576 7.10099 4.73835 7.23841C4.60093 7.37582 4.52222 7.56121 4.51879 7.75551C4.51537 7.94981 4.58749 8.13785 4.71997 8.28003L6.71997 10.28C6.86059 10.4205 7.05122 10.4994 7.24997 10.4994C7.44872 10.4994 7.63934 10.4205 7.77997 10.28L11.28 6.78003Z" fill="#202020"/>
</svg>
