<svg width="16" height="12" viewBox="0 0 16 12" fill="none" xmlns="http://www.w3.org/2000/svg">
<path fill-rule="evenodd" clip-rule="evenodd" d="M0.142598 0.310169C0.385538 -0.0253209 0.854448 -0.100341 1.18994 0.142599L15.6899 10.6426C16.0254 10.8855 16.1005 11.3544 15.8575 11.6899C15.6146 12.0254 15.1457 12.1005 14.8102 11.8575L12.5615 10.2292C11.3457 11.1889 9.7922 12.0001 8.00006 12.0001C6.0187 12.0001 4.32923 11.0084 3.06667 9.9225C1.79722 8.8308 0.8805 7.57698 0.42968 6.89876C0.0668461 6.35291 0.0657162 5.64896 0.429259 5.10198C0.783329 4.56925 1.4245 3.68192 2.2979 2.7969L0.310172 1.35751C-0.0253172 1.11457 -0.100343 0.645659 0.142598 0.310169ZM3.52875 3.6882C2.66555 4.5303 2.02476 5.4113 1.6785 5.93227C1.66294 5.95569 1.65707 5.97881 1.65708 5.99992C1.65709 6.02107 1.66303 6.04455 1.67888 6.0684C2.09147 6.68911 2.92065 7.81854 4.04474 8.7853C5.17571 9.7579 6.52743 10.5001 8.00006 10.5001C9.19465 10.5001 10.3095 10.0116 11.2907 9.3089L9.06202 7.69505C8.75428 7.88827 8.39019 8 8 8C6.89543 8 6 7.10458 6 6.00001C6 5.83446 6.02011 5.6736 6.05803 5.51976L3.52875 3.6882ZM8.00006 1.50005C7.48367 1.50005 6.98343 1.59079 6.50129 1.7511C6.10823 1.88179 5.68365 1.6691 5.55296 1.27604C5.42227 0.882989 5.63496 0.458409 6.02802 0.327719C6.64531 0.122469 7.30538 4.92414e-05 8.00006 4.92414e-05C9.98141 4.92414e-05 11.6709 0.991719 12.9334 2.07756C14.2029 3.16932 15.1196 4.42313 15.5704 5.10135C15.9337 5.64779 15.9336 6.3524 15.5704 6.89879C15.4598 7.0652 15.3223 7.26447 15.1596 7.48627C14.9146 7.82026 14.4452 7.8924 14.1113 7.6474C13.7773 7.4024 13.7051 6.93304 13.9501 6.59905C14.0979 6.39766 14.2221 6.2175 14.3212 6.06843C14.35 6.02506 14.35 5.97502 14.3212 5.93171C13.9086 5.311 13.0795 4.18157 11.9554 3.21482C10.8244 2.24216 9.47268 1.50005 8.00006 1.50005Z" fill="#202020"/>
</svg>
