<svg width="21" height="21" viewBox="0 0 21 21" fill="none" xmlns="http://www.w3.org/2000/svg">
<path fill-rule="evenodd" clip-rule="evenodd" d="M1.78814e-05 0.749996C1.98484e-05 0.335784 0.335806 0 0.750018 0H19.75C19.9489 0 20.1397 0.0790181 20.2803 0.219671C20.421 0.360324 20.5 0.55109 20.5 0.750003L20.5 4.59436C20.5 4.81022 20.407 5.01561 20.2448 5.15801L12.9 11.6053V17.8771C12.9 18.1687 12.731 18.4338 12.4668 18.5569L8.44756 20.4298C8.21529 20.5381 7.94383 20.5202 7.72772 20.3825C7.51162 20.2448 7.38078 20.0063 7.38078 19.75V11.5987L0.247087 5.15076C0.0897686 5.00856 -1.01327e-06 4.80641 0 4.59435L1.78814e-05 0.749996ZM1.50001 1.5L1.5 4.2613L8.63369 10.7093C8.79101 10.8515 8.88078 11.0536 8.88078 11.2657V18.5731L11.4 17.3992V11.2657C11.4 11.0498 11.493 10.8444 11.6552 10.702L19 4.25475L19 1.5H1.50001Z" fill="#202020"/>
</svg>
