<svg width="21" height="20" viewBox="0 0 21 20" fill="none" xmlns="http://www.w3.org/2000/svg">
<path d="M19.5 0H1.00002C0.447732 0 1.75514e-05 0.447714 1.53872e-05 0.999997L0 4.46788C0 4.75907 0.126919 5.03579 0.3476 5.22576L7.61588 11.4825C7.83656 11.6725 7.96347 11.9492 7.96347 12.2404V18.9622C7.96347 19.6856 8.70788 20.1696 9.36912 19.8762L11.7056 18.8392C12.067 18.6789 12.3 18.3206 12.3 17.9252V12.2492C12.3 11.9529 12.4313 11.672 12.6586 11.482L20.1414 5.22633C20.3686 5.03633 20.5 4.75535 20.5 4.45912L20.5 1C20.5 0.447718 20.0523 0 19.5 0Z" fill="#202020"/>
<path fill-rule="evenodd" clip-rule="evenodd" d="M1.50001 1.5L1.5 4.23856L8.59448 10.3457L7.67747 11.411L8.59448 10.3457C9.14618 10.8206 9.46347 11.5124 9.46347 12.2404V18.1932L10.8 17.6001V12.2492C10.8 11.5086 11.1283 10.8061 11.6965 10.3311L19 4.22541L19 1.5H1.50001ZM11.7056 18.8392L9.36912 19.8762C8.70788 20.1696 7.96347 19.6856 7.96347 18.9622V12.2404C7.96347 11.9492 7.83656 11.6725 7.61588 11.4825L0.3476 5.22576C0.126919 5.03579 0 4.75907 0 4.46788L1.53872e-05 0.999997C1.75514e-05 0.447714 0.447732 0 1.00002 0H19.5C20.0523 0 20.5 0.447718 20.5 1L20.5 4.45912C20.5 4.75535 20.3686 5.03633 20.1414 5.22633L12.6586 11.482C12.4313 11.672 12.3 11.9529 12.3 12.2492V17.9252C12.3 18.3206 12.067 18.6789 11.7056 18.8392Z" fill="#202020"/>
</svg>
