<svg width="290" height="36" viewBox="0 0 290 36" fill="none" xmlns="http://www.w3.org/2000/svg">
<rect width="290" height="36" rx="10" fill="#EEEEEE"/>
<path fill-rule="evenodd" clip-rule="evenodd" d="M29.9301 22.959C28.4527 24.4186 26.4205 25.32 24.1772 25.32C19.6611 25.32 16 21.6666 16 17.16C16 12.6534 19.6611 9 24.1772 9C28.6934 9 32.3544 12.6534 32.3544 17.16C32.3544 18.911 31.8018 20.5331 30.8611 21.8622C30.8888 21.8829 30.9154 21.9057 30.9406 21.9309L34.7887 25.7709C35.0704 26.0521 35.0704 26.5079 34.7887 26.7891C34.5069 27.0703 34.0501 27.0703 33.7683 26.7891L29.9301 22.959ZM30.9114 17.16C30.9114 20.8714 27.8964 23.88 24.1772 23.88C20.458 23.88 17.443 20.8714 17.443 17.16C17.443 13.4486 20.458 10.44 24.1772 10.44C27.8964 10.44 30.9114 13.4486 30.9114 17.16Z" fill="#696969"/>
<path d="M52.534 21.753C52.534 22.8297 52.143 23.6683 51.361 24.269C50.579 24.8697 49.525 25.17 48.199 25.17C47.519 25.17 46.89 25.119 46.312 25.017C45.734 24.915 45.2523 24.7733 44.867 24.592V23.13C45.275 23.3113 45.7793 23.4757 46.38 23.623C46.992 23.7703 47.621 23.844 48.267 23.844C49.1737 23.844 49.8537 23.6683 50.307 23.317C50.7717 22.9657 51.004 22.4897 51.004 21.889C51.004 21.4923 50.919 21.158 50.749 20.886C50.579 20.614 50.2843 20.3647 49.865 20.138C49.457 19.9 48.8847 19.6507 48.148 19.39C47.1167 19.016 46.3347 18.557 45.802 18.013C45.2807 17.469 45.02 16.7267 45.02 15.786C45.02 15.14 45.1843 14.5903 45.513 14.137C45.8417 13.6723 46.295 13.3153 46.873 13.066C47.4623 12.8167 48.1367 12.692 48.896 12.692C49.5647 12.692 50.1767 12.7543 50.732 12.879C51.2873 13.0037 51.7917 13.168 52.245 13.372L51.769 14.681C51.3497 14.4997 50.8907 14.3467 50.392 14.222C49.9047 14.0973 49.3947 14.035 48.862 14.035C48.1027 14.035 47.5303 14.1993 47.145 14.528C46.7597 14.8453 46.567 15.2703 46.567 15.803C46.567 16.211 46.652 16.551 46.822 16.823C46.992 17.095 47.2697 17.3387 47.655 17.554C48.0403 17.7693 48.5617 18.0017 49.219 18.251C49.933 18.5117 50.5337 18.795 51.021 19.101C51.5197 19.3957 51.8937 19.7527 52.143 20.172C52.4037 20.5913 52.534 21.1183 52.534 21.753ZM57.8861 15.718C58.6681 15.718 59.3367 15.888 59.8921 16.228C60.4587 16.568 60.8894 17.0497 61.1841 17.673C61.4901 18.285 61.6431 19.0047 61.6431 19.832V20.733H55.4041C55.4267 21.7643 55.6874 22.552 56.1861 23.096C56.6961 23.6287 57.4044 23.895 58.3111 23.895C58.8891 23.895 59.3991 23.844 59.8411 23.742C60.2944 23.6287 60.7591 23.47 61.2351 23.266V24.575C60.7704 24.779 60.3114 24.9263 59.8581 25.017C59.4047 25.119 58.8664 25.17 58.2431 25.17C57.3817 25.17 56.6167 24.9943 55.9481 24.643C55.2907 24.2917 54.7751 23.7703 54.4011 23.079C54.0384 22.3763 53.8571 21.5207 53.8571 20.512C53.8571 19.5147 54.0214 18.659 54.3501 17.945C54.6901 17.231 55.1604 16.6813 55.7611 16.296C56.3731 15.9107 57.0814 15.718 57.8861 15.718ZM57.8691 16.942C57.1551 16.942 56.5884 17.1743 56.1691 17.639C55.7611 18.0923 55.5174 18.727 55.4381 19.543H60.0791C60.0677 18.7723 59.8864 18.149 59.5351 17.673C59.1837 17.1857 58.6284 16.942 57.8691 16.942ZM67.0058 15.735C68.1164 15.735 68.9381 15.9787 69.4708 16.466C70.0034 16.9533 70.2698 17.7297 70.2698 18.795V25H69.1818L68.8928 23.708H68.8248C68.4281 24.2067 68.0088 24.575 67.5668 24.813C67.1361 25.051 66.5354 25.17 65.7648 25.17C64.9374 25.17 64.2518 24.9547 63.7078 24.524C63.1638 24.082 62.8918 23.3963 62.8918 22.467C62.8918 21.5603 63.2488 20.8633 63.9628 20.376C64.6768 19.8773 65.7761 19.6053 67.2608 19.56L68.8078 19.509V18.965C68.8078 18.2057 68.6434 17.6787 68.3148 17.384C67.9861 17.0893 67.5214 16.942 66.9208 16.942C66.4448 16.942 65.9914 17.0157 65.5608 17.163C65.1301 17.299 64.7278 17.4577 64.3538 17.639L63.8948 16.517C64.2914 16.3017 64.7618 16.1203 65.3058 15.973C65.8498 15.8143 66.4164 15.735 67.0058 15.735ZM67.4478 20.597C66.3144 20.6423 65.5268 20.8237 65.0848 21.141C64.6541 21.4583 64.4388 21.906 64.4388 22.484C64.4388 22.994 64.5918 23.368 64.8978 23.606C65.2151 23.844 65.6174 23.963 66.1048 23.963C66.8754 23.963 67.5158 23.7533 68.0258 23.334C68.5358 22.9033 68.7908 22.246 68.7908 21.362V20.546L67.4478 20.597ZM76.9261 15.718C77.0961 15.718 77.2774 15.7293 77.4701 15.752C77.6741 15.7633 77.8497 15.786 77.9971 15.82L77.8101 17.197C77.6627 17.163 77.4984 17.1347 77.3171 17.112C77.1471 17.0893 76.9827 17.078 76.8241 17.078C76.3594 17.078 75.9231 17.2083 75.5151 17.469C75.1071 17.7183 74.7784 18.0753 74.5291 18.54C74.2911 18.9933 74.1721 19.526 74.1721 20.138V25H72.6761V15.888H73.9001L74.0701 17.554H74.1381C74.4327 17.0553 74.8124 16.6247 75.2771 16.262C75.7417 15.8993 76.2914 15.718 76.9261 15.718ZM82.6135 25.17C81.8088 25.17 81.0892 25.0057 80.4545 24.677C79.8312 24.3483 79.3382 23.8383 78.9755 23.147C78.6242 22.4557 78.4485 21.5717 78.4485 20.495C78.4485 19.373 78.6355 18.4607 79.0095 17.758C79.3835 17.0553 79.8878 16.5397 80.5225 16.211C81.1685 15.8823 81.8995 15.718 82.7155 15.718C83.1802 15.718 83.6278 15.769 84.0585 15.871C84.4892 15.9617 84.8405 16.075 85.1125 16.211L84.6535 17.452C84.3815 17.35 84.0642 17.2537 83.7015 17.163C83.3388 17.0723 82.9988 17.027 82.6815 17.027C80.8908 17.027 79.9955 18.1773 79.9955 20.478C79.9955 21.5773 80.2108 22.4217 80.6415 23.011C81.0835 23.589 81.7352 23.878 82.5965 23.878C83.0952 23.878 83.5315 23.827 83.9055 23.725C84.2908 23.623 84.6422 23.4983 84.9595 23.351V24.677C84.6535 24.8357 84.3135 24.9547 83.9395 25.034C83.5768 25.1247 83.1348 25.17 82.6135 25.17ZM88.2145 15.871C88.2145 16.3243 88.1861 16.7493 88.1295 17.146H88.2315C88.5261 16.6813 88.9228 16.33 89.4215 16.092C89.9315 15.854 90.4811 15.735 91.0705 15.735C92.1811 15.735 93.0141 16.0013 93.5695 16.534C94.1248 17.0553 94.4025 17.8997 94.4025 19.067V25H92.9235V19.169C92.9235 17.707 92.2435 16.976 90.8835 16.976C89.8635 16.976 89.1608 17.265 88.7755 17.843C88.4015 18.4097 88.2145 19.2257 88.2145 20.291V25H86.7185V12.08H88.2145V15.871Z" fill="#9B9B9B"/>
</svg>
