<svg width="8" height="8" viewBox="0 0 8 8" fill="none" xmlns="http://www.w3.org/2000/svg">
<path fill-rule="evenodd" clip-rule="evenodd" d="M0.194579 0.211305C0.319324 0.0869779 0.488433 0.0171438 0.664746 0.0171438C0.841059 0.0171438 1.01016 0.0869779 1.13491 0.211305L3.9914 3.06167L6.84789 0.211305C6.90884 0.146074 6.98229 0.0937587 7.06391 0.057474C7.14552 0.0211893 7.23361 0.00167932 7.32294 0.000103654C7.41227 -0.00147202 7.50098 0.0149309 7.58384 0.048321C7.6667 0.081711 7.74192 0.131406 7.80508 0.194451C7.86834 0.257495 7.9181 0.332597 7.95155 0.415257C7.98499 0.497927 8.00149 0.586474 7.99989 0.675615C7.9983 0.764764 7.97878 0.852674 7.94241 0.934113C7.90604 1.01555 7.85361 1.08885 7.78823 1.14963L4.93174 3.99999L7.78823 6.85036C7.85361 6.91118 7.90604 6.98447 7.94241 7.06591C7.97878 7.14735 7.9983 7.23525 7.99989 7.32439C8.00149 7.41353 7.98499 7.50205 7.95155 7.58473C7.9181 7.66741 7.86834 7.74248 7.80508 7.8055C7.74192 7.86862 7.6667 7.91828 7.58384 7.95165C7.50098 7.98502 7.41227 8.00149 7.32294 7.99989C7.23361 7.9983 7.14552 7.97883 7.06391 7.94253C6.98229 7.90624 6.90884 7.85392 6.84789 7.78868L3.9914 4.93831L1.13491 7.78868C1.00878 7.90597 0.841964 7.9698 0.669598 7.96679C0.497233 7.96369 0.332781 7.89402 0.210875 7.7724C0.088977 7.65077 0.0191528 7.48665 0.01611 7.31465C0.0130672 7.14266 0.0770544 6.97624 0.194579 6.85036L3.05107 3.99999L0.194579 1.14963C0.0699841 1.02515 0 0.8564 0 0.680465C0 0.50453 0.0699841 0.335792 0.194579 0.211305Z" fill="#9D9D9D"/>
</svg>
