<svg width="233" height="26" viewBox="0 0 233 26" fill="none" xmlns="http://www.w3.org/2000/svg">
<path d="M1.818 5.914V7.138H7.74C7.398 10.954 5.184 14.05 1.062 16.12L1.872 17.272C7.092 14.662 9.198 10.504 9.198 5.914H1.818ZM15.966 10.738H13.374V4.186H11.898V20.332H13.374V11.962H15.966V10.738ZM19.5466 5.752H18.0886V16.246H19.3666C21.8326 16.246 24.2986 16.066 27.0526 15.508L26.8726 14.284C24.2626 14.806 21.8686 15.004 19.5466 15.004V5.752ZM32.4526 10.63H29.8606V4.186H28.3846V20.332H29.8606V11.854H32.4526V10.63ZM36.0872 6.958H42.1172V5.734H34.6112V16.336H35.8892C38.9312 16.336 41.0552 16.228 43.5212 15.76L43.3592 14.536C41.0192 14.95 38.9492 15.076 36.0872 15.076V6.958ZM49.0112 10.558H46.3472V4.186H44.8712V20.368H46.3472V11.782H49.0112V10.558ZM52.5198 11.476H58.3338V5.68H51.0258V6.886H56.8758V10.27H51.0798V16.444H52.3578C55.4358 16.444 57.5958 16.318 60.1158 15.868L59.9538 14.644C57.5418 15.112 55.4538 15.22 52.5198 15.22V11.476ZM65.4978 10.594H62.8518V4.168H61.3758V20.35H62.8518V11.836H65.4978V10.594ZM68.9884 6.994H73.5064V15.04H68.9884V6.994ZM67.5484 16.228H74.9464V5.806H67.5484V16.228ZM81.9844 10.63H79.3204V4.204H77.8444V20.332H79.3204V11.872H81.9844V10.63ZM90.101 15.238H85.493V10.99H90.101V15.238ZM90.101 9.82H85.493V5.554H84.035V16.444H91.541V5.554H90.101V9.82ZM98.471 10.54H95.807V4.204H94.331V20.314H95.807V11.782H98.471V10.54ZM105.292 5.59H103.834V8.488C103.834 11.422 101.998 14.518 99.6756 15.706L100.558 16.894C102.376 15.922 103.87 13.906 104.572 11.548C105.31 13.762 106.768 15.652 108.478 16.57L109.396 15.4C107.128 14.266 105.292 11.332 105.292 8.488V5.59ZM114.958 10.738H112.294V4.204H110.818V20.332H112.294V11.962H114.958V10.738ZM120.662 15.382C119.096 15.382 117.998 13.69 117.998 11.062C117.998 8.452 119.096 6.76 120.662 6.76C122.21 6.76 123.308 8.452 123.308 11.062C123.308 13.69 122.21 15.382 120.662 15.382ZM120.662 5.428C118.286 5.428 116.594 7.624 116.594 11.062C116.594 14.5 118.286 16.696 120.662 16.696C123.038 16.696 124.712 14.5 124.712 11.062C124.712 7.624 123.038 5.428 120.662 5.428ZM131.444 10.63H128.78V4.204H127.304V20.332H128.78V11.872H131.444V10.63ZM138.283 7.066H141.865V5.842H133.135V7.066H136.825V9.118C136.825 11.854 134.881 14.914 132.577 16.066L133.441 17.236C135.259 16.3 136.825 14.248 137.563 11.89C138.301 14.05 139.813 15.94 141.613 16.84L142.459 15.652C140.119 14.554 138.283 11.692 138.283 9.118V7.066ZM147.931 10.702H145.267V4.204H143.791V20.332H145.267V11.944H147.931V10.702ZM154.733 8.164H158.315V6.976H154.733V4.474H153.257V6.976H149.621V8.164H153.275V9.424C153.275 12.214 151.547 14.95 149.189 16.102L150.017 17.218C151.853 16.318 153.329 14.446 154.013 12.232C154.697 14.302 156.065 16.066 157.829 16.93L158.657 15.778C156.335 14.662 154.733 12.016 154.733 9.424V8.164ZM164.417 10.828H161.753V4.186H160.277V20.332H161.753V12.052H164.417V10.828ZM166.846 5.86V7.066H172.66C172.606 8.056 172.444 8.992 172.174 9.892L166.036 10.306L166.288 11.602L171.724 11.08C170.734 13.24 168.952 15.076 165.964 16.552L166.774 17.686C172.552 14.806 174.136 10.54 174.136 5.86H166.846ZM180.832 10.738H178.24V4.186H176.764V20.332H178.24V11.962H180.832V10.738ZM184.485 11.368H190.173V10.18H184.485V6.85H190.533V5.644H183.009V16.444H184.269C187.311 16.444 189.399 16.336 191.883 15.904L191.739 14.716C189.363 15.112 187.347 15.238 184.485 15.238V11.368ZM197.391 10.666H194.727V4.186H193.251V20.314H194.727V11.908H197.391V10.666ZM202.177 7.12H204.823V14.968C203.941 15.004 203.041 15.04 202.177 15.058V7.12ZM206.263 7.12H207.991V5.932H199.009V7.12H200.737V15.076C199.981 15.094 199.261 15.094 198.595 15.094L198.775 16.336C201.619 16.336 205.453 16.282 208.837 15.742L208.729 14.644C207.937 14.752 207.109 14.824 206.263 14.878V7.12ZM213.877 10.648H211.213V4.204H209.737V20.332H211.213V11.872H213.877V10.648ZM220.014 15.508C218.556 15.508 217.494 14.464 217.494 13.024C217.494 11.566 218.556 10.522 220.014 10.522C221.49 10.522 222.552 11.566 222.552 13.024C222.552 14.464 221.49 15.508 220.014 15.508ZM220.014 9.298C217.746 9.298 216.108 10.846 216.108 13.024C216.108 15.22 217.746 16.732 220.014 16.732C222.318 16.732 223.956 15.22 223.956 13.024C223.956 10.846 222.318 9.298 220.014 9.298ZM220.734 4.384H219.258V6.778H215.19V7.966H224.712V6.778H220.734V4.384ZM230.364 10.828H227.718V4.204H226.242V20.332H227.718V12.07H230.364V10.828Z" fill="#202020"/>
</svg>
