<svg width="54" height="54" viewBox="0 0 54 54" fill="none" xmlns="http://www.w3.org/2000/svg">
<path d="M27 54C41.9117 54 54 41.9117 54 27C54 12.0883 41.9117 0 27 0C12.0883 0 0 12.0883 0 27C0 41.9117 12.0883 54 27 54Z" fill="#FFD74A"/>
<path d="M31.011 29.9237V28.9452L30.1502 26.364V12.2365C30.1502 10.3659 31.6719 8.84314 33.5436 8.84314H33.847V29.9226H31.011V29.9237Z" fill="#CAD2D4"/>
<path d="M33.577 9.11422V26.3197V29.6537H31.2809V28.902L30.4202 26.3208V12.2365C30.4202 10.5117 31.8177 9.11314 33.5435 9.11314H33.577V9.11422ZM34.117 8.57422H33.577H33.5435C31.5239 8.57422 29.8802 10.218 29.8802 12.2376V26.3208V26.4083L29.9083 26.4914L30.7409 28.9895V29.6537V30.1937H31.2809H33.577H34.117V29.6537V26.3197V9.11422V8.57422Z" fill="#333333"/>
<path d="M32.4127 46.4692C31.364 46.4692 30.5098 45.616 30.5098 44.5673V30.7368C30.5098 30.4172 30.77 30.158 31.0886 30.158H33.7681C34.0878 30.158 34.3481 30.4172 34.3481 30.7368V44.5673C34.3481 45.616 33.4949 46.4692 32.4451 46.4692H32.4127Z" fill="#667E26"/>
<path d="M33.7681 30.4279C33.9398 30.4279 34.0781 30.5662 34.0781 30.7368V44.5673C34.0781 45.468 33.3469 46.1992 32.4451 46.1992H32.4116C31.5098 46.1992 30.7787 45.468 30.7787 44.5673V30.7379C30.7787 30.5673 30.9169 30.429 31.0875 30.429H33.7681V30.4279ZM33.7681 29.8879H31.0886C30.621 29.8879 30.2397 30.2692 30.2397 30.7368V44.5673C30.2397 45.765 31.2139 46.7392 32.4127 46.7392H32.4462C33.6439 46.7392 34.6191 45.765 34.6191 44.5673V30.7379C34.6181 30.2692 34.2368 29.8879 33.7681 29.8879Z" fill="#333333"/>
<path d="M33.8481 29.3837H31.011V30.697H33.8481V29.3837Z" fill="#94A3A7"/>
<path d="M33.577 29.6537V30.427H31.281V29.6537H33.577ZM34.117 29.1137H33.577H31.281H30.741V29.6537V30.427V30.967H31.281H33.577H34.117V30.427V29.6537V29.1137Z" fill="#333333"/>
<path d="M34.3481 42.4667H30.5098V44.0813H34.3481V42.4667Z" fill="#ECB72B"/>
<path d="M34.0781 42.7367V43.8113H30.7797V42.7367H34.0781ZM34.6181 42.1967H34.0781H30.7797H30.2397V42.7367V43.8113V44.3513H30.7797H34.0781H34.6181V43.8113V42.7367V42.1967Z" fill="#333333"/>
<path d="M21.1754 46.4692C20.1267 46.4692 19.2735 45.616 19.2735 44.5673V30.7368C19.2735 30.4172 19.5327 30.158 19.8524 30.158H22.5319C22.8515 30.158 23.1107 30.4172 23.1107 30.7368V44.5673C23.1107 45.616 22.2575 46.4692 21.2089 46.4692H21.1754Z" fill="#667E26"/>
<path d="M22.5319 30.4279C22.7036 30.4279 22.8408 30.5662 22.8408 30.7368V44.5673C22.8408 45.468 22.1107 46.1992 21.2089 46.1992H21.1754C20.2747 46.1992 19.5435 45.468 19.5435 44.5673V30.7379C19.5435 30.5673 19.6828 30.429 19.8524 30.429H22.5319V30.4279ZM22.5319 29.8879H19.8524C19.3847 29.8879 19.0035 30.2692 19.0035 30.7368V44.5673C19.0035 45.765 19.9777 46.7392 21.1754 46.7392H21.2089C22.4066 46.7392 23.3808 45.765 23.3808 44.5673V30.7379C23.3808 30.2692 23.0006 29.8879 22.5319 29.8879Z" fill="#333333"/>
<path d="M23.1118 42.4667H19.2735V44.0813H23.1118V42.4667Z" fill="#ECB72B"/>
<path d="M22.8407 42.7367V43.8113H19.5424V42.7367H22.8407ZM23.3807 42.1967H22.8407H19.5424H19.0024V42.7367V43.8113V44.3513H19.5424H22.8407H23.3807V43.8113V42.7367V42.1967Z" fill="#333333"/>
<path d="M22.0168 17.0079H20.3676V30.6969H22.0168V17.0079Z" fill="#BACBD1"/>
<path d="M21.7468 17.2779V30.4269H20.6376V17.2779H21.7468ZM22.2868 16.7379H21.7468H20.6376H20.0976V17.2779V30.4269V30.9669H20.6376H21.7468H22.2868V30.4269V17.2779V16.7379Z" fill="#333333"/>
<path d="M21.1657 20.1259C19.549 20.1259 18.2346 18.8115 18.2346 17.1948V8.84314H18.5046C19.0943 8.84314 19.5684 9.37234 19.5684 10.0236V15.0693H19.7617V8.84314H20.0317C20.6225 8.84314 21.0955 9.37234 21.0955 10.0236V15.0693H21.2899V8.84314H21.5599C22.1496 8.84314 22.6237 9.37234 22.6237 10.0236V15.0693H22.8181V8.84314H23.0881C23.6778 8.84314 24.1519 9.37234 24.1519 10.0236V17.1948C24.1519 18.8105 22.8365 20.1259 21.2197 20.1259H21.1657Z" fill="#BACBD1"/>
<path d="M23.0946 9.11422C23.5288 9.11422 23.8809 9.52246 23.8809 10.0247V15.3404V17.1959C23.8809 18.6647 22.6886 19.857 21.2187 19.857H21.1647C19.6959 19.857 18.5036 18.6657 18.5036 17.1959V15.3404V9.11422H18.5111C18.9453 9.11422 19.2973 9.52246 19.2973 10.0247V15.3404H20.0307V9.11422H20.0393C20.4724 9.11422 20.8245 9.52246 20.8245 10.0247V15.3404H21.5589V9.11422H21.5664C21.9995 9.11422 22.3527 9.52246 22.3527 10.0247V15.3404H23.0871V9.11422H23.0946ZM23.0946 8.57422H23.0882H22.5482V9.04942C22.3052 8.75782 21.9563 8.57422 21.5675 8.57422H21.56H21.02V9.04834C20.777 8.75674 20.4281 8.57422 20.0404 8.57422H20.0318H19.4918V9.04726C19.2488 8.75674 18.8999 8.57422 18.5122 8.57422H18.5046H17.9646V9.11422V15.3404V17.1959C17.9646 18.9606 19.401 20.397 21.1658 20.397H21.2198C22.9856 20.397 24.422 18.9617 24.422 17.1959V15.3404V10.0247C24.4209 9.22438 23.8258 8.57422 23.0946 8.57422Z" fill="#333333"/>
</svg>
