<svg width="54" height="54" viewBox="0 0 54 54" fill="none" xmlns="http://www.w3.org/2000/svg">
<circle cx="27" cy="27" r="27" fill="#FFD74A"/>
<mask id="mask0" mask-type="alpha" maskUnits="userSpaceOnUse" x="0" y="0" width="54" height="54">
<path d="M27 54C41.9117 54 54 41.9117 54 27C54 12.0883 41.9117 0 27 0C12.0883 0 0 12.0883 0 27C0 41.9117 12.0883 54 27 54Z" fill="#FFD74A"/>
</mask>
<g mask="url(#mask0)">
<path d="M32.7316 23.7028L30.4333 22.5666L40.473 3.41498L42.7723 4.55114L32.7316 23.7028Z" fill="#684B42"/>
<path d="M32.8482 24.0613L30.065 22.6865L40.3564 3.0564L43.1395 4.43232L32.8482 24.0613ZM30.8005 22.4467L32.6149 23.3431L42.404 4.671L40.5896 3.77352L30.8005 22.4467Z" fill="#333333"/>
</g>
<path d="M40.6998 25.4006C27.2895 29.6871 14.8975 25.5669 13.5637 25.096C13.486 25.069 13.486 25.069 13.486 25.069C13.4633 25.0604 13.4514 25.0755 13.4579 25.1025L17.82 41.6287C17.8265 41.6557 17.8557 41.6773 17.8827 41.6773L36.5516 41.701C36.5753 41.6881 36.6012 41.6557 36.6077 41.6287L40.8424 25.4006C40.8489 25.3736 40.8338 25.3595 40.8078 25.3671C40.8078 25.3671 40.7517 25.3844 40.6998 25.4006Z" fill="#C2A06E"/>
<path d="M36.6196 41.971L17.8816 41.9472C17.7325 41.9472 17.5965 41.8424 17.5587 41.6988L13.1965 25.1716C13.1674 25.0593 13.1998 24.9448 13.2808 24.8713C13.3607 24.799 13.4752 24.7774 13.5789 24.8163L13.6512 24.8411C14.553 25.1597 20.2716 27.0637 27.9072 27.0637C31.7769 27.0637 36.1379 26.5756 40.6167 25.1435H40.6177L40.7247 25.11C40.8316 25.0765 40.9428 25.1003 41.0217 25.1759C41.1005 25.2504 41.1307 25.3606 41.1027 25.4686L36.868 41.6966C36.8421 41.7949 36.7686 41.89 36.679 41.9375L36.6196 41.971ZM18.0403 41.4072L36.3809 41.431L40.4709 25.7569C27.9051 29.6579 16.3134 26.2915 13.8348 25.474L18.0403 41.4072ZM17.8816 41.4061C17.8827 41.4061 17.8827 41.4061 17.8816 41.4061V41.4061ZM13.3974 25.3239C13.4007 25.3249 13.4028 25.326 13.4061 25.3271L13.3974 25.3239Z" fill="#333333"/>
<g opacity="0.7">
<path opacity="0.7" d="M16.3334 25.5121L15.6877 25.6478L18.9955 41.3922L19.6413 41.2565L16.3334 25.5121Z" fill="#A88559"/>
</g>
<g opacity="0.7">
<path opacity="0.7" d="M21.6184 26.5723L20.9616 26.6362L22.3957 41.382L23.0525 41.3181L21.6184 26.5723Z" fill="#A88559"/>
</g>
<g opacity="0.7">
<path opacity="0.7" d="M37.9629 25.512L34.6617 41.257L35.3075 41.3924L38.6087 25.6474L37.9629 25.512Z" fill="#A88559"/>
</g>
<g opacity="0.7">
<path opacity="0.7" d="M31.8794 41.4094L31.2239 41.3446L32.6851 26.8477L33.3418 26.9125L31.8794 41.4094Z" fill="#A88559"/>
</g>
<g opacity="0.7">
<path opacity="0.7" d="M27.1599 26.8801H26.5V41.4191H27.1599V26.8801Z" fill="#A88559"/>
</g>
<path d="M40.6998 25.4005C40.9158 24.5732 40.9093 23.6023 40.4341 22.9759C37.7222 19.3979 31.3621 14.9612 23.0299 16.9581C21.7642 17.2627 14.3003 19.5069 13.4903 23.9025C13.4374 24.1898 13.4557 24.6305 13.5626 25.0959C14.8975 25.5668 27.2894 29.687 40.6998 25.4005Z" fill="#DEC391"/>
<path d="M27.9137 27.6016C20.1776 27.6016 14.3867 25.6727 13.4741 25.3498L13.3337 25.3001L13.3002 25.1554C13.1911 24.6802 13.1631 24.1931 13.2257 23.8529C13.5832 21.911 15.1773 20.1625 17.9615 18.6581C19.9638 17.5759 22.1119 16.9009 22.9673 16.6946C26.7721 15.7831 30.4668 16.0963 33.9487 17.6288C36.5915 18.792 39.0345 20.6809 40.6491 22.8128C41.1178 23.4306 41.2344 24.4231 40.9601 25.4686L40.9223 25.6122L40.7808 25.6576C36.2481 27.1069 31.8309 27.6016 27.9137 27.6016ZM13.7959 24.8908C15.7065 25.5442 27.5897 29.2507 40.473 25.1888C40.6609 24.3583 40.5681 23.5991 40.2192 23.139C38.6575 21.0784 36.2923 19.2499 33.7306 18.1235C30.3599 16.6406 26.7808 16.3361 23.0926 17.2206C23.0083 17.2411 14.5962 19.3849 13.756 23.9512C13.7139 24.1866 13.729 24.5365 13.7959 24.8908Z" fill="#333333"/>
<path fill-rule="evenodd" clip-rule="evenodd" d="M25.9621 14.6956C22.558 14.8802 19.3838 16.632 16.6817 18.9313C16.3987 19.1732 15.3738 20.0826 15.3511 20.9444C15.3263 21.9305 16.8199 21.7793 17.7519 20.5006C18.6527 19.265 18.8989 19.2305 19.3773 19.3309C19.9152 19.5059 19.4583 20.2759 19.265 20.6053C18.9713 21.1064 18.6192 21.8236 17.2281 23.5753C16.7616 24.1628 17.091 25.5863 18.1494 25.6241C20.5578 25.7137 20.4703 23.3723 21.0103 21.9899C21.2004 21.5039 21.6216 20.6626 22.127 20.5967C23.2643 20.4239 22.1972 22.1573 22.3949 22.6681C22.5968 23.1941 23.2643 23.4176 23.7751 22.6681C24.0365 22.2869 24.2028 21.4002 24.5765 21.1475C25.3692 20.6129 25.7418 21.6119 25.9718 22.2858C26.2472 23.0947 26.2764 24.9491 26.7322 25.663C27.2668 26.5 28.2528 26.5961 28.7064 25.5625C29.1492 24.5452 29.4052 23.0785 29.7281 22.0504C29.8382 21.7026 30.159 21.2684 30.5435 21.3818C31.0176 21.5212 31.387 22.5644 31.59 22.9997C31.887 23.6261 33.5858 26.9892 34.4768 25.2677C35.033 24.1898 33.466 21.87 33.3245 20.8224C33.2802 20.4952 33.1992 20.1658 33.5394 19.9746C33.9314 19.7543 35.0114 19.6852 35.1162 20.9218C35.248 22.464 36.4284 22.815 37.327 22.9554C37.6672 23.0083 38.4145 22.8161 38.2547 22.0331C38.1931 21.7328 38.0387 21.397 37.9156 21.1518C37.841 21.0049 37.4825 20.4973 37.5635 20.3278C37.6952 20.047 38.6273 20.9822 38.7677 21.0816C39.1684 20.5049 37.3151 19.1905 36.7135 18.6451C31.9507 14.3165 25.9621 14.6956 25.9621 14.6956Z" fill="#CC8CA1"/>
<path d="M27.7474 26.5842C27.2776 26.5842 26.8186 26.2991 26.5054 25.8077C26.2008 25.3314 26.0799 24.4836 25.9621 23.6639C25.8887 23.1552 25.8196 22.6735 25.717 22.3722C25.6068 22.0504 25.3779 21.3786 25.0765 21.2782C25.042 21.2663 24.9361 21.2307 24.7277 21.3711C24.5711 21.4769 24.4253 21.8527 24.3087 22.1541C24.2104 22.4068 24.1186 22.6455 23.9976 22.8215C23.6034 23.3993 23.1617 23.4414 22.9338 23.4144C22.5839 23.3734 22.2815 23.125 22.1433 22.7653C22.0417 22.5018 22.1368 22.1433 22.248 21.7285C22.3139 21.4812 22.4521 20.9661 22.3668 20.871C22.3603 20.8645 22.3063 20.8419 22.1681 20.8635C21.9013 20.898 21.532 21.4013 21.2631 22.0882C21.1507 22.3744 21.0665 22.7103 20.9758 23.0656C20.6475 24.3605 20.2435 25.974 18.1397 25.8941C17.6062 25.8747 17.1623 25.5636 16.9215 25.0398C16.6612 24.4761 16.7011 23.8043 17.0165 23.4069C18.2175 21.8949 18.6365 21.1605 18.913 20.6755C18.9551 20.6021 18.994 20.533 19.0318 20.4682C19.291 20.0275 19.3968 19.7467 19.3525 19.6269C19.3493 19.6193 19.345 19.6063 19.305 19.5912C18.9832 19.5243 18.8071 19.5102 17.9701 20.6593C17.3275 21.5417 16.3285 22.032 15.6471 21.7998C15.282 21.6756 15.0714 21.3538 15.0822 20.9369C15.1049 20.0545 15.984 19.1733 16.5067 18.7251C19.6614 16.0402 22.8377 14.5941 25.9481 14.4256C26.0993 14.4169 32.1397 14.1232 36.8939 18.4443C37.003 18.5436 37.1585 18.6711 37.3378 18.819C38.2806 19.5966 39.4546 20.5632 38.988 21.235L38.8325 21.4596L38.61 21.3009C38.5711 21.2739 38.5204 21.2285 38.4189 21.1367C38.2644 20.9985 38.1305 20.8829 38.0182 20.7933C38.0365 20.8235 38.0527 20.8505 38.0646 20.8699C38.1057 20.9369 38.1381 20.9931 38.1564 21.0287C38.3476 21.4056 38.4664 21.7167 38.5193 21.978C38.6143 22.4403 38.4491 22.7308 38.2947 22.8928C38.0171 23.1833 37.5775 23.2665 37.2859 23.2211C36.3096 23.0677 34.9953 22.666 34.8473 20.9434C34.816 20.5719 34.6842 20.3224 34.4553 20.2014C34.1853 20.0578 33.8278 20.1204 33.6712 20.209C33.5459 20.2803 33.5308 20.358 33.5805 20.6993L33.5923 20.7857C33.6377 21.1216 33.8645 21.6465 34.1053 22.2027C34.587 23.3183 35.1335 24.5819 34.7166 25.3897C34.4423 25.92 34.0924 26.0237 33.8483 26.0215C33.507 26.0161 32.5815 25.7202 31.3459 23.1142C31.3114 23.0397 31.2725 22.9511 31.2304 22.8517C31.0727 22.4845 30.7433 21.721 30.4679 21.64C30.2821 21.5838 30.0629 21.8895 29.9862 22.1314C29.8696 22.504 29.7616 22.9371 29.6471 23.3939C29.4484 24.1877 29.2432 25.0096 28.9548 25.6695C28.714 26.2192 28.3176 26.5432 27.8381 26.5799C27.8068 26.5831 27.7776 26.5842 27.7474 26.5842ZM24.9999 20.7263C25.0841 20.7263 25.1673 20.7403 25.2493 20.7673C25.7602 20.9391 26.0226 21.5968 26.2278 22.1994C26.3466 22.5483 26.419 23.0537 26.4957 23.5883C26.6004 24.3162 26.7192 25.1413 26.9601 25.5183C27.1815 25.8649 27.499 26.0647 27.7949 26.0431C28.066 26.0215 28.3014 25.8131 28.4591 25.4545C28.7291 24.8357 28.9289 24.0365 29.1222 23.2632C29.2389 22.7977 29.349 22.3582 29.4711 21.9694C29.6385 21.4434 30.0975 20.9682 30.6202 21.1227C31.1386 21.2749 31.4777 22.0633 31.7261 22.639C31.7661 22.7329 31.8028 22.8172 31.8352 22.8852C32.4432 24.1683 33.3342 25.4729 33.858 25.4826C33.9898 25.4869 34.1194 25.3703 34.2371 25.1435C34.5363 24.5625 34.0222 23.3734 33.6096 22.4187C33.3429 21.802 33.1128 21.2685 33.0577 20.8591L33.0459 20.7781C33.0016 20.4703 32.9346 20.0059 33.4066 19.7403C33.7273 19.5599 34.2771 19.4983 34.7091 19.7262C34.9845 19.872 35.3257 20.1939 35.3862 20.8991C35.4985 22.2199 36.4522 22.545 37.3702 22.6887C37.5019 22.7081 37.7622 22.6703 37.9048 22.5213C38.002 22.4197 38.0301 22.2783 37.9912 22.0882C37.9469 21.8743 37.8443 21.6087 37.6758 21.2749C37.6618 21.2469 37.6348 21.2037 37.6035 21.1518C37.3723 20.7695 37.2049 20.4574 37.3205 20.2144C37.3691 20.1107 37.4609 20.0383 37.5732 20.0157C37.6996 19.9897 37.8389 20.0275 38.0095 20.1269C37.6985 19.818 37.314 19.5016 36.9954 19.2391C36.8107 19.0869 36.6509 18.9551 36.5321 18.8471C31.9151 14.6502 26.0388 14.9634 25.9805 14.9677H25.9783C22.9889 15.1297 19.9206 16.5337 16.8588 19.1387C16.0866 19.7997 15.6363 20.4617 15.6233 20.9531C15.6168 21.1929 15.7345 21.2609 15.822 21.2911C16.1525 21.4035 16.9258 21.1799 17.5349 20.344C18.4464 19.0933 18.792 18.9346 19.4335 19.0685L19.4616 19.0761C19.7068 19.156 19.8126 19.3169 19.858 19.4379C20.0178 19.8591 19.683 20.4304 19.5027 20.7371C19.4616 20.8073 19.4238 20.8732 19.3828 20.9455C19.0977 21.4456 18.6667 22.2016 17.4399 23.746C17.2519 23.9825 17.2401 24.4437 17.4129 24.8173C17.5025 25.0117 17.7185 25.3411 18.1602 25.3573C19.8267 25.4146 20.1291 24.2136 20.4531 22.936C20.547 22.5645 20.6367 22.2124 20.7609 21.8949C20.9747 21.3484 21.4326 20.4185 22.0936 20.3321C22.3917 20.2867 22.6206 20.3483 22.7697 20.5146C23.0494 20.8267 22.9068 21.3581 22.7697 21.8711C22.7092 22.0968 22.6087 22.4737 22.6476 22.5742C22.7135 22.7459 22.8474 22.8636 22.9965 22.8809C23.1833 22.9036 23.3788 22.774 23.5527 22.5191C23.638 22.3949 23.7233 22.1746 23.8054 21.9618C23.9641 21.5514 24.1283 21.1281 24.4253 20.9272C24.6219 20.7922 24.8141 20.7263 24.9999 20.7263Z" fill="#333333"/>
<path d="M33.0988 13.3952C31.9799 12.6241 30.7141 12.0366 30.1201 11.6575C28.2528 10.4684 27.7161 8.59896 30.5424 7.61184C28.5207 6.64956 25.596 7.38612 24.0149 8.94024C22.1335 10.787 20.3235 13.9925 21.8884 17.1612C23.0688 19.5523 26.5065 19.9076 28.4267 19.9368C30.5046 19.9681 33.0783 19.7489 34.6259 17.7422C35.991 15.9678 34.6939 14.4958 33.0988 13.3952Z" fill="#EEE6E6"/>
<path d="M28.7658 20.2079C28.6492 20.2079 28.5347 20.2068 28.4213 20.2046C25.9708 20.1679 22.8053 19.6301 21.6454 17.2789C20.0772 14.1037 21.7436 10.7892 23.8248 8.74583C25.5755 7.02539 28.6416 6.40655 30.658 7.36667L31.2509 7.64855L30.631 7.86455C29.5369 8.24687 28.9202 8.77931 28.8479 9.40355C28.7723 10.0569 29.3015 10.814 30.2648 11.4275C30.4776 11.5635 30.7886 11.732 31.1483 11.9264C31.7671 12.2612 32.5372 12.6781 33.2521 13.1706C34.5816 14.0875 35.2987 14.9828 35.4424 15.9062C35.5471 16.5758 35.343 17.2476 34.8376 17.9042C33.304 19.8947 30.8372 20.2079 28.7658 20.2079ZM28.4656 7.44875C26.9471 7.44875 25.2979 8.05679 24.2028 9.13247C22.2556 11.043 20.6885 14.1242 22.1292 17.0413C22.7027 18.2034 24.2622 19.6031 28.4288 19.6657C30.4398 19.6959 32.9368 19.4864 34.4099 17.5759C34.8278 17.0348 34.9909 16.5164 34.9088 15.9916C34.789 15.2226 34.1464 14.4461 32.9454 13.6166C32.2542 13.1403 31.4982 12.731 30.8912 12.4027C30.523 12.2029 30.2044 12.0312 29.9754 11.8843C28.8166 11.1467 28.2107 10.22 28.3122 9.34307C28.3705 8.84087 28.6902 8.16803 29.8058 7.62371C29.3836 7.50599 28.931 7.44875 28.4656 7.44875Z" fill="#333333"/>
<path d="M23.4068 16.74C23.4068 16.8253 23.3345 16.8966 23.2459 16.8966C23.1563 16.8966 23.085 16.8253 23.085 16.74V16.1859C23.085 16.0985 23.1574 16.0283 23.2459 16.0283C23.3356 16.0283 23.4068 16.0985 23.4068 16.1859V16.74Z" fill="#684B42"/>
<path d="M30.9798 13.8358C30.9798 13.9222 30.9074 13.9924 30.8189 13.9924C30.7292 13.9924 30.6569 13.9222 30.6569 13.8358V13.2818C30.6569 13.1954 30.7292 13.1252 30.8189 13.1252C30.9074 13.1252 30.9798 13.1954 30.9798 13.2818V13.8358Z" fill="#684B42"/>
<path d="M26.4568 17.3987C26.5226 17.4571 26.528 17.5564 26.4686 17.6201C26.4092 17.6849 26.3066 17.6903 26.2408 17.632L25.8163 17.2605C25.7504 17.2022 25.745 17.1039 25.8044 17.0391C25.8638 16.9754 25.9664 16.97 26.0323 17.0283L26.4568 17.3987Z" fill="#684B42"/>
<path d="M27.1944 15.3446C27.162 15.4256 27.068 15.4645 26.9849 15.4321C26.9028 15.4008 26.8618 15.31 26.8942 15.2301L27.1037 14.7139C27.1361 14.6329 27.23 14.594 27.3132 14.6264C27.3953 14.6577 27.4363 14.7484 27.4039 14.8294L27.1944 15.3446Z" fill="#684B42"/>
<path d="M30.1677 18.5781C30.1353 18.6591 30.0413 18.6991 29.9581 18.6667C29.875 18.6354 29.835 18.5447 29.8674 18.4637L30.0769 17.9474C30.1093 17.8664 30.2033 17.8275 30.2865 17.8599C30.3696 17.8912 30.4096 17.982 30.3772 18.063L30.1677 18.5781Z" fill="#684B42"/>
<path d="M30.4269 15.7301C30.483 15.7971 30.4722 15.8954 30.4031 15.9505C30.334 16.0045 30.2324 15.9947 30.1763 15.9267L29.8166 15.4958C29.7605 15.4288 29.7713 15.3305 29.8404 15.2755C29.9095 15.2225 30.0121 15.2323 30.0683 15.2992L30.4269 15.7301Z" fill="#684B42"/>
<path d="M33.4595 16.1179C33.4433 16.2021 33.359 16.2572 33.2705 16.2421C33.183 16.2259 33.1258 16.1438 33.143 16.0596L33.2489 15.5153C33.2661 15.4289 33.3493 15.3749 33.4379 15.39C33.5253 15.4062 33.5837 15.4883 33.5664 15.5725L33.4595 16.1179Z" fill="#684B42"/>
<path d="M23.6963 13.3077C23.6077 13.3152 23.5299 13.2504 23.5224 13.164C23.5159 13.0766 23.5818 13.002 23.6714 12.9956L24.2406 12.9513C24.3291 12.9437 24.4069 13.0085 24.4145 13.0949C24.4209 13.1813 24.3551 13.2558 24.2665 13.2634L23.6963 13.3077Z" fill="#684B42"/>
<path d="M28.0843 12.474C28.1048 12.5582 28.0519 12.6424 27.9644 12.6619C27.8769 12.6824 27.7905 12.6306 27.77 12.5452L27.6383 12.0063C27.6177 11.9221 27.6717 11.8367 27.7581 11.8184C27.8445 11.7979 27.932 11.8497 27.9525 11.9339L28.0843 12.474Z" fill="#684B42"/>
<path d="M25.3584 10.9619C25.3789 11.0451 25.3249 11.1293 25.2385 11.1499C25.151 11.1704 25.0646 11.1185 25.0441 11.0343L24.9123 10.4943C24.8918 10.41 24.9447 10.3258 25.0322 10.3053C25.1197 10.2858 25.2061 10.3377 25.2266 10.4219L25.3584 10.9619Z" fill="#684B42"/>
<path d="M26.8315 9.44456C26.7764 9.5126 26.6749 9.5234 26.6047 9.4694C26.5356 9.4154 26.5237 9.31712 26.5788 9.25016L26.9341 8.81599C26.9903 8.74795 27.0918 8.73715 27.1609 8.79115C27.2311 8.84407 27.2419 8.94343 27.1868 9.01148L26.8315 9.44456Z" fill="#684B42"/>
</svg>
