<svg width="54" height="54" viewBox="0 0 54 54" fill="none" xmlns="http://www.w3.org/2000/svg">
<path d="M54 26.9908C54 41.8974 41.9117 53.9816 27 53.9816C12.0883 53.9816 0 41.8974 0 26.9908C0 12.0842 12.0883 0 27 0C41.9117 0 54 12.0842 54 26.9908Z" fill="#FFD74A"/>
<mask id="mask0" mask-type="alpha" maskUnits="userSpaceOnUse" x="0" y="0" width="54" height="54">
<path d="M27 54C41.9117 54 54 41.9158 54 27.0092C54 12.1026 41.9117 0.0183716 27 0.0183716C12.0883 0.0183716 0 12.1026 0 27.0092C0 41.9158 12.0883 54 27 54Z" fill="#FFD74A"/>
</mask>
<g mask="url(#mask0)">
<path d="M43.1892 26.9259C43.1892 35.9873 35.8409 43.3331 26.7764 43.3331C17.712 43.3331 10.3637 35.9873 10.3637 26.9259C10.3637 17.8646 17.712 10.5187 26.7764 10.5187C35.8409 10.5187 43.1892 17.8646 43.1892 26.9259Z" fill="#C8C8CA"/>
<path fill-rule="evenodd" clip-rule="evenodd" d="M26.7764 10.7888C17.861 10.7888 10.6337 18.0138 10.6337 26.926C10.6337 35.8381 17.861 43.0631 26.7764 43.0631C35.6918 43.0631 42.9192 35.8381 42.9192 26.926C42.9192 18.0138 35.6918 10.7888 26.7764 10.7888ZM10.0937 26.926C10.0937 17.7154 17.5629 10.2488 26.7764 10.2488C35.9899 10.2488 43.4592 17.7154 43.4592 26.926C43.4592 36.1365 35.9899 43.6031 26.7764 43.6031C17.5629 43.6031 10.0937 36.1365 10.0937 26.926Z" fill="#333333"/>
<path d="M41.51 26.926C41.51 35.0589 34.9133 41.6533 26.7766 41.6533C18.6399 41.6533 12.0443 35.0589 12.0443 26.926C12.0443 18.792 18.641 12.1987 26.7766 12.1987C34.9133 12.1987 41.51 18.792 41.51 26.926Z" fill="#B65514"/>
<path fill-rule="evenodd" clip-rule="evenodd" d="M26.7766 12.4688C18.79 12.4688 12.3143 18.9413 12.3143 26.926C12.3143 34.9097 18.7889 41.3833 26.7766 41.3833C34.7643 41.3833 41.24 34.9097 41.24 26.926C41.24 18.9413 34.7643 12.4688 26.7766 12.4688ZM11.7743 26.926C11.7743 18.6429 18.4919 11.9288 26.7766 11.9288C35.0623 11.9288 41.78 18.6429 41.78 26.926C41.78 35.2081 35.0623 41.9233 26.7766 41.9233C18.4908 41.9233 11.7743 35.2081 11.7743 26.926Z" fill="#333333"/>
<path d="M24.097 39.3946C24.0581 39.386 23.9836 39.3828 23.9167 39.3817C23.8465 39.3784 23.7741 39.3763 23.7017 39.3666C20.9477 39.0146 19.1614 37.0551 19.1506 34.3765C19.1463 33.3476 19.5891 32.4407 19.979 31.6407C20.6291 30.3084 21.1421 29.2558 19.7673 27.8825C19.3321 27.4496 18.7845 27.0847 18.2045 26.7003C17.333 26.1227 16.4322 25.5246 15.8642 24.6328C14.8328 23.0155 15.646 20.9891 16.9096 19.6989C17.2153 19.3869 17.6246 19.0651 18.0577 18.7229C19.0448 17.9456 20.1637 17.0635 20.2295 16.1739L21.0493 16.2354C20.9553 17.4846 19.6863 18.4854 18.5663 19.3674C18.1549 19.6924 17.7661 19.9979 17.4971 20.2733C16.4603 21.3313 15.768 22.9529 16.5565 24.1902C17.0306 24.9351 17.8211 25.4598 18.6581 26.0147C19.2467 26.4045 19.8548 26.8083 20.3473 27.2995C22.1379 29.0863 21.383 30.6334 20.7166 31.9991C20.3483 32.7538 19.9682 33.5333 19.9714 34.3711C19.9811 36.648 21.4499 38.2491 23.8054 38.5504C23.8421 38.5558 23.894 38.5579 23.948 38.559C24.0463 38.5633 24.1586 38.5676 24.2655 38.5903L24.097 39.3946Z" fill="#EED374"/>
<path d="M20.615 37.7968C20.5761 37.7838 20.5016 37.7741 20.4368 37.7655C20.3666 37.7568 20.2953 37.746 20.2241 37.7298C17.5187 37.1112 15.93 34.9886 16.1805 32.3209C16.4343 29.6067 19.4648 28.3932 17.4258 25.9187C16.4397 24.7213 14.6513 23.8663 13.8575 22.3051C12.9881 20.595 13.9946 18.6581 15.3781 17.4964C16.4603 16.5885 18.8071 15.5682 19.0253 14.3115L19.8342 14.4519C19.5372 16.162 17.0078 17.2017 15.9051 18.1248C14.7711 19.077 13.9233 20.6241 14.5886 21.9326C14.9882 22.7197 15.7248 23.3189 16.5035 23.9526C17.051 24.3985 17.6169 24.8595 18.0587 25.3961C20.5016 28.3597 17.2163 30.0634 16.997 32.3975C16.7853 34.6637 18.0921 36.4008 20.4066 36.9298C20.4422 36.9385 20.493 36.9449 20.5481 36.9525C20.6453 36.9654 20.7565 36.9816 20.8613 37.014L20.615 37.7968Z" fill="#EED374"/>
<path d="M31.0781 40.4429C30.618 40.4429 30.173 40.3566 29.7853 40.1763L30.1309 39.4313C31.01 39.8394 32.3989 39.5555 33.2273 38.7997C33.6733 38.3927 34.1301 37.7007 33.7759 36.7085C33.4443 35.78 32.3287 35.3104 31.1461 34.8127C29.9181 34.2955 28.6491 33.7611 27.9525 32.6329C27.3153 31.6007 27.1857 30.4941 27.5788 29.4339C28.0886 28.0585 29.5045 26.8245 31.1861 26.29C33.561 25.5321 35.9478 25.5224 35.5557 22.9237C35.1918 20.5151 33.8018 18.8546 31.1785 17.6983L31.5101 16.9469C34.4153 18.2273 35.9586 20.0875 36.3679 22.8007C36.7999 25.666 34.4617 26.2695 32.5825 26.7543C32.198 26.8536 31.7995 26.9562 31.4345 27.0717C29.9851 27.5327 28.7744 28.5713 28.3489 29.7189C28.0422 30.5459 28.1437 31.3805 28.6513 32.201C29.2107 33.1058 30.3566 33.5884 31.4658 34.0558C32.7596 34.601 34.0967 35.1635 34.5503 36.4321C34.9391 37.5215 34.6593 38.6054 33.7813 39.4065C33.048 40.0737 32.0285 40.4429 31.0781 40.4429Z" fill="#EED374"/>
<path d="M21.0472 39.7099C18.7036 38.3388 17.3039 36.0759 17.3018 33.6586C17.3007 32.7517 17.7208 31.9463 18.128 31.1689C18.4455 30.5622 18.7446 29.9878 18.8051 29.4329C18.8451 29.0626 18.7155 28.7657 18.4206 28.5508C17.9789 28.228 17.2704 28.1676 16.7358 28.4051C16.2984 28.5994 16.0922 29.0615 15.8535 29.597C15.6072 30.1498 15.3286 30.7759 14.7216 31.1527C14.2432 31.4507 13.8306 31.4961 13.4958 31.2866C12.8586 30.8904 12.8835 29.7503 12.9915 28.689L13.809 28.7722C13.6438 30.3916 13.9192 30.5827 13.9311 30.5903C13.943 30.5967 14.051 30.6021 14.2886 30.4542C14.6817 30.2102 14.8869 29.7492 15.104 29.2612C15.3718 28.6588 15.6764 27.9765 16.4021 27.6537C17.2002 27.2985 18.2295 27.3945 18.9056 27.8869C19.4402 28.2766 19.695 28.8564 19.6238 29.5214C19.5471 30.2307 19.1972 30.9012 18.858 31.55C18.4811 32.2712 18.1247 32.9536 18.1258 33.6586C18.1269 35.7822 19.3764 37.7795 21.4652 39.0017L21.0472 39.7099Z" fill="#F4D954"/>
<path d="M36.0959 28.6944C33.7523 27.3222 32.3526 25.0604 32.3493 22.6431C32.3482 21.7351 32.7684 20.9308 33.1755 20.1535C33.493 19.5467 33.7922 18.9723 33.8527 18.4174C33.8927 18.0471 33.7631 17.7502 33.4682 17.5353C33.0254 17.2125 32.3169 17.1521 31.7834 17.3896C31.346 17.5839 31.1408 18.0471 30.901 18.5815C30.6548 19.1343 30.3762 19.7605 29.7692 20.1373C29.2897 20.4352 28.8782 20.4806 28.5434 20.2722C27.9062 19.8749 27.931 18.7359 28.039 17.6746L28.8566 17.7577C28.6924 19.3783 28.9668 19.5683 28.9787 19.5759C28.9895 19.5834 29.0985 19.5888 29.335 19.4409C29.7282 19.1969 29.9334 18.7359 30.1505 18.2479C30.4194 17.6455 30.7239 16.9621 31.4486 16.6392C32.2467 16.284 33.276 16.3801 33.9521 16.8724C34.4866 17.2611 34.7415 17.842 34.6692 18.5059C34.5925 19.2163 34.2426 19.8868 33.9035 20.5346C33.5265 21.2558 33.1701 21.937 33.1712 22.6431C33.1723 24.7657 34.4218 26.763 36.5106 27.9862L36.0959 28.6944Z" fill="#F4D954"/>
<path d="M20.5331 34.7305C22.9846 33.5635 25.6436 33.6757 27.6448 35.0318C28.3965 35.5413 28.8264 36.3403 29.2411 37.1122C29.5651 37.7168 29.8718 38.2858 30.2973 38.6474C30.5814 38.8882 30.9 38.9487 31.2434 38.8256C31.7586 38.641 32.2078 38.0893 32.3104 37.5138C32.3958 37.0431 32.1279 36.6134 31.819 36.1146C31.4994 35.6007 31.1376 35.0177 31.1667 34.3041C31.1883 33.7405 31.3827 33.3745 31.7435 33.2147C32.4303 32.9114 33.3591 33.5721 34.1767 34.2566L33.6486 34.886C32.4001 33.8409 32.088 33.9597 32.0761 33.9651C32.0631 33.9705 31.9983 34.0579 31.9875 34.3365C31.9692 34.7986 32.2348 35.2283 32.5167 35.6817C32.8645 36.242 33.2587 36.8779 33.1183 37.6585C32.9638 38.5179 32.3072 39.3157 31.5199 39.5986C30.8967 39.8221 30.2736 39.7066 29.7638 39.2747C29.2195 38.8115 28.8609 38.1454 28.5153 37.502C28.1298 36.7851 27.7669 36.1081 27.1815 35.7119C25.4244 34.52 23.07 34.4304 20.8841 35.4722L20.5331 34.7305Z" fill="#F4D954"/>
<path d="M22.8701 22.0482L21.9208 22.9972L20.9714 22.0482L21.9208 21.0981L22.8701 22.0482Z" fill="#B5CC46"/>
<path d="M16.3149 23.8386L14.6126 25.5403L16.3149 27.2419L18.0171 25.5403L16.3149 23.8386Z" fill="#B5CC46"/>
<path d="M37.4317 21.0364L36.4199 22.0479L37.4317 23.0594L38.4436 22.0479L37.4317 21.0364Z" fill="#B5CC46"/>
<path d="M31.3654 15.7853H22.0115C21.9618 14.5912 22.1908 13.6271 22.1908 13.6271C22.9846 10.7984 25.4988 8.65538 25.4988 8.65538L25.3217 -0.917725H28.0552L27.8791 8.65646C27.8791 8.65646 30.3934 10.7995 31.185 13.6282C31.185 13.6282 31.4151 14.5912 31.3654 15.7853Z" fill="#C5C4C9"/>
<path fill-rule="evenodd" clip-rule="evenodd" d="M25.0467 -1.18774H28.3302L28.1514 8.53703C28.1575 8.54261 28.164 8.54846 28.1707 8.55457C28.2434 8.6209 28.3473 8.71813 28.4741 8.84343C28.7276 9.09387 29.0733 9.4572 29.4442 9.9106C30.1834 10.8142 31.0351 12.0906 31.445 13.5554L31.185 13.6281C31.4476 13.5654 31.4476 13.5655 31.4477 13.5655L31.4477 13.5656L31.448 13.5668L31.4486 13.5696L31.4509 13.5793C31.452 13.5844 31.4535 13.5908 31.4552 13.5986C31.4563 13.6035 31.4574 13.6089 31.4587 13.6148C31.4654 13.6455 31.4746 13.6899 31.4854 13.7467C31.5071 13.8601 31.5351 14.0229 31.5615 14.2237C31.6143 14.6246 31.6608 15.18 31.6352 15.7965L31.6244 16.0553H21.7525L21.7417 15.7965C21.7161 15.18 21.7623 14.6245 21.8148 14.2234C21.841 14.0225 21.869 13.8595 21.8905 13.746C21.9013 13.6893 21.9105 13.6448 21.9171 13.6141C21.9203 13.5988 21.923 13.5869 21.9249 13.5786L21.9271 13.5688L21.9278 13.5661L21.928 13.5652L21.9281 13.5648C21.9281 13.5647 21.9281 13.5647 22.1908 13.6271L21.9281 13.5648L21.9293 13.5594L21.9308 13.5541C22.3418 12.0895 23.194 10.8131 23.9335 9.90948C24.3045 9.45609 24.6503 9.09277 24.9038 8.84233C25.0306 8.71704 25.1346 8.61981 25.2073 8.55349C25.214 8.54738 25.2204 8.54154 25.2266 8.53596L25.0467 -1.18774ZM25.6739 8.86089L25.6729 8.86172L25.6683 8.86569C25.6641 8.86935 25.6576 8.87505 25.6488 8.88275C25.6314 8.89814 25.6051 8.92149 25.5712 8.95245C25.5033 9.01437 25.4046 9.10667 25.2833 9.22649C25.0406 9.46627 24.7082 9.81551 24.3514 10.2515C23.6364 11.1253 22.8358 12.3325 22.4524 13.6941L22.4515 13.6978C22.4501 13.7042 22.4479 13.7142 22.445 13.7275C22.4393 13.7542 22.431 13.7944 22.421 13.8467C22.4012 13.9513 22.375 14.104 22.3502 14.2934C22.3081 14.6153 22.2705 15.0409 22.2748 15.5153H31.1021C31.1063 15.0411 31.0684 14.6158 31.0261 14.2941C31.0012 14.1049 30.9749 13.9524 30.955 13.8479C30.945 13.7957 30.9367 13.7555 30.9309 13.7289C30.928 13.7156 30.9258 13.7056 30.9243 13.6992L30.9234 13.6952C30.5411 12.3336 29.7411 11.1263 29.0262 10.2525C28.6696 9.81656 28.3373 9.46733 28.0946 9.22756C27.9733 9.10774 27.8746 9.01544 27.8068 8.95352C27.7728 8.92256 27.7466 8.89921 27.7291 8.88383C27.7204 8.87613 27.7138 8.87043 27.7096 8.86676L27.705 8.8628L27.7041 8.86197L27.7039 8.86186L27.6068 8.77911L27.7802 -0.647744H25.5967L25.7711 8.77802L25.6741 8.86077L25.6739 8.86089Z" fill="#333333"/>
<path d="M23.8789 27.3643C23.8789 28.0887 23.2914 28.676 22.5667 28.676C21.8421 28.676 21.2545 28.0887 21.2545 27.3643C21.2545 26.6399 21.8421 26.0526 22.5667 26.0526C23.2914 26.0526 23.8789 26.6409 23.8789 27.3643Z" fill="#EAAC3E"/>
<path d="M25.34 25.9791C25.34 26.7446 24.719 27.3653 23.9544 27.3653C23.1887 27.3653 22.5677 26.7446 22.5677 25.9791C22.5677 25.2136 23.1887 24.5939 23.9544 24.5939C24.719 24.5929 25.34 25.2136 25.34 25.9791Z" fill="#EDD044"/>
<path d="M25.5733 28.8672C25.5733 29.6974 24.9005 30.37 24.0699 30.37C23.2394 30.37 22.5666 29.6974 22.5666 28.8672C22.5666 28.0369 23.2394 27.3643 24.0699 27.3643C24.9005 27.3643 25.5733 28.0369 25.5733 28.8672Z" fill="#EDD044"/>
<path d="M26.8425 27.4237C26.8425 28.2215 26.1956 28.8682 25.3974 28.8682C24.5993 28.8682 23.9524 28.2215 23.9524 27.4237C23.9524 26.6258 24.5993 25.9791 25.3974 25.9791C26.1966 25.9791 26.8425 26.6258 26.8425 27.4237Z" fill="#EDD044"/>
<path d="M30.0716 26.3117C30.0716 27.6181 29.0121 28.6772 27.7053 28.6772C26.3985 28.6772 25.3391 27.6181 25.3391 26.3117C25.3391 25.0064 26.3985 23.9473 27.7053 23.9473C29.0121 23.9462 30.0716 25.0054 30.0716 26.3117Z" fill="#EDD044"/>
<path d="M29.1417 28.8672C29.1417 29.6974 28.4688 30.37 27.6383 30.37C26.8078 30.37 26.1349 29.6974 26.1349 28.8672C26.1349 28.0369 26.8078 27.3643 27.6383 27.3643C28.4677 27.3643 29.1417 28.0369 29.1417 28.8672Z" fill="#EDD044"/>
<path d="M27.9796 30.1583C27.9796 30.8709 27.4018 31.4485 26.689 31.4485C25.9762 31.4485 25.3984 30.8709 25.3984 30.1583C25.3984 29.4458 25.9762 28.8682 26.689 28.8682C27.4018 28.8671 27.9796 29.4447 27.9796 30.1583Z" fill="#EAAC3E"/>
<path d="M25.34 31.8674C25.34 32.811 24.5743 33.5765 23.6304 33.5765C22.6865 33.5765 21.9207 32.811 21.9207 31.8674C21.9207 30.9238 22.6865 30.1584 23.6304 30.1584C24.5732 30.1584 25.34 30.9238 25.34 31.8674Z" fill="#EAAC3E"/>
<path d="M30.644 29.6185C30.644 30.0331 30.3082 30.371 29.8924 30.371C29.4766 30.371 29.1407 30.0341 29.1407 29.6185C29.1407 29.2039 29.4766 28.8671 29.8924 28.8671C30.3082 28.8671 30.644 29.2039 30.644 29.6185Z" fill="#EDD044"/>
<path d="M28.8447 31.2359C28.8447 31.8307 28.362 32.3133 27.7669 32.3133C27.1718 32.3133 26.6891 31.8307 26.6891 31.2359C26.6891 30.641 27.1718 30.1584 27.7669 30.1584C28.362 30.1584 28.8447 30.6399 28.8447 31.2359Z" fill="#EDD044"/>
<path d="M19.0663 19.0403C18.7585 19.6557 15.3695 25.9262 21.0686 33.1846L23.841 32.0726C19.7186 27.8771 19.5275 23.198 20.8138 19.0403H19.0663Z" fill="#D93E1A"/>
<path d="M32.9033 38.234C33.5513 37.9998 40.3294 35.7919 41.2042 26.6053L38.4286 25.5009C38.5225 31.3805 35.4348 34.9034 31.6364 37.0302L32.9033 38.234Z" fill="#D93E1A"/>
<path d="M22.1476 30.6755C22.4436 31.0652 25.3747 35.1948 31.7931 33.8453L31.9562 31.7303C27.9861 33.0366 24.9427 31.6882 22.6974 29.5624L22.1476 30.6755Z" fill="#D93E1A"/>
<path d="M18.2196 34.3246C18.5155 34.7144 21.4477 38.844 27.8651 37.4944L28.0271 35.3794C24.057 36.6869 21.0146 35.3373 18.7682 33.2126L18.2196 34.3246Z" fill="#D93E1A"/>
<path d="M15.026 21.0982C14.81 21.5376 12.434 26.0094 16.5207 31.1366L18.4842 30.3323C15.5347 27.373 15.3749 24.0488 16.268 21.0884L15.026 21.0982Z" fill="#D93E1A"/>
<path d="M40.0131 22.6744C39.8911 22.2005 38.7808 17.2601 32.3397 16.0282L31.3731 17.9176C35.5397 18.2436 37.8261 20.662 39.0768 23.4895L40.0131 22.6744Z" fill="#D93E1A"/>
<path d="M36.6629 22.7845C36.3129 22.1918 32.8904 15.9396 23.6985 16.7753L23.1251 19.7065C28.8879 18.5286 32.9217 20.9124 35.7125 24.2517L36.6629 22.7845Z" fill="#D93E1A"/>
<path d="M30.5932 14.887C30.5932 15.0932 30.5824 15.2962 30.5586 15.4948H22.8182C22.7956 15.2962 22.7848 15.0932 22.7848 14.887C22.7848 12.3153 24.5322 10.2316 26.689 10.2316C28.8457 10.2316 30.5932 12.3153 30.5932 14.887Z" fill="#9A9A9D"/>
<path d="M25.3638 38.925C24.0689 38.925 22.8518 38.6702 21.9057 38.1347C20.5719 37.3801 19.9617 36.1396 20.1874 34.6421C20.6388 31.6472 24.0786 30.3398 27.405 29.0755C30.0651 28.065 32.8148 27.0188 33.6312 25.1813C34.0103 24.3284 33.9693 23.3373 33.507 22.1529C33.0383 20.9524 32.3363 20.1848 31.4216 19.8728C30.361 19.5111 28.997 19.781 27.58 20.6317C26.6544 21.1877 26.1242 22.0622 25.5626 22.9886C24.7677 24.3003 23.9458 25.6574 21.9672 26.0094C20.641 26.2458 19.2251 25.7643 18.3611 24.784C17.6094 23.93 17.3751 22.8094 17.7196 21.707C18.4173 19.4744 21.1281 18.4433 21.9413 18.181C23.1725 17.7826 27.0724 17.0312 26.2494 15.5445L26.9676 15.1461C27.2258 15.6125 27.2646 16.0886 27.08 16.5227C26.4352 18.0406 23.1963 18.6387 22.194 18.9626C20.7123 19.4409 18.9648 20.4773 18.5026 21.9532C18.2412 22.7867 18.4108 23.5996 18.9767 24.242C19.656 25.0129 20.7728 25.3897 21.8225 25.2018C23.435 24.9146 24.0948 23.8253 24.8595 22.5643C25.4481 21.5926 26.0561 20.5896 27.1556 19.9289C28.8069 18.9367 30.374 18.6484 31.6862 19.0965C32.8407 19.4906 33.7112 20.419 34.2717 21.856C34.8171 23.2552 34.8527 24.4515 34.3808 25.516C33.426 27.6666 30.5133 28.7743 27.6956 29.8453C24.5895 31.0254 21.3786 32.2464 20.9985 34.7663C20.8213 35.9366 21.2631 36.8305 22.3085 37.4222C24.6176 38.7285 28.9386 38.0894 31.374 36.078C32.67 35.0081 34.0038 33.1026 32.994 30.1044L33.7727 29.8421C34.6767 32.5261 34.0114 34.966 31.8978 36.7107C30.1698 38.1369 27.6448 38.925 25.3638 38.925Z" fill="#F4D954"/>
<path d="M33.1202 27.5328L31.0349 29.6179L33.1208 31.7025L35.2061 29.6173L33.1202 27.5328Z" fill="#B5CC46"/>
<path d="M29.8926 22.5103L27.8071 24.5952L29.8926 26.68L31.9782 24.5952L29.8926 22.5103Z" fill="#B5CC46"/>
<path d="M27.9794 32.0245L26.8641 33.1388L27.9788 34.2537L29.094 33.1394L27.9794 32.0245Z" fill="#8EA229"/>
<path d="M26.1371 24.3845L25.0219 25.4989L26.1367 26.6136L27.2519 25.4992L26.1371 24.3845Z" fill="#8EA229"/>
<path d="M28.2218 18.3896L26.1362 20.4744L28.2218 22.5593L30.3074 20.4744L28.2218 18.3896Z" fill="#B5CC46"/>
<path d="M28.2249 19.36L27.1096 20.4744L28.2244 21.5893L29.3397 20.4749L28.2249 19.36Z" fill="#8EA229"/>
<path d="M25.0366 30.3948L22.2912 31.4734L21.2112 28.7311L23.9555 27.6504L25.0366 30.3948Z" fill="#B5CC46"/>
<path d="M23.5698 28.5394L22.1027 29.1172L22.6808 30.5838L24.1478 30.0059L23.5698 28.5394Z" fill="#8EA229"/>
<path d="M37.1197 33.9706C36.9599 33.9706 36.8 33.9382 36.6413 33.8723C36.1531 33.6726 35.8215 33.325 35.6822 32.8661C35.3485 31.7638 36.2276 30.2923 36.6207 29.7104C37.5981 28.2647 38.3034 27.2197 37.4815 25.652C36.9901 24.7171 35.2751 23.5867 34.1961 23.713C33.6054 23.7821 33.1269 24.147 32.6204 24.5335C32.2327 24.8293 31.832 25.136 31.346 25.3454C29.9291 25.9554 28.6622 25.8539 27.6848 25.0496C26.7755 24.3025 26.7582 23.5759 26.742 22.8752C26.7355 22.5967 26.729 22.3095 26.6642 22.0093C26.4417 20.9751 25.7516 20.6587 25.1814 20.7062C24.4545 20.7688 23.6942 21.4155 23.6467 22.5319L22.8259 22.4973C22.8929 20.906 24.0258 19.9807 25.1112 19.8879C25.9881 19.8123 27.1319 20.2776 27.4677 21.8355C27.5487 22.2123 27.5563 22.5535 27.5639 22.8547C27.5768 23.4874 27.5876 23.9052 28.2065 24.4137C28.9419 25.0183 29.8891 25.0766 31.022 24.5897C31.4141 24.4202 31.7586 24.1578 32.1225 23.8803C32.6939 23.4431 33.2857 22.9907 34.1011 22.8957C35.5526 22.7251 37.5733 24.0585 38.2083 25.2677C39.2603 27.2704 38.3088 28.6782 37.3011 30.1671C36.7752 30.9455 36.2795 32.0013 36.4685 32.6254C36.5365 32.8478 36.6899 33.0011 36.9523 33.109C37.0614 33.1533 37.2147 33.1835 37.4351 33.0151C38.0993 32.5088 38.6015 30.8224 38.5161 30.1303L39.3315 30.0299C39.446 30.9584 38.865 32.9579 37.934 33.6683C37.6748 33.8702 37.3994 33.9706 37.1197 33.9706Z" fill="#EED374"/>
<path d="M45.738 32.2323L44.7347 34.099L10.0948 15.051L10.733 13.8645L45.738 32.2323Z" fill="#923D17"/>
<path fill-rule="evenodd" clip-rule="evenodd" d="M10.6219 13.5013L46.105 32.12L44.8435 34.467L9.73032 15.1588L10.6219 13.5013ZM10.8443 14.2278L10.4593 14.9434L44.626 33.7311L45.3711 32.3447L10.8443 14.2278Z" fill="#333333"/>
<path d="M47.1757 29.5592L46.1723 31.4248L11.5324 12.378L12.1707 11.1904L47.1757 29.5592Z" fill="#923D17"/>
<path fill-rule="evenodd" clip-rule="evenodd" d="M12.0593 10.827L47.5425 29.4469L46.2809 31.7927L11.1679 12.4857L12.0593 10.827ZM12.2819 11.5536L11.8967 12.2702L46.0635 31.0569L46.8086 29.6716L12.2819 11.5536Z" fill="#333333"/>
</g>
</svg>
