<svg width="54" height="54" viewBox="0 0 54 54" fill="none" xmlns="http://www.w3.org/2000/svg">
<path d="M27 54C41.9117 54 54 41.9117 54 27C54 12.0883 41.9117 0 27 0C12.0883 0 0 12.0883 0 27C0 41.9117 12.0883 54 27 54Z" fill="#FFD74A"/>
<path d="M16.9883 43.1158C15.9806 43.1158 15.162 42.3166 15.162 41.3349V15.7605C15.162 14.7788 15.9817 13.9796 16.9883 13.9796H35.3277C36.3343 13.9796 37.154 14.7788 37.154 15.7605V41.3349C37.154 42.3166 36.3354 43.1158 35.3277 43.1158H16.9883Z" fill="#EBF3F2"/>
<path d="M35.3278 14.2485C36.1874 14.2485 36.884 14.9257 36.884 15.7594V41.3338C36.884 42.1687 36.1874 42.8447 35.3278 42.8447H16.9883C16.1286 42.8447 15.432 42.1687 15.432 41.3338V15.7594C15.432 14.9246 16.1286 14.2485 16.9883 14.2485H35.3278ZM35.3278 13.7085H16.9883C15.8327 13.7085 14.892 14.6287 14.892 15.7594V41.3338C14.892 42.4646 15.8327 43.3847 16.9883 43.3847H35.3278C36.4834 43.3847 37.424 42.4646 37.424 41.3338V15.7594C37.423 14.6287 36.4834 13.7085 35.3278 13.7085Z" fill="#333333"/>
<path opacity="0.9" d="M36.6562 41.1038C36.6562 41.9235 35.9725 42.5877 35.128 42.5877H17.12C16.2755 42.5877 15.5918 41.9235 15.5918 41.1038V15.9905C15.5918 15.1708 16.2755 14.5066 17.12 14.5066H35.128C35.9714 14.5066 36.6562 15.1708 36.6562 15.9905V41.1038Z" fill="#EBF3F2"/>
<g opacity="0.9">
<path opacity="0.9" d="M40.9686 36.5882H37.2372V34.5017H40.9686C41.5204 34.5017 42.135 33.7273 42.135 32.616V25.3811C42.135 24.2697 41.5204 23.4965 40.9686 23.4965H37.2372V21.4099H40.9686C42.7938 21.4099 44.2215 23.1541 44.2215 25.3811V32.616C44.2215 34.8429 42.7927 36.5882 40.9686 36.5882Z" fill="#EBF3F2"/>
<path opacity="0.9" fill-rule="evenodd" clip-rule="evenodd" d="M36.9672 21.1399H40.9686C42.9908 21.1399 44.4915 23.0579 44.4915 25.3811V32.616C44.4915 34.9391 42.9897 36.8582 40.9686 36.8582H36.9672V34.2317H40.9686C41.1186 34.2317 41.338 34.1187 41.5344 33.8254C41.7245 33.5414 41.865 33.1233 41.865 32.616V25.3811C41.865 24.8738 41.7245 24.456 41.5344 24.1723C41.3381 23.8793 41.1188 23.7665 40.9686 23.7665H36.9672V21.1399ZM37.5072 21.6799V23.2265H40.9686C41.3702 23.2265 41.7341 23.5002 41.983 23.8717C42.2382 24.2525 42.405 24.777 42.405 25.3811V32.616C42.405 33.22 42.2382 33.7448 41.9831 34.1258C41.7342 34.4975 41.3704 34.7717 40.9686 34.7717H37.5072V36.3182H40.9686C42.5956 36.3182 43.9515 34.7468 43.9515 32.616V25.3811C43.9515 23.2503 42.5967 21.6799 40.9686 21.6799H37.5072Z" fill="#333333"/>
</g>
<path d="M35.4044 20.1787H16.8424V41.4418H35.4044V20.1787Z" fill="#DCB454"/>
<path d="M35.4563 13.9105H16.8598V20.2857H35.4563V13.9105Z" fill="#E5CE9D"/>
<path opacity="0.5" d="M21.3049 31.292C21.3049 31.0997 21.4659 30.9442 21.6646 30.9442C21.8622 30.9442 22.0221 31.0997 22.0221 31.292C22.0221 31.4842 21.8622 31.6397 21.6646 31.6397C21.4659 31.6408 21.3049 31.4842 21.3049 31.292Z" fill="white"/>
<path opacity="0.5" d="M30.8748 37.2762C30.8748 36.8539 31.228 36.5105 31.6643 36.5105C32.1006 36.5105 32.4527 36.8539 32.4527 37.2762C32.4527 37.6996 32.0995 38.0419 31.6643 38.0419C31.2291 38.0419 30.8748 37.6996 30.8748 37.2762Z" fill="white"/>
<path opacity="0.5" d="M29.5701 31.8752C29.5701 31.616 29.7872 31.4054 30.054 31.4054C30.3218 31.4054 30.5389 31.616 30.5389 31.8752C30.5389 32.1344 30.3229 32.345 30.054 32.345C29.7872 32.345 29.5701 32.1344 29.5701 31.8752Z" fill="white"/>
<path opacity="0.5" d="M22.3967 36.7859C22.3967 36.4867 22.6483 36.2437 22.9561 36.2437C23.2639 36.2437 23.5145 36.4867 23.5145 36.7859C23.5145 37.085 23.2639 37.328 22.9561 37.328C22.6483 37.328 22.3967 37.085 22.3967 36.7859Z" fill="white"/>
<path opacity="0.5" d="M22.7003 27.283C22.7003 26.9136 23.0103 26.6134 23.3905 26.6134C23.7728 26.6134 24.0817 26.9126 24.0817 27.283C24.0817 27.6534 23.7728 27.9537 23.3905 27.9537C23.0092 27.9537 22.7003 27.6534 22.7003 27.283Z" fill="white"/>
<path opacity="0.5" d="M30.4828 25.3595C30.4828 25.1467 30.661 24.9728 30.8813 24.9728C31.1016 24.9728 31.2798 25.1467 31.2798 25.3595C31.2798 25.5733 31.1016 25.7461 30.8813 25.7461C30.661 25.7461 30.4828 25.5744 30.4828 25.3595Z" fill="white"/>
<path opacity="0.5" d="M19.5488 23.2665C19.5488 23.0364 19.7422 22.8485 19.9798 22.8485C20.2184 22.8485 20.4118 23.0364 20.4118 23.2665C20.4118 23.4987 20.2195 23.6866 19.9798 23.6866C19.7411 23.6866 19.5488 23.4987 19.5488 23.2665Z" fill="white"/>
<path opacity="0.5" d="M20.1116 38.8951C20.1116 38.664 20.3049 38.4761 20.5436 38.4761C20.7823 38.4761 20.9756 38.664 20.9756 38.8951C20.9756 39.1273 20.7823 39.3142 20.5436 39.3142C20.3049 39.3152 20.1116 39.1273 20.1116 38.8951Z" fill="white"/>
<path opacity="0.5" d="M27.2396 23.1714C27.2396 22.9403 27.4329 22.7535 27.6705 22.7535C27.9092 22.7535 28.1014 22.9414 28.1014 23.1714C28.1014 23.4026 27.9092 23.5905 27.6705 23.5905C27.4329 23.5905 27.2396 23.4026 27.2396 23.1714Z" fill="white"/>
<path d="M35.3991 11.8963H35.358C35.1701 11.0787 34.4195 10.4664 33.521 10.4664C33.1721 10.4664 32.847 10.5603 32.5673 10.7202C32.2466 9.66715 31.2432 8.89819 30.0552 8.89819C29.2161 8.89819 28.4698 9.28267 27.9903 9.87883C27.6652 9.30103 27.0334 8.90791 26.3066 8.90791C26.0744 8.90791 25.853 8.95003 25.6467 9.02347C25.1909 8.27395 24.3518 7.76959 23.3906 7.76959C22.2036 7.76959 21.2025 8.53531 20.8796 9.58507C20.8493 9.58399 20.818 9.58075 20.7878 9.58075C19.9086 9.58075 19.1688 10.1575 18.9442 10.9416C18.6645 10.5625 18.2109 10.3141 17.6946 10.3141C16.8447 10.3141 16.1556 10.9826 16.1556 11.8088C15.3057 11.8088 14.6156 12.4773 14.6156 13.3035C14.6156 13.6826 14.7668 14.026 15.0065 14.2896C14.8499 14.5088 14.756 14.7745 14.756 15.0628C14.756 15.4916 14.9655 15.8696 15.2852 16.118C15.2106 16.253 15.1642 16.4064 15.1642 16.5694C15.1642 17.1008 15.6081 17.5317 16.1556 17.5317C16.7021 17.5317 17.146 17.1019 17.146 16.5694C17.146 16.4053 17.0996 16.253 17.025 16.118C17.3307 15.8804 17.5305 15.5251 17.5488 15.119C17.7983 15.3415 18.1277 15.4808 18.4938 15.4808C19.049 15.4808 19.5231 15.1654 19.7499 14.7108H35.4012C36.2026 14.7108 36.8517 14.0811 36.8517 13.3035C36.8495 12.527 36.2004 11.8963 35.3991 11.8963Z" fill="white"/>
<path fill-rule="evenodd" clip-rule="evenodd" d="M20.6887 9.31289C21.1044 8.24976 22.1594 7.49957 23.3906 7.49957C24.3709 7.49957 25.2381 7.97678 25.7608 8.7067C25.9346 8.66244 26.1172 8.63789 26.3066 8.63789C26.9999 8.63789 27.6195 8.95301 28.0207 9.44578C28.5433 8.94048 29.2623 8.62817 30.0552 8.62817C31.2492 8.62817 32.2786 9.33519 32.718 10.349C32.9657 10.2512 33.2364 10.1963 33.521 10.1963C34.4688 10.1963 35.2782 10.7957 35.5638 11.6339C36.4309 11.7145 37.1192 12.4252 37.1217 13.3027L37.1217 13.3035C37.1217 14.2379 36.344 14.9807 35.4012 14.9807H19.9069C19.6124 15.4428 19.0916 15.7508 18.4938 15.7508C18.2195 15.7508 17.9626 15.685 17.7361 15.5706C17.6564 15.8058 17.5232 16.0159 17.3514 16.189C17.392 16.3068 17.416 16.4343 17.416 16.5694C17.416 17.2585 16.8436 17.8017 16.1556 17.8017C15.4666 17.8017 14.8942 17.2574 14.8942 16.5694C14.8942 16.435 14.9181 16.3074 14.9588 16.1893C14.6704 15.9001 14.486 15.5056 14.486 15.0628C14.486 14.7898 14.5559 14.5342 14.6761 14.3104C14.4716 14.0273 14.3456 13.6816 14.3456 13.3035C14.3456 12.4051 15.0295 11.6748 15.904 11.5558C16.0301 10.6951 16.7899 10.0441 17.6946 10.0441C18.1356 10.0441 18.5384 10.199 18.8518 10.4556C19.2028 9.8004 19.8916 9.34768 20.6887 9.31289ZM23.3906 8.03957C22.3211 8.03957 21.4254 8.729 21.1376 9.66444L21.0768 9.86227L20.8699 9.85488C20.8378 9.85373 20.8251 9.85266 20.8161 9.85189C20.8077 9.85118 20.8024 9.85073 20.7878 9.85073C20.028 9.85073 19.3949 10.3487 19.2038 11.0159L19.0527 11.5433L18.7269 11.1018C18.4963 10.7893 18.1222 10.5841 17.6946 10.5841C16.9862 10.5841 16.4256 11.1391 16.4256 11.8088V12.0788H16.1556C15.447 12.0788 14.8856 12.6341 14.8856 13.3035C14.8856 13.6085 15.0069 13.8887 15.2062 14.1078L15.3529 14.2691L15.2262 14.4465C15.1001 14.6231 15.026 14.8345 15.026 15.0628C15.026 15.4 15.1902 15.7023 15.4508 15.9048L15.6331 16.0464L15.5215 16.2485C15.4658 16.3495 15.4342 16.4584 15.4342 16.5694C15.4342 16.9441 15.7496 17.2617 16.1556 17.2617C16.5607 17.2617 16.876 16.9452 16.876 16.5694C16.876 16.4574 16.8445 16.3497 16.7887 16.2485L16.6772 16.0464L16.8593 15.9048C17.1067 15.7125 17.2646 15.4288 17.2791 15.1068L17.3048 14.5395L17.7285 14.9175C17.9316 15.0986 18.198 15.2108 18.4938 15.2108C18.944 15.2108 19.326 14.9557 19.5083 14.5902L19.5828 14.4407H35.4012C36.0612 14.4407 36.5816 13.9244 36.5817 13.3037C36.5796 12.6833 36.0586 12.1663 35.3991 12.1663H35.1431L35.0949 11.9567C34.9356 11.2637 34.2957 10.7363 33.521 10.7363C33.2213 10.7363 32.9422 10.8169 32.7013 10.9546L32.4076 11.1224L32.309 10.7988C32.0232 9.8605 31.1255 9.16817 30.0552 9.16817C29.3 9.16817 28.6303 9.51392 28.2007 10.048L27.9506 10.3589L27.755 10.0112C27.4771 9.51724 26.9345 9.17789 26.3066 9.17789C26.1074 9.17789 25.9166 9.21397 25.7372 9.27781L25.5302 9.35153L25.416 9.16373C25.0083 8.49322 24.2557 8.03957 23.3906 8.03957Z" fill="#333333"/>
</svg>
