<svg width="20" height="20" viewBox="0 0 20 20" fill="none" xmlns="http://www.w3.org/2000/svg">
<path d="M0.692403 8.22668L0.69246 8.22663L9.4424 0.694043C9.44242 0.694026 9.44244 0.69401 9.44246 0.693994C9.74308 0.435336 10.2569 0.435336 10.5575 0.693994C10.5576 0.69401 10.5576 0.694026 10.5576 0.694043L19.3075 8.22663L19.3076 8.22668C19.4422 8.34255 19.5 8.48213 19.5 8.6085V18.9239C19.5 19.1744 19.2371 19.5 18.75 19.5H13V12.4674V11.9674H12.5H7.5H7V12.4674V19.5H1.25C0.76287 19.5 0.5 19.1744 0.5 18.9239V8.6085C0.5 8.48213 0.557769 8.34255 0.692403 8.22668Z" stroke="#959595"/>
</svg>
