<svg width="54" height="54" viewBox="0 0 54 54" fill="none" xmlns="http://www.w3.org/2000/svg">
<path d="M27 54C41.9117 54 54 41.9117 54 27C54 12.0883 41.9117 0 27 0C12.0883 0 0 12.0883 0 27C0 41.9117 12.0883 54 27 54Z" fill="#FFD74A"/>
<path d="M29.9354 18.4346C29.9354 18.7662 29.6665 19.0351 29.3349 19.0351C29.0033 19.0351 28.7344 18.7662 28.7344 18.4346C28.7344 18.1031 29.0033 17.8342 29.3349 17.8342C29.6665 17.8342 29.9354 18.1031 29.9354 18.4346Z" fill="black"/>
<path d="M36.4468 19.7553C36.4468 20.2208 36.0699 20.5988 35.6033 20.5988C35.1367 20.5988 34.7598 20.2208 34.7598 19.7553C34.7598 19.2898 35.1367 18.9118 35.6033 18.9118C36.0699 18.9118 36.4468 19.2898 36.4468 19.7553Z" fill="#262220"/>
<path d="M21.1788 21.6433C21.1508 21.6487 21.127 21.6541 21.1086 21.6574L21.1788 21.6433Z" fill="#A6422D"/>
<path d="M26.3573 20.6074C23.8269 21.128 21.6777 21.5459 21.1798 21.6431L26.3573 20.6074Z" fill="#A6422D"/>
<path d="M16.6698 22.5071C16.6698 22.9726 16.2918 23.3506 15.8263 23.3506C15.3608 23.3506 14.9828 22.9726 14.9828 22.5071C14.9828 22.0416 15.3598 21.6636 15.8263 21.6636C16.2918 21.6647 16.6698 22.0416 16.6698 22.5071Z" fill="#262220"/>
<path d="M31.4917 25.5657C31.4917 26.0712 31.0813 26.4816 30.5759 26.4816C30.0704 26.4816 29.66 26.0712 29.66 25.5657C29.66 25.0603 30.0704 24.6499 30.5759 24.6499C31.0824 24.6499 31.4917 25.0592 31.4917 25.5657Z" fill="#262220"/>
<path d="M29.9138 18.44C29.9138 18.7715 29.6449 19.0404 29.3134 19.0404C28.9818 19.0404 28.7129 18.7715 28.7129 18.44C28.7129 18.1084 28.9818 17.8395 29.3134 17.8395C29.6438 17.8395 29.9138 18.1084 29.9138 18.44Z" fill="black"/>
<path d="M21.1572 21.6486C21.1291 21.654 21.1054 21.6594 21.087 21.6627L21.1572 21.6486Z" fill="#A6422D"/>
<path d="M27 54C41.9117 54 54 41.9117 54 27C54 12.0883 41.9117 0 27 0C12.0883 0 0 12.0883 0 27C0 41.9117 12.0883 54 27 54Z" fill="#FFD74A"/>
<path d="M29.9354 18.4345C29.9354 18.7661 29.6665 19.035 29.335 19.035C29.0034 19.035 28.7345 18.7661 28.7345 18.4345C28.7345 18.103 29.0034 17.834 29.335 17.834C29.6665 17.834 29.9354 18.103 29.9354 18.4345Z" fill="black"/>
<path d="M36.4468 19.7553C36.4468 20.2208 36.0698 20.5988 35.6033 20.5988C35.1367 20.5988 34.7598 20.2208 34.7598 19.7553C34.7598 19.2899 35.1367 18.9119 35.6033 18.9119C36.0698 18.9119 36.4468 19.2899 36.4468 19.7553Z" fill="#262220"/>
<path d="M21.1788 21.6432C21.1507 21.6486 21.127 21.654 21.1086 21.6572L21.1788 21.6432Z" fill="#A6422D"/>
<path d="M26.3574 20.6075C23.827 21.128 21.6778 21.546 21.1799 21.6432L26.3574 20.6075Z" fill="#A6422D"/>
<path d="M16.6698 22.5072C16.6698 22.9727 16.2918 23.3507 15.8263 23.3507C15.3608 23.3507 14.9828 22.9727 14.9828 22.5072C14.9828 22.0418 15.3598 21.6638 15.8263 21.6638C16.2918 21.6648 16.6698 22.0418 16.6698 22.5072Z" fill="#262220"/>
<path d="M31.4917 25.5657C31.4917 26.0712 31.0813 26.4816 30.5759 26.4816C30.0704 26.4816 29.66 26.0712 29.66 25.5657C29.66 25.0603 30.0704 24.6499 30.5759 24.6499C31.0824 24.6499 31.4917 25.0592 31.4917 25.5657Z" fill="#262220"/>
<path d="M29.9138 18.44C29.9138 18.7715 29.6449 19.0404 29.3134 19.0404C28.9818 19.0404 28.7129 18.7715 28.7129 18.44C28.7129 18.1084 28.9818 17.8395 29.3134 17.8395C29.6438 17.8395 29.9138 18.1084 29.9138 18.44Z" fill="black"/>
<path d="M21.1572 21.6486C21.1291 21.654 21.1054 21.6594 21.087 21.6626L21.1572 21.6486Z" fill="#A6422D"/>
<path d="M45.5587 27.2052C45.5587 37.3885 37.3043 45.644 27.121 45.644C16.9376 45.644 8.68213 37.3896 8.68213 27.2052C8.68213 17.0219 16.9376 8.76636 27.121 8.76636C37.3043 8.76636 45.5587 17.0219 45.5587 27.2052Z" fill="#DDDDDD"/>
<path d="M27.121 45.914C16.8048 45.914 8.41212 37.5213 8.41212 27.2052C8.41212 16.889 16.8048 8.49634 27.121 8.49634C37.4361 8.49634 45.8287 16.889 45.8287 27.2052C45.8287 37.5213 37.4361 45.914 27.121 45.914ZM27.121 9.03634C17.1029 9.03634 8.95212 17.1871 8.95212 27.2052C8.95212 37.2233 17.1029 45.374 27.121 45.374C37.1391 45.374 45.2887 37.2233 45.2887 27.2052C45.2887 17.1871 37.1391 9.03634 27.121 9.03634Z" fill="#333333"/>
<path d="M41.7453 27.2052C41.7453 35.2825 35.1972 41.8306 27.121 41.8306C19.0436 41.8306 12.4956 35.2836 12.4956 27.2052C12.4956 19.129 19.0436 12.5798 27.121 12.5798C35.1972 12.5798 41.7453 19.1279 41.7453 27.2052Z" fill="white"/>
<path d="M27.121 42.0995C18.9076 42.0995 12.2256 35.4175 12.2256 27.2041C12.2256 18.9907 18.9076 12.3088 27.121 12.3088C35.3344 12.3088 42.0153 18.9907 42.0153 27.2041C42.0153 35.4175 35.3333 42.0995 27.121 42.0995ZM27.121 12.8499C19.2056 12.8499 12.7656 19.2899 12.7656 27.2052C12.7656 35.1205 19.2056 41.5606 27.121 41.5606C35.0363 41.5606 41.4753 35.1216 41.4753 27.2052C41.4753 19.2888 35.0363 12.8499 27.121 12.8499Z" fill="#333333"/>
<path d="M10.8238 26.0583C10.8238 33.5891 16.8512 39.6933 24.286 39.6933V35.4607C19.1581 35.4607 15.0023 31.2509 15.0023 26.0572C15.0023 20.8635 19.1581 16.6547 24.286 16.6547V12.4222C16.8502 12.4233 10.8238 18.5274 10.8238 26.0583Z" fill="#B29425"/>
<path d="M13.0108 26.0582C13.0108 32.3665 18.0587 37.4792 24.286 37.4792V35.4618C19.1581 35.4618 15.0023 31.252 15.0023 26.0582C15.0023 20.8645 19.1581 16.6557 24.286 16.6557V14.6383C18.0587 14.6372 13.0108 19.7499 13.0108 26.0582Z" fill="#E7D782"/>
<path d="M15.0023 26.0583C15.0023 31.252 19.1581 35.4619 24.286 35.4619V31.3244C21.4142 31.3244 19.0868 28.9667 19.0868 26.0583C19.0868 23.1498 21.4142 20.7922 24.286 20.7922V16.6547C19.1581 16.6547 15.0023 20.8646 15.0023 26.0583Z" fill="#C6A73A"/>
<path d="M20.5049 37.611C20.8377 37.611 21.1075 37.3412 21.1075 37.0083C21.1075 36.6755 20.8377 36.4057 20.5049 36.4057C20.1721 36.4057 19.9023 36.6755 19.9023 37.0083C19.9023 37.3412 20.1721 37.611 20.5049 37.611Z" fill="#262220"/>
<path d="M19.251 30.9344C19.251 31.2671 18.981 31.5371 18.6484 31.5371C18.3157 31.5371 18.0457 31.2671 18.0457 30.9344C18.0457 30.6018 18.3157 30.3318 18.6484 30.3318C18.981 30.3318 19.251 30.6007 19.251 30.9344Z" fill="#262220"/>
<path d="M37.8324 31.5371C37.8324 31.8697 37.5624 32.1397 37.2297 32.1397C36.8971 32.1397 36.6271 31.8697 36.6271 31.5371C36.6271 31.2045 36.8971 30.9344 37.2297 30.9344C37.5635 30.9344 37.8324 31.2045 37.8324 31.5371Z" fill="#262220"/>
<path d="M24.2644 12.4287V14.6427V16.6601V20.7976C21.3926 20.7976 19.0652 23.1552 19.0652 26.0637C19.0652 28.9721 21.3926 31.3298 24.2644 31.3298V35.4672V37.4847V39.6987C16.8286 39.6987 10.8022 33.5934 10.8022 26.0637C10.8022 18.5339 16.8286 12.4287 24.2644 12.4287ZM24.8044 11.8887H24.2644C20.5232 11.8887 17.0057 13.364 14.3608 16.0434C11.718 18.7208 10.2622 22.2794 10.2622 26.0637C10.2622 29.8491 11.718 33.4077 14.3608 36.085C17.0057 38.7645 20.5232 40.2398 24.2644 40.2398H24.8044V39.6998V37.4858V35.4672V31.3298V30.7898H24.2644C21.695 30.7898 19.6052 28.6697 19.6052 26.0637C19.6052 23.4576 21.695 21.3376 24.2644 21.3376H24.8044V20.7976V16.6601V14.6427V12.4287V11.8887Z" fill="#333333"/>
<path d="M40.8942 30.4096C42.1125 23.9393 37.9199 17.7185 31.5306 16.5154L30.8459 20.1528C35.2523 20.9823 38.1424 25.2709 37.3032 29.7346C36.463 34.1971 32.211 37.1434 27.8046 36.3129L27.1199 39.9492C33.5103 41.1523 39.6771 36.8809 40.8942 30.4096Z" fill="#B29425"/>
<path d="M39.015 30.0564C40.0356 24.6359 36.5245 19.426 31.1731 18.4183L30.847 20.1528C35.2534 20.9823 38.1434 25.2709 37.3043 29.7346C36.464 34.1971 32.2121 37.1434 27.8057 36.3129L27.4795 38.0463C32.8299 39.0539 37.9944 35.4769 39.015 30.0564Z" fill="#E7D782"/>
<path d="M37.3032 29.7346C38.1435 25.272 35.2523 20.9823 30.8459 20.1528L30.1763 23.7082C32.6441 24.1726 34.263 26.5745 33.7921 29.0736C33.3213 31.5727 30.9409 33.223 28.4731 32.7575L27.8035 36.3129C32.211 37.1423 36.4641 34.1971 37.3032 29.7346Z" fill="#C6A73A"/>
<path d="M29.2745 40.4287C28.5347 40.4287 27.7906 40.3596 27.0475 40.2203L26.7818 40.1706L27.1296 38.3227L28.2355 32.4486L28.5012 32.4983C30.8178 32.9346 33.0631 31.3783 33.5049 29.0293C33.9466 26.6803 32.4216 24.4156 30.1039 23.9792L29.8382 23.9296L31.2919 16.2065L31.5576 16.2562C38.083 17.4841 42.3803 23.8583 41.1361 30.4657C40.5335 33.6658 38.7375 36.4424 36.0763 38.2849C34.0416 39.6954 31.685 40.4287 29.2745 40.4287ZM27.4147 39.7364C30.3469 40.2181 33.304 39.5496 35.7718 37.841C38.3141 36.0796 40.0324 33.4249 40.608 30.3653C41.7798 24.1412 37.8087 18.1332 31.725 16.8394L30.47 23.5051C32.9303 24.1132 34.5179 26.5777 34.0373 29.1287C33.5567 31.6796 31.1807 33.399 28.6697 33.0707L27.7484 37.9609L27.4147 39.7364Z" fill="#333333"/>
<path d="M35.1842 18.1332C31.1872 13.5832 24.4415 12.9741 20.115 16.7724L22.3614 19.3299C25.3444 16.7098 29.997 17.1299 32.7532 20.2684C35.5093 23.4069 35.3257 28.0746 32.3428 30.6947L34.5892 33.2522C38.9146 29.4527 39.1802 22.6843 35.1842 18.1332Z" fill="#E5BD3F"/>
<path d="M33.912 19.251C30.564 15.4386 24.9134 14.9299 21.29 18.1116L22.3614 19.3309C25.3444 16.7109 29.997 17.131 32.7532 20.2695C35.5093 23.408 35.3257 28.0757 32.3428 30.6958L33.413 31.9151C37.0365 28.7324 37.26 23.0634 33.912 19.251Z" fill="#FBF49A"/>
<path d="M26.7894 14.2852C29.8372 14.2852 32.9292 15.5974 35.1626 18.1397C39.1597 22.6897 38.893 29.4592 34.5665 33.2575L33.3914 31.9194L32.3212 30.7001C35.3041 28.08 35.4888 23.4123 32.7316 20.2738C31.1915 18.5199 29.0596 17.6159 26.9579 17.6159C25.2979 17.6159 23.6563 18.1797 22.3409 19.3363L20.0945 16.7789C22.0018 15.1027 24.3821 14.2852 26.7894 14.2852ZM26.7894 13.7452C24.1715 13.7452 21.6681 14.6783 19.737 16.3739L19.3309 16.7303L19.6873 17.1364L21.9337 19.6938L22.2901 20.0999L22.6962 19.7435C23.8604 18.7207 25.3735 18.157 26.9568 18.157C28.9872 18.157 30.9442 19.0588 32.3255 20.6313C33.5664 22.045 34.2112 23.8313 34.1388 25.6608C34.0675 27.4806 33.2953 29.1265 31.9648 30.2951L31.5587 30.6515L31.9151 31.0576L32.9854 32.2769L34.1604 33.615L34.5168 34.0211L34.9229 33.6647C37.1272 31.7283 38.407 29.0077 38.5247 26.0032C38.6424 23.0083 37.5926 20.0902 35.5676 17.7844C33.3137 15.2172 30.1136 13.7452 26.7894 13.7452Z" fill="#333333"/>
<path d="M26.1295 18.6387L35.7826 7.96613C36.2621 8.40029 36.2945 9.14225 35.8528 9.61529L26.8423 19.2835L26.1295 18.6387Z" fill="#E5C680"/>
<path d="M35.7826 7.96611L26.1295 18.6387L25.4156 17.9928L34.1345 8.06115C34.5611 7.57515 35.303 7.53195 35.7826 7.96611Z" fill="#D2A758"/>
<path d="M23.0288 13.9708C22.9532 14.0507 20.0869 17.078 21.3667 22.3473C21.3667 22.3473 15.8479 22.3819 18.833 30.011C17.7347 29.592 16.7454 29.0185 16.1536 28.4839C14.9537 27.3985 14.6297 25.6413 15.3662 24.1974L17.4182 20.1743C17.644 14.8046 22.9262 13.9849 23.0288 13.9708Z" fill="#8C3923"/>
<path d="M29.4699 26.8272C27.5799 28.2118 25.2536 27.2592 25.2536 27.2592L26.6134 23.8842L26.6998 21.1173C28.4126 20.7134 30.294 20.2576 31.9507 19.831C32.2002 23.6952 29.4699 26.8272 29.4699 26.8272Z" fill="#792D17"/>
<path d="M31.9496 19.831C30.2929 20.2565 28.4116 20.7133 26.6987 21.1173C26.3639 21.1961 26.0366 21.2739 25.7191 21.3484C25.3325 21.438 24.9588 21.5255 24.6056 21.6065C23.9425 21.7609 23.3474 21.897 22.8528 22.0104C21.9348 22.2199 21.3656 22.3463 21.3656 22.3463C20.0869 17.0781 22.9522 14.0498 23.0278 13.9698L23.0288 13.9688C23.314 14.2161 23.6002 14.4224 23.8864 14.5919C24.4339 14.9192 24.9761 15.1146 25.4956 15.2172C25.8638 15.2896 26.2224 15.3155 26.5594 15.308C26.9017 15.3015 27.2246 15.2604 27.5206 15.2C27.5497 15.1935 27.58 15.1881 27.6091 15.1805C29.0099 14.8716 30.4517 15.5445 31.1083 16.82C31.6386 17.8449 31.8881 18.8611 31.9496 19.831Z" fill="#984731"/>
<path d="M25.4966 15.2173L24.6067 21.6065C23.9436 21.761 23.3485 21.8971 22.8539 22.0105L23.8874 14.593C24.435 14.9203 24.9771 15.1147 25.4966 15.2173Z" fill="#B05F4D"/>
<path d="M27.5227 15.201L26.6998 21.1173C26.365 21.1961 26.0377 21.2739 25.7202 21.3484L26.5615 15.309C26.9028 15.3026 27.2257 15.2604 27.5227 15.201Z" fill="#B05F4D"/>
<path d="M26.6987 21.1172L26.6123 23.8842L25.2526 27.2592C25.2299 27.3013 25.2083 27.3435 25.1867 27.3845C24.9707 27.8046 24.53 28.8587 24.4782 29.0121C23.7622 31.0813 21.0697 30.8664 18.832 30.0121V30.0111C18.6516 29.5488 18.5026 29.1157 18.3805 28.7075C18.1591 27.9699 17.9831 27.1318 17.9528 26.3617C17.8362 23.6812 19.575 22.3582 21.3656 22.3474C21.3656 22.3474 24.3389 21.6756 26.635 21.1324L26.6987 21.1172Z" fill="#A6422D"/>
<path d="M26.0809 25.204L25.7062 26.1339L17.9528 26.3617C17.9377 26.028 17.9507 25.7224 17.9852 25.4427L26.0809 25.204Z" fill="#B05F4D"/>
<path d="M25.1878 27.3845C24.9718 27.8046 24.8 28.1848 24.6629 28.5218L18.3816 28.7064C18.2628 28.3112 18.1721 27.9407 18.1051 27.593L25.1878 27.3845Z" fill="#B05F4D"/>
<path d="M21.7609 30.9172C20.8656 30.9172 19.8234 30.7044 18.725 30.2843L18.5512 30.2152C17.5165 29.8015 16.5575 29.2432 15.9613 28.7032C14.6729 27.5378 14.324 25.6424 15.1146 24.0937L17.1396 20.1226C17.28 17.266 18.8309 15.6827 20.1118 14.8576C21.3354 14.0692 22.5342 13.8035 22.8809 13.7398L22.9954 13.6145L23.1952 13.7851C23.4598 14.0141 23.7352 14.215 24.0138 14.3802C24.4955 14.6686 25.0085 14.8684 25.5366 14.972C25.866 15.0368 26.2062 15.066 26.5421 15.0584C26.8391 15.053 27.1458 15.0185 27.4568 14.9558C27.4666 14.9537 27.4838 14.9494 27.5011 14.9461L27.5389 14.9386C27.6156 14.9213 27.6944 14.9072 27.7808 14.8954L33.9195 7.90236C34.1744 7.61292 34.5265 7.4412 34.911 7.41852C35.2944 7.39692 35.6659 7.52652 35.951 7.78572C36.2372 8.04492 36.4035 8.39916 36.4197 8.78472C36.4359 9.17028 36.2999 9.53748 36.0374 9.81936L30.5478 15.7108C30.8739 15.9948 31.1396 16.3318 31.3384 16.7173C31.8459 17.7001 32.1375 18.7488 32.2077 19.8342C32.4615 23.7643 29.7756 26.8942 29.6611 27.0248L29.6417 27.0475L29.6179 27.0648C27.9655 28.2755 26.0377 27.823 25.3746 27.6124L25.3735 27.6145C25.1489 28.0725 24.7676 28.9915 24.7234 29.1201C24.4868 29.8037 24.0419 30.3016 23.4025 30.5996C22.9478 30.8124 22.3906 30.9172 21.7609 30.9172ZM19.0793 29.8393C20.7479 30.4485 22.234 30.5489 23.1746 30.1104C23.6768 29.876 24.0268 29.484 24.2136 28.944C24.2687 28.7842 24.664 27.8392 24.8918 27.3737L24.9674 27.2257C24.9793 27.202 24.9923 27.1771 25.0052 27.1534L25.1197 26.9384L25.3454 27.0313C25.367 27.04 27.5378 27.8986 29.2745 26.6501C29.511 26.366 31.8989 23.409 31.6699 19.8709C31.6051 18.86 31.3329 17.8826 30.8599 16.9668C30.6547 16.5672 30.3631 16.2292 29.9948 15.9602L29.7486 15.781L35.6454 9.45324C35.8085 9.27828 35.8938 9.04932 35.883 8.80956C35.8733 8.5698 35.7696 8.34948 35.5914 8.18856C35.4132 8.02764 35.1831 7.94556 34.9445 7.96068C34.7047 7.97472 34.4855 8.08164 34.3278 8.262L28.053 15.4094L27.9493 15.4213C27.837 15.4343 27.7441 15.4494 27.6588 15.4688L27.5735 15.4872C27.2236 15.5574 26.8834 15.5963 26.5561 15.6017C26.1803 15.6103 25.8034 15.5779 25.4351 15.5056C24.8443 15.3889 24.2741 15.1675 23.7395 14.8468C23.4695 14.6858 23.2016 14.4958 22.9446 14.2808C22.5958 14.3489 21.5039 14.607 20.4066 15.3133C18.6862 16.4225 17.7682 18.0684 17.6785 20.2068L17.6764 20.2662L15.5974 24.3421C14.918 25.6738 15.2172 27.3035 16.3253 28.3057C16.9085 28.8328 17.8783 29.3846 18.9194 29.781L19.0793 29.8393Z" fill="#333333"/>
<path d="M33.2024 30.0132L47.5924 30.172C47.5848 30.8189 47.0502 31.3341 46.4044 31.3179L33.1927 30.9755L33.2024 30.0132Z" fill="#E5C680"/>
<path d="M47.5924 30.172L33.2024 30.0132L33.2132 29.0509L46.4292 29.0002C47.0761 28.998 47.5999 29.5251 47.5924 30.172Z" fill="#D2A758"/>
<path d="M34.6453 24.5981C34.5352 24.5938 30.3685 24.4534 27.27 28.903C27.27 28.903 23.5872 24.7925 19.8504 32.0836C19.4357 30.9831 19.211 29.862 19.2197 29.065C19.237 27.4471 20.3386 26.0399 21.9078 25.6349L26.2807 24.5063C30.4528 21.1173 34.5654 24.5311 34.6453 24.5981Z" fill="#8C3923"/>
<path d="M29.2831 37.9415C26.9935 37.4426 26.1652 35.0698 26.1652 35.0698L29.5942 33.8516L31.7239 32.0825C33.1614 33.0977 34.749 34.2047 36.166 35.1638C33.4379 37.9113 29.2831 37.9415 29.2831 37.9415Z" fill="#792D17"/>
<path d="M36.167 35.1627C34.7501 34.2036 33.1625 33.0977 31.725 32.0814C31.4442 31.8827 31.1699 31.6894 30.9031 31.5004C30.5802 31.2704 30.267 31.049 29.9722 30.8384C29.4181 30.4442 28.9202 30.0878 28.5088 29.7929C27.7441 29.2432 27.2722 28.9019 27.2722 28.9019C30.3707 24.4534 34.5373 24.5927 34.6475 24.597H34.6496C34.654 24.975 34.6885 25.325 34.7501 25.6522C34.8678 26.2797 35.0806 26.8143 35.3484 27.2711C35.5385 27.5951 35.7556 27.8802 35.9856 28.1286C36.2167 28.3814 36.4619 28.5952 36.7038 28.7777C36.7286 28.795 36.7524 28.8134 36.7772 28.8317C37.9372 29.6763 38.3875 31.2023 37.868 32.5394C37.4479 33.615 36.8518 34.4736 36.167 35.1627Z" fill="#984731"/>
<path d="M35.3462 27.2733L29.9711 30.8394C29.417 30.4452 28.9192 30.0888 28.5077 29.794L34.7479 25.6533C34.8656 26.2807 35.0784 26.8164 35.3462 27.2733Z" fill="#B05F4D"/>
<path d="M36.7006 28.7788L31.7239 32.0825C31.4431 31.8838 31.1688 31.6905 30.902 31.5015L35.9824 28.1297C36.2146 28.3824 36.4597 28.5963 36.7006 28.7788Z" fill="#B05F4D"/>
<path d="M31.7239 32.0825L29.5942 33.8515L26.1652 35.0698C26.1187 35.0806 26.0723 35.0935 26.028 35.1043C25.5701 35.221 24.489 35.5893 24.34 35.6519C22.315 36.4867 20.6917 34.3278 19.8504 32.0857L19.8515 32.0847C20.0783 31.6429 20.304 31.2444 20.5297 30.8826C20.9358 30.2281 21.4456 29.5402 22.0028 29.0077C23.9328 27.1437 26.0755 27.5703 27.2711 28.9041C27.2711 28.9041 29.7443 30.6861 31.6732 32.0458L31.7239 32.0825Z" fill="#A6422D"/>
<path d="M28.2539 34.3278L27.3089 34.6626L22.0018 29.0067C22.2426 28.7745 22.4791 28.5812 22.7124 28.4213L28.2539 34.3278Z" fill="#B05F4D"/>
<path d="M26.028 35.1032C25.5701 35.2199 25.1716 35.343 24.8281 35.464L20.5286 30.8815C20.7457 30.5316 20.9639 30.2173 21.1799 29.9365L26.028 35.1032Z" fill="#B05F4D"/>
<path d="M29.2324 38.2169L29.2032 38.2104C27.202 37.7741 26.2624 36.031 25.9816 35.3948H25.9805C25.4891 35.5309 24.5462 35.8528 24.421 35.9057C23.7524 36.1811 23.085 36.1789 22.437 35.897C21.3214 35.4121 20.2781 34.0589 19.575 32.1851L19.5091 32.0101L19.5113 32.008C19.1354 30.9593 18.9194 29.8717 18.9281 29.0671C18.9475 27.3294 20.1355 25.8131 21.8192 25.3789L26.136 24.2654C28.3684 22.477 30.5813 22.5904 32.049 23.0029C33.4465 23.396 34.438 24.1153 34.7188 24.3346H34.8905L34.8948 24.6013C34.898 24.9512 34.9304 25.2904 34.9909 25.609C35.0946 26.1608 35.2847 26.6771 35.5568 27.1426C35.7275 27.4331 35.9294 27.7052 36.1584 27.9526C36.3593 28.1718 36.5882 28.3781 36.841 28.5692C36.8485 28.5746 36.8626 28.5844 36.8755 28.5952L36.9068 28.6189C36.9716 28.6654 37.0343 28.7161 37.1012 28.7723L46.4054 28.7366C46.4076 28.7366 46.4098 28.7366 46.4108 28.7366C46.7942 28.7366 47.1539 28.8868 47.4239 29.1589C47.696 29.4322 47.8429 29.7961 47.8386 30.1817C47.8343 30.5672 47.6788 30.9269 47.4012 31.1947C47.1236 31.4626 46.7586 31.603 46.373 31.5943L38.3227 31.3859C38.327 31.819 38.2493 32.2412 38.0927 32.6441C37.692 33.6755 37.1012 34.5892 36.3344 35.3603C33.5588 38.1542 29.4354 38.2169 29.2615 38.218L29.2324 38.2169ZM26.3174 34.7555L26.3974 34.9855C26.4049 35.0071 27.1998 37.2017 29.2864 37.6758C29.6557 37.665 33.453 37.4944 35.9521 34.978C36.666 34.2598 37.2168 33.4087 37.5905 32.4475C37.7536 32.0296 37.814 31.5868 37.7708 31.1321L37.7417 30.8286L46.3882 31.0522C46.629 31.0576 46.8547 30.9701 47.0275 30.8038C47.2003 30.6374 47.2964 30.4139 47.2997 30.173C47.3018 29.9333 47.2111 29.7076 47.0416 29.5369C46.8731 29.3674 46.6495 29.2745 46.4108 29.2745C46.4098 29.2745 46.4087 29.2745 46.4076 29.2745L36.8971 29.3112L36.8194 29.2421C36.7351 29.1665 36.6628 29.1071 36.5915 29.0552C36.5796 29.0466 36.5666 29.0369 36.5526 29.0261L36.5213 29.0034C36.2362 28.7885 35.9824 28.5584 35.761 28.3176C35.5061 28.0422 35.2804 27.7387 35.0903 27.4147C34.7868 26.8952 34.574 26.3218 34.4596 25.7083C34.4012 25.3984 34.3667 25.0733 34.357 24.7374C34.074 24.5214 33.1582 23.8745 31.9021 23.5213C29.9322 22.9673 28.0908 23.3712 26.4298 24.7201L26.3844 24.7568L21.9542 25.9006C20.507 26.2732 19.4843 27.5778 19.4681 29.0714C19.4594 29.8577 19.6884 30.9496 20.0815 31.9918L20.1409 32.1505C20.79 33.8051 21.6994 34.9844 22.6519 35.3992C23.1606 35.6206 23.6855 35.6216 24.2136 35.4046C24.3702 35.3398 25.34 35.0093 25.839 34.8721L26.0021 34.83C26.028 34.8235 26.0539 34.817 26.0798 34.8106L26.3174 34.7555Z" fill="#333333"/>
</svg>
