<svg width="24" height="24" viewBox="0 0 24 24" fill="none" xmlns="http://www.w3.org/2000/svg">
<path fill-rule="evenodd" clip-rule="evenodd" d="M21.561 8.89095C21.9182 8.70113 21.9364 8.17992 21.5861 7.97767L15.7746 4.62238L15.7745 4.62241L11.2656 2.01915C10.9153 1.81691 10.473 2.09325 10.4872 2.49749C10.5398 3.9973 10.5127 6.88187 9.64865 8.37842C8.93461 9.61518 8.0491 9.96857 6.24776 10.6875C6.05748 10.7634 5.85697 10.8434 5.64537 10.929C3.9058 11.6325 2.85579 12.734 2.38504 13.3272C2.21161 13.5457 2.28796 13.8525 2.52956 13.9919L8.40613 17.3848L5.77449 21.9429L8.09339 22.0663L10.1987 18.4197L15.5853 21.5297C15.8269 21.6691 16.1308 21.5819 16.2333 21.3224C16.5116 20.6182 16.9406 19.1581 16.68 17.2998C16.6483 17.0738 16.6174 16.8601 16.588 16.6574C16.3099 14.7379 16.1732 13.7943 16.8872 12.5576C17.7513 11.061 20.2358 9.59524 21.561 8.89095Z" fill="#202020"/>
</svg>
