<svg width="24" height="24" viewBox="0 0 24 24" fill="none" xmlns="http://www.w3.org/2000/svg">
<mask id="path-1-inside-1" fill="white">
<path fill-rule="evenodd" clip-rule="evenodd" d="M10.4873 2.4979C10.473 2.09362 10.9153 1.81719 11.2657 2.01946L17.0797 5.37621L17.0797 5.37626L21.5908 7.98074C21.9411 8.18301 21.9229 8.7043 21.5657 8.89408C20.2401 9.59822 17.7552 11.0637 16.8912 12.5602C16.1771 13.797 16.314 14.7407 16.5925 16.6604L16.5926 16.6607C16.622 16.8634 16.653 17.077 16.6847 17.3029C16.9457 19.1614 16.5168 20.6216 16.2385 21.3259C16.136 21.5854 15.8322 21.6726 15.5906 21.5332L9.52162 18.0292L7.4164 21.6756L5.96633 22.0538L8.59786 17.4959L8.40831 17.3865L8.40834 17.3864L2.52903 13.992C2.28743 13.8525 2.21109 13.5457 2.38453 13.3272C2.85532 12.7341 3.90546 11.6326 5.64545 10.9294C5.8571 10.8438 6.05765 10.7638 6.24798 10.6879C8.04975 9.96926 8.93547 9.61598 9.64952 8.37922C10.5135 6.88269 10.5402 3.99792 10.4873 2.4979Z"/>
</mask>
<path d="M10.4873 2.4979L11.4866 2.46262L11.4866 2.46262L10.4873 2.4979ZM17.0797 5.37621L17.9458 5.87621L18.4458 5.01019L17.5797 4.51019L17.0797 5.37621ZM17.0797 5.37626L16.2137 4.87626L15.7137 5.74229L16.5797 6.24229L17.0797 5.37626ZM21.5657 8.89408L22.0348 9.77721L22.0348 9.77721L21.5657 8.89408ZM16.5925 16.6604L17.5827 16.5208L17.5822 16.5168L16.5925 16.6604ZM16.5926 16.6607L15.6024 16.8003L15.6029 16.8043L16.5926 16.6607ZM16.6847 17.3029L15.6944 17.442L15.6944 17.442L16.6847 17.3029ZM16.2385 21.3259L17.1686 21.6934L17.1686 21.6934L16.2385 21.3259ZM9.52162 18.0292L10.0216 17.1632L9.15559 16.6632L8.65559 17.5292L9.52162 18.0292ZM7.4164 21.6756L7.66882 22.6432L8.07338 22.5376L8.28243 22.1756L7.4164 21.6756ZM5.96633 22.0538L5.1003 21.5538L3.90441 23.6252L6.21874 23.0215L5.96633 22.0538ZM8.59786 17.4959L9.46388 17.9959L9.96388 17.1299L9.09786 16.6299L8.59786 17.4959ZM8.40831 17.3865L7.54229 16.8865L7.04229 17.7525L7.90831 18.2525L8.40831 17.3865ZM8.40834 17.3864L9.27437 17.8864L9.77437 17.0204L8.90834 16.5204L8.40834 17.3864ZM2.52903 13.992L2.02903 14.858L2.52903 13.992ZM2.38453 13.3272L1.60129 12.7055L1.60129 12.7055L2.38453 13.3272ZM5.64545 10.9294L5.27073 10.0022L5.27073 10.0022L5.64545 10.9294ZM6.24798 10.6879L5.8775 9.75907L6.24798 10.6879ZM11.7657 1.15344C10.7052 0.54116 9.44711 1.3785 9.48788 2.53319L11.4866 2.46262C11.4934 2.65414 11.3877 2.80632 11.2657 2.88175C11.1413 2.95866 10.9444 2.98868 10.7657 2.88549L11.7657 1.15344ZM17.5797 4.51019L11.7657 1.15344L10.7657 2.88549L16.5797 6.24224L17.5797 4.51019ZM17.9457 5.87626L17.9458 5.87621L16.2137 4.87621L16.2137 4.87626L17.9457 5.87626ZM22.0908 7.11471L17.5797 4.51024L16.5797 6.24229L21.0908 8.84677L22.0908 7.11471ZM22.0348 9.77721C23.0552 9.23517 23.1513 7.72699 22.0908 7.11471L21.0908 8.84677C20.9121 8.74357 20.8396 8.55806 20.844 8.41189C20.8484 8.26852 20.9273 8.10086 21.0965 8.01095L22.0348 9.77721ZM17.7572 13.0602C18.0774 12.5056 18.7665 11.8674 19.6379 11.2428C20.4825 10.6374 21.3923 10.1185 22.0348 9.77721L21.0965 8.01095C20.4135 8.3738 19.418 8.93974 18.4728 9.61724C17.5543 10.2755 16.5689 11.1184 16.0251 12.0602L17.7572 13.0602ZM17.5822 16.5168C17.2968 14.5501 17.241 13.9542 17.7572 13.0602L16.0251 12.0602C15.1132 13.6398 15.3312 14.9313 15.6029 16.804L17.5822 16.5168ZM17.5828 16.521L17.5827 16.5208L15.6023 16.8L15.6024 16.8003L17.5828 16.521ZM17.675 17.1639C17.6429 16.9353 17.6116 16.7196 17.5822 16.5171L15.6029 16.8043C15.6324 17.0072 15.6631 17.2186 15.6944 17.442L17.675 17.1639ZM17.1686 21.6934C17.4886 20.8833 17.9671 19.2439 17.675 17.1639L15.6944 17.442C15.9243 19.079 15.545 20.36 15.3085 20.9585L17.1686 21.6934ZM15.0906 22.3992C15.7976 22.8074 16.8155 22.587 17.1686 21.6934L15.3085 20.9585C15.3734 20.7941 15.513 20.6727 15.6711 20.6238C15.8223 20.5771 15.9739 20.5998 16.0906 20.6671L15.0906 22.3992ZM9.02162 18.8952L15.0906 22.3992L16.0906 20.6671L10.0216 17.1632L9.02162 18.8952ZM8.65559 17.5292L6.55038 21.1756L8.28243 22.1756L10.3876 18.5292L8.65559 17.5292ZM7.16399 20.7079L5.71391 21.0862L6.21874 23.0215L7.66882 22.6432L7.16399 20.7079ZM6.83235 22.5538L9.46388 17.9959L7.73183 16.9959L5.1003 21.5538L6.83235 22.5538ZM7.90831 18.2525L8.09786 18.3619L9.09786 16.6299L8.90831 16.5204L7.90831 18.2525ZM7.54231 16.8864L7.54229 16.8865L9.27434 17.8865L9.27437 17.8864L7.54231 16.8864ZM2.02903 14.858L7.90834 18.2524L8.90834 16.5204L3.02903 13.126L2.02903 14.858ZM1.60129 12.7055C1.00391 13.4581 1.32202 14.4498 2.02903 14.858L3.02903 13.126C3.14571 13.1933 3.24119 13.3133 3.27626 13.4676C3.31295 13.629 3.27762 13.8106 3.16777 13.9489L1.60129 12.7055ZM5.27073 10.0022C3.32334 10.7893 2.1428 12.0233 1.60129 12.7055L3.16777 13.9489C3.56784 13.4449 4.48757 12.4759 6.02016 11.8565L5.27073 10.0022ZM5.8775 9.75907C5.68741 9.83489 5.48481 9.91569 5.27073 10.0022L6.02016 11.8565C6.22938 11.7719 6.42789 11.6928 6.61846 11.6168L5.8775 9.75907ZM8.78349 7.87922C8.26735 8.77321 7.7234 9.02282 5.8775 9.75907L6.61846 11.6168C8.37611 10.9157 9.6036 10.4587 10.5155 8.87922L8.78349 7.87922ZM9.48788 2.53319C9.51355 3.26023 9.51906 4.30755 9.41708 5.34173C9.31186 6.40874 9.10374 7.32453 8.78349 7.87922L10.5155 8.87922C11.0593 7.93738 11.2965 6.66252 11.4074 5.538C11.5216 4.38066 11.5139 3.23559 11.4866 2.46262L9.48788 2.53319Z" fill="#959595" mask="url(#path-1-inside-1)"/>
</svg>
