<svg width="54" height="54" viewBox="0 0 54 54" fill="none" xmlns="http://www.w3.org/2000/svg">
<path d="M27 54C41.9117 54 54 41.9117 54 27C54 12.0883 41.9117 0 27 0C12.0883 0 0 12.0883 0 27C0 41.9117 12.0883 54 27 54Z" fill="#FFD74A"/>
<path d="M40.742 34.1161C40.742 36.8614 35.3312 39.0873 28.6579 39.0873C21.9835 39.0873 16.5737 36.8614 16.5737 34.1161C16.5737 31.3707 21.9845 29.1437 28.6579 29.1437C35.3312 29.1448 40.742 31.3707 40.742 34.1161Z" fill="#C1C1C1"/>
<path fill-rule="evenodd" clip-rule="evenodd" d="M17.7117 32.3745C17.1338 32.9366 16.8437 33.525 16.8437 34.116C16.8437 34.7071 17.1337 35.2954 17.7115 35.8575C18.2902 36.4203 19.1415 36.9396 20.2156 37.3815C22.3624 38.2647 25.347 38.8173 28.6578 38.8173C31.9681 38.8173 34.9527 38.2647 37.0997 37.3815C38.1738 36.9396 39.0253 36.4203 39.604 35.8574C40.1819 35.2954 40.472 34.707 40.472 34.116C40.472 33.525 40.1819 32.9367 39.604 32.3746C39.0253 31.8118 38.1738 31.2924 37.0997 30.8505C34.9527 29.9671 31.9681 29.4143 28.6578 29.4137M17.7117 32.3745C18.2904 31.8115 19.1419 31.2921 20.216 30.8501L17.7117 32.3745ZM20.216 30.8501C22.363 29.9666 25.3475 29.4137 28.6578 29.4137L20.216 30.8501ZM20.0105 30.3507C22.2373 29.4344 25.2948 28.8737 28.6578 28.8737H28.6579C32.0209 28.8743 35.0784 29.4349 37.3051 30.3511C38.4179 30.8089 39.3362 31.3609 39.9805 31.9875C40.6257 32.615 41.012 33.3344 41.012 34.116C41.012 34.8977 40.6257 35.6171 39.9805 36.2446C39.3362 36.8712 38.4179 37.4231 37.3051 37.8809C35.0784 38.7969 32.0209 39.3573 28.6578 39.3573C25.2943 39.3573 22.2368 38.7969 20.0101 37.8809C18.8975 37.4231 17.9793 36.8712 17.335 36.2445C16.6899 35.6171 16.3037 34.8977 16.3037 34.116C16.3037 33.3344 16.69 32.6149 17.3352 31.9874C17.9795 31.3606 18.8978 30.8086 20.0105 30.3507Z" fill="#333333"/>
<path d="M28.6579 38.1693C23.3572 38.1693 18.3698 37.2329 14.6146 35.5341C10.7914 33.8039 8.68542 31.4776 8.68542 28.9839C8.68542 26.4902 10.7914 24.1639 14.6146 22.4326C18.3698 20.7327 23.3572 19.7974 28.6579 19.7974C33.9585 19.7974 38.9459 20.7338 42.7011 22.4326C46.5243 24.1628 48.6303 26.4891 48.6303 28.9839C48.6303 31.4787 46.5243 33.8039 42.7011 35.5341C38.9449 37.2329 33.9574 38.1693 28.6579 38.1693Z" fill="white"/>
<path d="M28.6579 20.0664C39.5389 20.0664 48.3603 24.058 48.3603 28.9828C48.3603 33.9076 39.5389 37.8993 28.6579 37.8993C17.7769 37.8993 8.95544 33.9076 8.95544 28.9828C8.95544 24.058 17.7758 20.0664 28.6579 20.0664ZM28.6579 19.5264C23.3205 19.5264 18.2931 20.4714 14.5034 22.1853C10.5776 23.9619 8.41544 26.3757 8.41544 28.9818C8.41544 31.5878 10.5776 34.0016 14.5034 35.7782C18.2931 37.4932 23.3194 38.4372 28.6579 38.4372C33.9963 38.4372 39.0226 37.4922 42.8124 35.7782C46.7382 34.0016 48.9003 31.5878 48.9003 28.9818C48.9003 26.3757 46.7382 23.9619 42.8124 22.1853C39.0226 20.4714 33.9952 19.5264 28.6579 19.5264Z" fill="#333333"/>
<path d="M28.6577 34.4519C36.5329 34.4519 42.917 31.8254 42.917 28.5854C42.917 25.3454 36.5329 22.7188 28.6577 22.7188C20.7826 22.7188 14.3985 25.3454 14.3985 28.5854C14.3985 31.8254 20.7826 34.4519 28.6577 34.4519Z" fill="white"/>
<path d="M20.6507 32.5468C18.8914 32.5134 16.916 31.4928 16.1309 30.8178L15.7723 29.2723L19.2704 27.1101L18.9389 26.5734L15.4408 28.7355L14.2182 27.7236C13.9763 26.7613 13.918 24.5322 14.6923 22.9079C14.6923 22.9079 13.9655 22.6692 13.2656 23.5429C13.2656 23.5429 12.5248 22.7081 11.6899 22.6011C11.6899 22.6011 11.097 23.0483 10.8702 23.9738C10.8702 23.9738 10.0634 23.4101 9.33013 23.5451C9.33013 23.5451 9.11521 24.314 9.33337 25.1802C8.46829 25.3983 7.89157 25.9524 7.89157 25.9524C8.12269 26.6619 9.00073 27.1047 9.00073 27.1047C8.29225 27.7441 8.18101 28.4785 8.18101 28.4785C8.67025 29.1632 9.75781 29.4202 9.75781 29.4202C9.31933 30.4506 9.87445 30.9765 9.87445 30.9765C10.8562 29.6362 12.7721 28.5584 13.8964 28.2754L14.877 29.0854L10.9382 31.5208C10.233 31.3545 8.36569 30.5175 7.34725 29.1697C7.34725 29.1697 6.85801 29.647 7.26409 30.5629C7.26409 30.5629 6.29425 30.807 5.86657 31.4269C5.86657 31.4269 5.97673 32.0824 6.61933 32.644C6.61933 32.644 5.83957 33.0534 5.64301 33.6906C5.64301 33.6906 6.16573 34.1787 6.94333 34.3623C6.75973 35.1399 6.96277 35.8257 6.96277 35.8257C7.62049 35.9359 8.33545 35.4207 8.33545 35.4207C8.55037 36.2469 9.08821 36.6379 9.08821 36.6379C9.83449 36.532 10.4857 35.7739 10.4857 35.7739C11.124 36.5461 11.7698 36.3225 11.7698 36.3225C11.0711 34.9131 11.0722 32.9043 11.272 32.0598L15.2107 29.6244L15.4969 30.8631C14.8068 31.6656 13.0129 32.9583 11.2828 33.2532C11.2828 33.2532 11.5063 33.9843 12.623 34.0534C12.623 34.0534 12.366 35.141 12.7602 35.884C12.7602 35.884 13.4665 36.113 14.3554 35.7652C14.3554 35.7652 14.3586 36.7491 14.89 37.2729C14.89 37.2729 15.6427 37.0051 16.2259 36.329C16.9031 36.9111 17.6872 37.0634 17.6872 37.0634C18.1354 36.4672 17.9917 35.4931 17.9917 35.4931C18.9216 35.7048 19.5869 35.3743 19.5869 35.3743C19.8644 34.5794 19.4497 33.5437 19.4497 33.5437C20.5394 33.3039 20.6507 32.5468 20.6507 32.5468Z" fill="#7AA229"/>
<path fill-rule="evenodd" clip-rule="evenodd" d="M11.6152 22.3194L11.7243 22.3334C12.2121 22.3958 12.652 22.6654 12.9552 22.8979C13.073 22.9882 13.1744 23.0763 13.255 23.1509C13.5827 22.8258 13.9148 22.6834 14.1926 22.6322C14.3569 22.602 14.4964 22.6047 14.5975 22.6159C14.648 22.6215 14.6892 22.6292 14.7195 22.636C14.7347 22.6395 14.7471 22.6427 14.7567 22.6454C14.7615 22.6467 14.7655 22.6479 14.7688 22.6489L14.7733 22.6503L14.7751 22.6509L14.7759 22.6511L14.7762 22.6513C14.7764 22.6513 14.7766 22.6514 14.6924 22.9079L14.7766 22.6514L15.0681 22.7471L14.9361 23.0241C14.5689 23.7942 14.3945 24.7201 14.3437 25.5799C14.296 26.3888 14.359 27.1169 14.4602 27.5734L15.4637 28.404L19.0267 26.2018L19.642 27.1979L16.0792 29.4001L16.3735 30.6687C16.7503 30.975 17.383 31.3577 18.1308 31.6743C18.9237 32.01 19.8222 32.2611 20.6559 32.277L20.9624 32.2828L20.9179 32.5862L20.6507 32.5469C20.9179 32.5862 20.9178 32.5863 20.9178 32.5865L20.9176 32.5877L20.9173 32.5896L20.9166 32.5942C20.916 32.5976 20.9153 32.6017 20.9143 32.6066C20.9124 32.6163 20.9098 32.6289 20.9061 32.644C20.8988 32.6741 20.8873 32.7143 20.8697 32.7621C20.8347 32.8574 20.7751 32.9835 20.6751 33.1172C20.506 33.3432 20.2311 33.5778 19.7951 33.7274C19.8259 33.833 19.8594 33.9636 19.8876 34.1099C19.9598 34.4851 20.004 34.999 19.8418 35.4634L19.8056 35.5672L19.707 35.6162L19.5869 35.3744C19.707 35.6162 19.7069 35.6162 19.7068 35.6163L19.7066 35.6164L19.7061 35.6166L19.705 35.6172L19.702 35.6186C19.6996 35.6198 19.6966 35.6212 19.693 35.6229C19.6857 35.6263 19.6758 35.6308 19.6634 35.6361C19.6386 35.6468 19.6039 35.6609 19.5599 35.6767C19.472 35.7084 19.3468 35.7469 19.1907 35.778C18.953 35.8252 18.6426 35.8551 18.2834 35.8157C18.2844 35.8928 18.2829 35.9794 18.277 36.0718C18.2557 36.4093 18.1741 36.8651 17.903 37.2257L17.8015 37.3607L17.6357 37.3285L17.6872 37.0635C17.6357 37.3285 17.6356 37.3285 17.6356 37.3285L17.6354 37.3285L17.635 37.3284L17.634 37.3282L17.6311 37.3276C17.6288 37.3271 17.6258 37.3265 17.622 37.3257C17.6145 37.3241 17.6041 37.3218 17.5909 37.3188C17.5647 37.3127 17.5278 37.3035 17.4818 37.2907C17.39 37.2652 17.2617 37.2251 17.1113 37.1657C16.8665 37.069 16.5585 36.9195 16.2533 36.6954C15.9848 36.9623 15.7025 37.156 15.4748 37.2881C15.3349 37.3692 15.214 37.4281 15.1271 37.467C15.0835 37.4865 15.0483 37.5011 15.0233 37.511C15.0108 37.516 15.0008 37.5198 14.9936 37.5225C14.9919 37.5232 14.9903 37.5238 14.9889 37.5243C14.9874 37.5249 14.986 37.5254 14.9849 37.5258L14.9822 37.5268L14.9812 37.5271L14.9808 37.5273L14.9807 37.5273C14.9806 37.5273 14.9805 37.5274 14.89 37.273L14.9805 37.5274L14.821 37.5841L14.7005 37.4653C14.3792 37.1486 14.2309 36.7102 14.1595 36.3797C14.14 36.2892 14.1256 36.2039 14.1151 36.1275C13.7654 36.22 13.4537 36.2364 13.2116 36.2248C13.0526 36.2172 12.9231 36.1975 12.8315 36.1792C12.7857 36.17 12.7492 36.1612 12.7231 36.1543C12.7157 36.1523 12.709 36.1505 12.7033 36.1488C12.699 36.1476 12.6952 36.1465 12.6919 36.1455C12.688 36.1444 12.6849 36.1434 12.6824 36.1427L12.6791 36.1416L12.6779 36.1413L12.6774 36.1411L12.6772 36.141C12.6771 36.141 12.677 36.141 12.7602 35.8841L12.677 36.141L12.573 36.1072L12.5217 36.0106C12.2912 35.5761 12.2584 35.061 12.2741 34.6791C12.2802 34.5307 12.2939 34.3969 12.3085 34.2879C11.9267 34.2201 11.6485 34.0754 11.4497 33.9136C11.4508 33.9284 11.452 33.9432 11.4531 33.9581C11.5137 34.7222 11.683 35.5396 12.0118 36.2027L12.148 36.4774L11.8582 36.5777L11.7699 36.3226C11.8582 36.5777 11.858 36.5778 11.8578 36.5779L11.8567 36.5783L11.855 36.5788L11.8507 36.5802C11.8475 36.5813 11.8437 36.5824 11.8392 36.5838C11.8303 36.5864 11.8187 36.5896 11.8048 36.593C11.7769 36.5998 11.7391 36.6075 11.6928 36.6133C11.6002 36.625 11.4728 36.6294 11.3223 36.6041C11.0731 36.5621 10.7767 36.441 10.4817 36.1642C10.4134 36.2284 10.33 36.3023 10.2345 36.3779C9.96486 36.5914 9.56986 36.8423 9.12615 36.9053L9.01791 36.9206L8.92948 36.8563L9.08824 36.638C8.92948 36.8563 8.9294 36.8563 8.9293 36.8562L8.92911 36.8561L8.9277 36.855L8.92512 36.8531C8.92315 36.8517 8.92067 36.8498 8.91771 36.8475C8.91178 36.843 8.90392 36.8368 8.89433 36.829C8.87518 36.8134 8.84911 36.7913 8.81787 36.7625C8.75546 36.705 8.67203 36.6205 8.58188 36.5082C8.44907 36.3427 8.30093 36.1158 8.18462 35.8252C8.13019 35.8535 8.06982 35.883 8.00468 35.9117C7.72591 36.0345 7.32417 36.1601 6.9182 36.0921L6.7518 36.0642L6.70391 35.9024L6.9628 35.8258C6.70391 35.9024 6.70389 35.9024 6.70386 35.9023L6.7037 35.9018L6.70343 35.9008L6.70266 35.8982C6.70206 35.8961 6.70128 35.8933 6.70034 35.8899C6.69845 35.8831 6.69592 35.8737 6.69288 35.8618C6.68681 35.8381 6.67871 35.8046 6.66978 35.7623C6.65195 35.678 6.63068 35.5586 6.61566 35.4135C6.59181 35.1831 6.58324 34.8833 6.63189 34.5549C6.31642 34.4515 6.05211 34.3098 5.85666 34.1855C5.73361 34.1072 5.63625 34.0347 5.56881 33.9811C5.53504 33.9542 5.50866 33.932 5.49016 33.916C5.48091 33.908 5.47363 33.9015 5.46838 33.8968C5.46575 33.8944 5.46363 33.8925 5.46202 33.891L5.46 33.8891L5.45928 33.8885L5.45899 33.8882L5.45887 33.8881C5.45881 33.888 5.45875 33.888 5.64304 33.6906L5.45875 33.888L5.33521 33.7726L5.38504 33.611C5.50629 33.218 5.79812 32.9149 6.03259 32.7206C6.08736 32.6752 6.14065 32.6343 6.19032 32.5983C5.98242 32.3644 5.84556 32.1306 5.75678 31.9379C5.69653 31.8071 5.65816 31.6948 5.63454 31.6134C5.62271 31.5726 5.61454 31.5394 5.60913 31.5153C5.60643 31.5033 5.60442 31.4935 5.60299 31.4862C5.60228 31.4825 5.60171 31.4794 5.60127 31.477L5.60071 31.4739L5.6005 31.4727L5.60037 31.4719C5.60035 31.4718 5.60033 31.4717 5.8666 31.4269L5.60033 31.4717L5.58219 31.3637L5.64436 31.2736C5.89872 30.9049 6.29981 30.6637 6.61128 30.5179C6.72173 30.4662 6.82508 30.4246 6.9131 30.3923C6.79713 30.0047 6.82129 29.6855 6.89524 29.4439C6.93987 29.298 7.00091 29.186 7.05278 29.1085C7.07874 29.0697 7.10253 29.0393 7.12112 29.0174C7.13042 29.0065 7.13844 28.9976 7.14482 28.9908C7.14801 28.9873 7.1508 28.9845 7.15313 28.9821L7.15628 28.9789L7.15759 28.9776L7.15818 28.977L7.15846 28.9768C7.15859 28.9766 7.15872 28.9765 7.34728 29.1697L7.15872 28.9765L7.378 28.7625L7.5627 29.007C8.03351 29.6301 8.70519 30.1467 9.35801 30.5327C9.30205 30.2825 9.29701 29.9688 9.40737 29.5967C9.30338 29.561 9.1776 29.5134 9.04212 29.4524C8.69347 29.2955 8.24734 29.0358 7.96135 28.6355L7.89768 28.5464L7.91408 28.4381L8.18104 28.4785C7.91408 28.4381 7.9141 28.438 7.91412 28.4379L7.91415 28.4376L7.91423 28.4371L7.91443 28.4359L7.91497 28.4325C7.91539 28.43 7.91595 28.4267 7.91666 28.4227C7.91808 28.4148 7.92009 28.4041 7.92283 28.3909C7.92831 28.3645 7.9367 28.3279 7.949 28.2828C7.97358 28.1926 8.01393 28.068 8.07823 27.9224C8.17616 27.7006 8.33021 27.4291 8.56933 27.1577C8.50576 27.1141 8.43598 27.0632 8.36383 27.0052C8.10019 26.7936 7.77456 26.4649 7.63487 26.036L7.58243 25.875L7.70455 25.7577L7.8916 25.9524C7.70455 25.7577 7.7046 25.7577 7.70466 25.7576L7.70507 25.7572L7.70582 25.7565L7.70794 25.7545C7.70964 25.7529 7.71191 25.7508 7.71474 25.7481C7.72039 25.7429 7.72828 25.7357 7.73833 25.7267C7.75843 25.7088 7.78722 25.6838 7.82415 25.6536C7.89794 25.5931 8.00467 25.5113 8.13983 25.4225C8.3598 25.278 8.65927 25.1122 9.0179 24.9918C8.9539 24.6185 8.95793 24.2763 8.98101 24.0142C8.99519 23.8531 9.01672 23.7205 9.035 23.627C9.04415 23.5802 9.05252 23.543 9.0588 23.5168C9.06194 23.5037 9.06456 23.4934 9.0665 23.4859C9.06747 23.4822 9.06827 23.4792 9.06888 23.4769L9.06965 23.4741L9.06993 23.4731L9.07004 23.4727L9.07008 23.4726C9.0701 23.4725 9.07012 23.4724 9.33016 23.5451L9.07012 23.4724L9.1155 23.3101L9.28127 23.2796C9.72494 23.1979 10.169 23.3285 10.4804 23.4602C10.5657 23.4963 10.6437 23.5336 10.7123 23.5689C10.8377 23.2303 11.0034 22.9662 11.1519 22.7749C11.2494 22.6492 11.3399 22.5545 11.4075 22.4901C11.4413 22.4578 11.4695 22.4331 11.4901 22.4157C11.5004 22.407 11.5088 22.4002 11.5151 22.3952C11.5182 22.3927 11.5209 22.3906 11.5229 22.389L11.5256 22.387L11.5266 22.3862L11.527 22.3859L11.5272 22.3857C11.5273 22.3857 11.5274 22.3856 11.69 22.6012L11.5274 22.3856L11.6152 22.3194ZM11.7712 22.8894C11.7212 22.9378 11.653 23.01 11.5784 23.106C11.4203 23.3096 11.2352 23.619 11.1325 24.0381L11.0387 24.4209L10.7159 24.1954L10.7158 24.1953L10.7156 24.1952L10.7152 24.1949L10.7142 24.1943C10.7133 24.1936 10.712 24.1927 10.7103 24.1916C10.7056 24.1884 10.698 24.1834 10.6878 24.1768C10.6674 24.1636 10.6365 24.1443 10.5968 24.1212C10.5172 24.0748 10.4038 24.0141 10.27 23.9575C10.0488 23.864 9.79482 23.7915 9.55329 23.7943C9.54103 23.8658 9.52819 23.9563 9.51893 24.0615C9.49425 24.3418 9.49559 24.7187 9.59522 25.1143L9.66115 25.376L9.39942 25.442C9.00442 25.5416 8.67178 25.7191 8.43635 25.8738C8.34818 25.9317 8.27453 25.9859 8.21731 26.0306C8.33009 26.2446 8.51462 26.4338 8.70186 26.5841C8.81517 26.6751 8.92232 26.7461 9.00092 26.7942C9.04006 26.8182 9.07172 26.8362 9.093 26.848C9.10363 26.8538 9.11163 26.8581 9.11665 26.8607C9.11916 26.8621 9.12092 26.863 9.12188 26.8635L9.12234 26.8637L9.12245 26.8638L9.12255 26.8638L9.12268 26.8639L9.47425 27.0412L9.18165 27.3052C8.86085 27.5947 8.67635 27.9047 8.57221 28.1405C8.523 28.2519 8.49195 28.3463 8.47314 28.4134C8.67948 28.652 8.98141 28.833 9.26369 28.96C9.41868 29.0297 9.55985 29.0797 9.66196 29.1121C9.71287 29.1283 9.75367 29.1399 9.78115 29.1474C9.79488 29.1512 9.80525 29.1539 9.81186 29.1555C9.81516 29.1564 9.81752 29.157 9.81889 29.1573L9.81994 29.1575L9.82018 29.1576L10.1317 29.2312L10.0063 29.526C9.81225 29.9819 9.84504 30.3037 9.90827 30.5006C10.4033 29.9239 11.043 29.4116 11.687 29.0018C12.446 28.5187 13.2328 28.1641 13.8305 28.0137L13.963 27.9803L15.3393 29.1171L10.9852 31.8094L10.8763 31.7837C10.4908 31.6928 9.82255 31.4295 9.12405 31.0215C8.533 30.6763 7.90328 30.2177 7.39745 29.6541C7.35644 29.8273 7.35062 30.0919 7.51094 30.4535L7.64088 30.7465L7.33035 30.8247L7.33023 30.8247L7.33001 30.8248L7.3293 30.825L7.32326 30.8266C7.31753 30.8281 7.30845 30.8306 7.29639 30.8341C7.27225 30.841 7.23628 30.8519 7.19136 30.8669C7.10123 30.897 6.97667 30.9431 6.8402 31.007C6.59541 31.1216 6.33743 31.2816 6.16054 31.4875C6.17828 31.545 6.20586 31.6222 6.24722 31.7119C6.34243 31.9185 6.50967 32.1897 6.79703 32.4408L7.09368 32.7001L6.7453 32.8829L6.74507 32.8831L6.74485 32.8832L6.74466 32.8833L6.74023 32.8857C6.73592 32.888 6.72897 32.8919 6.7197 32.8972C6.70114 32.9078 6.67342 32.9242 6.6391 32.946C6.57017 32.9897 6.47625 33.0542 6.37723 33.1363C6.21905 33.2674 6.06579 33.4288 5.96961 33.6082C6.01774 33.644 6.07711 33.6857 6.14654 33.7299C6.35731 33.864 6.65431 34.0167 7.0054 34.0996L7.26818 34.1617L7.20613 34.4244C7.12324 34.7755 7.12707 35.1094 7.15279 35.3579C7.16128 35.4399 7.17207 35.5117 7.1826 35.5709C7.3859 35.5653 7.5988 35.5004 7.78689 35.4175C7.90457 35.3657 8.00421 35.3104 8.07415 35.2683C8.10897 35.2473 8.13603 35.2298 8.15384 35.218C8.16274 35.212 8.16929 35.2075 8.17333 35.2047L8.17746 35.2019L8.17764 35.2017L8.17774 35.2017L8.17784 35.2016L8.17797 35.2015L8.49752 34.9712L8.59678 35.3528C8.69287 35.7222 8.86069 35.9929 9.00303 36.1702C9.06492 36.2473 9.12174 36.3065 9.16519 36.3479C9.42884 36.2817 9.68738 36.1223 9.89925 35.9546C10.0173 35.8611 10.1143 35.7703 10.1814 35.7032C10.2149 35.6697 10.2406 35.6424 10.2576 35.6239C10.2661 35.6147 10.2724 35.6077 10.2763 35.6033L10.2805 35.5986L10.2809 35.598L10.281 35.5979L10.2812 35.5978L10.4897 35.355L10.6939 35.6019C10.9462 35.9072 11.1861 36.0203 11.3596 36.061C11.1017 35.4034 10.968 34.6714 10.9148 34.0007C10.8513 33.1982 10.901 32.4552 11.0093 31.9977L11.035 31.8889L15.3891 29.1967L15.7908 30.9356L15.7017 31.0392C15.3338 31.467 14.6891 32.0079 13.921 32.4788C13.2639 32.8816 12.5008 33.2427 11.7246 33.436C11.8729 33.5807 12.1462 33.7535 12.6398 33.784L12.9595 33.8038L12.8859 34.1153L12.8859 34.1154L12.8858 34.1156L12.8856 34.1167C12.8854 34.1174 12.8852 34.1184 12.8849 34.1198C12.8846 34.1209 12.8844 34.1222 12.884 34.1237C12.8826 34.1304 12.8803 34.1409 12.8775 34.1548C12.8719 34.1827 12.8641 34.2244 12.8558 34.2772C12.8391 34.383 12.8206 34.5315 12.8136 34.7013C12.8009 35.0104 12.8278 35.3611 12.949 35.652C13.0174 35.6651 13.1157 35.6796 13.2374 35.6854C13.4948 35.6978 13.8545 35.6713 14.257 35.5139L14.6241 35.3703L14.6254 35.764L14.6254 35.7642L14.6254 35.7643V35.7644L14.6254 35.7649C14.6254 35.766 14.6254 35.768 14.6255 35.7708C14.6256 35.7765 14.6259 35.7856 14.6264 35.7977C14.6273 35.822 14.6293 35.8584 14.6332 35.9042C14.6411 35.996 14.6567 36.1237 14.6874 36.2658C14.738 36.5005 14.8247 36.7502 14.9657 36.9467C15.0312 36.9156 15.1126 36.8739 15.2038 36.821C15.4474 36.6797 15.7551 36.4615 16.0215 36.1527L16.1976 35.9486L16.402 36.1243C16.7112 36.3902 17.0478 36.56 17.3097 36.6634C17.4078 36.7022 17.4945 36.7312 17.564 36.7523C17.6743 36.5373 17.7229 36.2776 17.7381 36.0377C17.7473 35.8927 17.7437 35.764 17.7378 35.672C17.7348 35.6261 17.7313 35.5898 17.7287 35.5656C17.7273 35.5536 17.7262 35.5445 17.7255 35.5389C17.7251 35.5361 17.7249 35.5341 17.7247 35.533L17.7246 35.5325L17.7246 35.5324L17.7246 35.5323L17.7246 35.5322L17.6671 35.1423L18.0517 35.2299C18.4728 35.3257 18.8325 35.2986 19.0854 35.2483C19.2047 35.2246 19.2997 35.1958 19.3654 35.1727C19.4415 34.8664 19.4157 34.5155 19.3573 34.212C19.3252 34.0453 19.2849 33.9012 19.2527 33.7992C19.2367 33.7484 19.2228 33.7083 19.2131 33.6816C19.2083 33.6682 19.2045 33.6582 19.2021 33.6519C19.2009 33.6487 19.2 33.6464 19.1995 33.6451L19.1991 33.6441L19.1991 33.644L19.199 33.6439L19.0807 33.3485L19.3917 33.2801C19.8747 33.1738 20.1183 32.96 20.2427 32.7937C20.2427 32.7937 20.2427 32.7937 20.2427 32.7937C19.4432 32.7181 18.6312 32.4726 17.9202 32.1716C17.0902 31.8202 16.3741 31.3829 15.9549 31.0226L15.8879 30.9649L15.4655 29.1446L18.8989 27.0224L18.8511 26.9451L15.4179 29.0671L13.9779 27.8752L13.9564 27.7895C13.8271 27.2751 13.7515 26.4486 13.8047 25.5481C13.8503 24.7747 13.9919 23.9281 14.2885 23.1637C14.0847 23.2016 13.7858 23.3255 13.4764 23.7117L13.2763 23.9616L13.0639 23.7224L13.0639 23.7223L13.0637 23.7222L13.063 23.7214C13.0621 23.7203 13.0604 23.7185 13.0581 23.716C13.0535 23.711 13.0463 23.7031 13.0365 23.6928C13.0169 23.6722 12.9873 23.6419 12.949 23.6047C12.8721 23.5303 12.7613 23.4298 12.6266 23.3264C12.3813 23.1383 12.0791 22.9583 11.7712 22.8894ZM14.6117 23.1655L14.6114 23.1655C14.6121 23.1657 14.6122 23.1657 14.6117 23.1655ZM11.5399 33.1707L11.54 33.171C11.5397 33.1703 11.5397 33.1702 11.5399 33.1707ZM11.4344 32.9491C12.1922 32.7863 12.9641 32.4319 13.6388 32.0184C14.3091 31.6075 14.8654 31.1492 15.2023 30.7874L15.0325 30.0521L11.512 32.2289C11.475 32.4212 11.4471 32.6674 11.4344 32.9491ZM10.2157 30.9755C10.6753 30.4036 11.3136 29.8795 11.9769 29.4573C12.6445 29.0325 13.3187 28.7228 13.8323 28.5728L14.4148 29.0539L10.8948 31.2304C10.7191 31.18 10.4844 31.0947 10.2157 30.9755ZM10.0629 30.7832C10.0633 30.7836 10.0632 30.7835 10.0627 30.783L10.0629 30.7832Z" fill="#333333"/>
<path d="M45.1095 37.4555C44.9669 36.8809 44.2951 36.4802 44.2951 36.4802C44.8924 36.0137 45.0209 35.438 45.0209 35.438C44.671 34.8678 43.8243 34.6043 43.8243 34.6043C44.2282 33.8115 43.8178 33.3644 43.8178 33.3644C42.916 34.4304 41.2787 35.1389 40.5195 35.2739L37.1455 32.9227L38.0549 32.252C38.9524 32.5307 40.6383 33.5372 41.4893 34.8429C41.4893 34.8429 42.0066 34.4034 41.6686 33.4681C41.6686 33.4681 42.6449 33.2931 43.1125 32.7099C43.1125 32.7099 43.0499 32.0533 42.4527 31.4517C42.4527 31.4517 43.2529 31.1018 43.4916 30.4841C43.4916 30.4841 43.0078 29.9646 42.2507 29.7291C42.4861 28.9721 42.3328 28.2787 42.3328 28.2787C41.6891 28.1243 40.9461 28.5854 40.9461 28.5854C40.7905 27.7527 40.2862 27.3283 40.2862 27.3283C39.5399 27.3823 38.8433 28.0865 38.8433 28.0865C38.2655 27.2786 37.6089 27.4547 37.6089 27.4547C38.2029 28.8997 38.0679 30.8696 37.7946 31.7477L36.6617 32.5847L33.6658 30.497L33.345 30.9571L36.3409 33.0447L35.9478 34.398C35.2491 34.9347 33.453 35.7685 31.8568 35.7113C31.8568 35.7113 31.9194 36.3873 32.8774 36.6498C32.8774 36.6498 32.4594 37.5483 32.6668 38.2665C32.6668 38.2665 33.2403 38.5916 34.074 38.4501C34.074 38.4501 33.9001 39.3066 34.2673 39.8563C34.2673 39.8563 34.9704 39.7602 35.599 39.2763C36.0828 39.9049 36.7373 40.1781 36.7373 40.1781C37.2341 39.7397 37.2849 38.8681 37.2849 38.8681C38.056 39.2191 38.6932 39.0517 38.6932 39.0517C39.0787 38.4113 38.9038 37.4349 38.9038 37.4349C39.8974 37.4285 40.1317 36.7913 40.1317 36.7913C38.6943 36.464 37.1391 35.2836 36.5116 34.4671L36.8259 33.3828L40.1998 35.7339C40.3132 36.3668 40.2894 38.1834 39.5507 39.4891C39.5507 39.4891 40.1123 39.7191 40.716 39.0657C40.716 39.0657 41.2571 39.7699 41.9127 39.8995C41.9127 39.8995 42.4084 39.5787 42.6384 38.8573C42.6384 38.8573 43.2465 39.3487 43.8351 39.2839C43.8351 39.2839 44.0478 38.6856 43.9236 37.9868C44.6224 37.8626 45.1095 37.4555 45.1095 37.4555Z" fill="#92BF32"/>
<path fill-rule="evenodd" clip-rule="evenodd" d="M40.4601 27.1218L40.2862 27.3284C40.4601 27.1218 40.4602 27.1218 40.4603 27.1219L40.4604 27.1221L40.4608 27.1224L40.4618 27.1232L40.4642 27.1253C40.466 27.1269 40.4684 27.1289 40.4712 27.1314C40.4767 27.1363 40.4841 27.143 40.493 27.1514C40.5109 27.1682 40.5352 27.1919 40.5641 27.2226C40.6218 27.2839 40.6985 27.3734 40.7798 27.491C40.8994 27.6636 41.0298 27.8979 41.1247 28.1926C41.1799 28.1685 41.241 28.1438 41.3065 28.1202C41.5911 28.0176 41.9979 27.9207 42.3958 28.0162L42.56 28.0556L42.5965 28.2205L42.3328 28.2788C42.5965 28.2205 42.5965 28.2205 42.5965 28.2206L42.5965 28.2208L42.5966 28.2212L42.5968 28.2221L42.5974 28.2248C42.5977 28.2261 42.598 28.2276 42.5984 28.2294C42.5986 28.2305 42.5989 28.2318 42.5991 28.2331C42.6005 28.24 42.6024 28.2495 42.6046 28.2615C42.6089 28.2854 42.6146 28.3192 42.6205 28.3617C42.6323 28.4465 42.6451 28.5663 42.6499 28.7111C42.6576 28.9406 42.6453 29.2376 42.5748 29.5589C42.8794 29.683 43.1309 29.8413 43.3156 29.9778C43.4321 30.0639 43.5235 30.1424 43.5866 30.2002C43.6182 30.2291 43.6428 30.253 43.66 30.2701C43.6687 30.2787 43.6754 30.2856 43.6803 30.2907C43.6828 30.2932 43.6847 30.2953 43.6862 30.2969L43.6881 30.2989L43.6888 30.2996L43.689 30.2999L43.6891 30.3C43.6892 30.3 43.6893 30.3001 43.4917 30.4841L43.6893 30.3001L43.8044 30.4238L43.7435 30.5814C43.5961 30.9631 43.2857 31.243 43.0399 31.4191C42.9833 31.4597 42.9284 31.496 42.8773 31.5278C43.0662 31.7737 43.185 32.0144 43.2592 32.2112C43.3097 32.345 43.3398 32.459 43.3575 32.5414C43.3663 32.5827 43.3721 32.6162 43.3757 32.6404C43.3776 32.6526 43.3789 32.6624 43.3798 32.6698C43.3802 32.6735 43.3806 32.6766 43.3808 32.679L43.3812 32.6822L43.3813 32.6834L43.3813 32.6839L43.3814 32.6841C43.3814 32.6843 43.3814 32.6844 43.1126 32.71L43.3814 32.6844L43.3918 32.7934L43.3232 32.8789C43.045 33.2259 42.6309 33.4369 42.3124 33.5597C42.2001 33.603 42.0956 33.6369 42.0066 33.6628C42.0725 33.9581 42.0624 34.2096 42.0149 34.4158C42.6056 34.0995 43.1969 33.6804 43.6117 33.1901L43.8096 32.9562L44.0168 33.1819L43.8178 33.3645C44.0168 33.1819 44.0169 33.182 44.017 33.1822L44.0173 33.1825L44.0178 33.1831L44.019 33.1844L44.0219 33.1876C44.024 33.19 44.0265 33.1929 44.0293 33.1963C44.0349 33.203 44.0419 33.2116 44.0499 33.2222C44.0659 33.2434 44.0862 33.2724 44.108 33.3091C44.1514 33.3825 44.2014 33.4876 44.2347 33.6224C44.2885 33.8404 44.2953 34.1215 44.1815 34.4536C44.2526 34.485 44.3335 34.5235 44.4192 34.5695C44.6897 34.7148 45.0389 34.9512 45.2511 35.2969L45.3083 35.3901L45.2845 35.4969L45.021 35.4381C45.2845 35.4969 45.2844 35.497 45.2844 35.4971L45.2843 35.4979L45.284 35.499L45.2833 35.502C45.2828 35.5043 45.2821 35.5071 45.2812 35.5104C45.2796 35.5171 45.2772 35.526 45.2742 35.5368C45.2681 35.5585 45.2591 35.5881 45.2465 35.6243C45.2212 35.6966 45.1813 35.7958 45.1208 35.9103C45.0352 36.0723 44.908 36.2662 44.7226 36.4581C44.7578 36.4874 44.7947 36.5195 44.8323 36.5543C45.0324 36.7395 45.2815 37.0274 45.3716 37.3905L45.4122 37.5544L45.2827 37.6627L45.1095 37.4555C45.2827 37.6627 45.2826 37.6627 45.2826 37.6628L45.2824 37.6629L45.2814 37.6637L45.2794 37.6654C45.2779 37.6667 45.2758 37.6683 45.2733 37.6704C45.2683 37.6744 45.2613 37.6799 45.2526 37.6867C45.2351 37.7003 45.2103 37.7189 45.1786 37.7414C45.1155 37.7861 45.0247 37.8462 44.9107 37.9101C44.7349 38.0087 44.4999 38.1189 44.2226 38.1956C44.2464 38.4822 44.2243 38.7408 44.1926 38.9399C44.1721 39.069 44.1473 39.1749 44.1272 39.2496C44.1171 39.2871 44.1082 39.3168 44.1016 39.3379C44.0983 39.3485 44.0955 39.3569 44.0934 39.363C44.0924 39.3661 44.0916 39.3685 44.0909 39.3705L44.0901 39.3729L44.0897 39.3738L44.0896 39.3743C44.0895 39.3744 44.0895 39.3744 43.8351 39.284L44.0895 39.3744L44.0328 39.5338L43.8647 39.5524C43.4928 39.5933 43.1366 39.4592 42.8937 39.3356C42.8481 39.3125 42.8054 39.2891 42.7658 39.2662C42.6502 39.5064 42.5126 39.6928 42.3904 39.8292C42.3039 39.9257 42.2248 39.9976 42.1657 40.0464C42.1361 40.0708 42.1114 40.0895 42.0932 40.1028C42.0841 40.1094 42.0766 40.1146 42.0709 40.1186C42.0681 40.1205 42.0657 40.1221 42.0637 40.1234L42.0612 40.1251L42.0602 40.1257L42.0598 40.126L42.0596 40.1261C42.0595 40.1262 42.0594 40.1263 41.9127 39.8996L42.0594 40.1263L41.9676 40.1857L41.8604 40.1644C41.4625 40.0858 41.1197 39.8399 40.8896 39.6363C40.8167 39.5718 40.7524 39.509 40.6983 39.4531C40.4262 39.6748 40.1602 39.7659 39.9371 39.7908C39.7991 39.8063 39.6833 39.7959 39.5994 39.7805C39.5574 39.7728 39.5231 39.7639 39.4977 39.7562C39.485 39.7523 39.4745 39.7488 39.4662 39.7458C39.4621 39.7443 39.4585 39.743 39.4556 39.7419L39.4515 39.7403L39.4499 39.7396L39.4491 39.7393L39.4488 39.7392C39.4486 39.7391 39.4484 39.739 39.5508 39.4892L39.4484 39.739L39.1649 39.6229L39.3158 39.3562C39.6436 38.7767 39.8259 38.079 39.9134 37.4314C39.7363 37.5475 39.5038 37.6442 39.2037 37.6847C39.2103 37.777 39.2147 37.8868 39.2131 38.0069C39.2084 38.3482 39.1541 38.8098 38.9246 39.191L38.868 39.285L38.7618 39.3129L38.6932 39.0518C38.7618 39.3129 38.7617 39.3129 38.7616 39.313L38.7614 39.313L38.7609 39.3132L38.7597 39.3135L38.7566 39.3142C38.7542 39.3148 38.7512 39.3156 38.7476 39.3164C38.7404 39.3181 38.7307 39.3203 38.7187 39.3227C38.6947 39.3277 38.6614 39.3338 38.6196 39.3398C38.5363 39.3516 38.419 39.3627 38.2761 39.3616C38.066 39.3599 37.7993 39.3318 37.5034 39.2399C37.4912 39.2989 37.4763 39.363 37.4578 39.4302C37.3779 39.7218 37.2229 40.1098 36.916 40.3806L36.7893 40.4925L36.6333 40.4274L36.7374 40.1782C36.6333 40.4274 36.6333 40.4273 36.6332 40.4273L36.633 40.4272L36.6318 40.4267L36.6293 40.4256C36.6282 40.4252 36.627 40.4247 36.6256 40.4241C36.6243 40.4235 36.6229 40.4229 36.6214 40.4222C36.615 40.4194 36.6061 40.4155 36.5951 40.4104C36.573 40.4002 36.5421 40.3854 36.5041 40.3658C36.428 40.3267 36.3227 40.2682 36.2016 40.1888C36.0096 40.063 35.7739 39.8821 35.5518 39.6394C35.2749 39.8172 35.0006 39.9316 34.7826 40.0041C34.6452 40.0497 34.5284 40.0793 34.4448 40.0976C34.4029 40.1067 34.3693 40.1131 34.3453 40.1173C34.3333 40.1194 34.3238 40.1209 34.3168 40.122C34.3133 40.1225 34.3105 40.123 34.3084 40.1233L34.3057 40.1237L34.3047 40.1238L34.3043 40.1238L34.3041 40.1239C34.304 40.1239 34.304 40.1239 34.2674 39.8564L34.304 40.1239L34.1367 40.1468L34.0429 40.0063C33.8159 39.6665 33.7656 39.2517 33.763 38.9495C33.7624 38.8797 33.7644 38.8138 33.7678 38.7535C33.4587 38.7664 33.194 38.7252 32.9906 38.673C32.8523 38.6374 32.7418 38.5967 32.6642 38.5638C32.6254 38.5474 32.5948 38.5329 32.5728 38.522C32.5619 38.5166 32.5531 38.512 32.5465 38.5085C32.5432 38.5068 32.5405 38.5053 32.5384 38.5041L32.5356 38.5026L32.5345 38.502L32.5339 38.5016C32.5338 38.5016 32.5337 38.5015 32.6668 38.2666L32.5337 38.5015L32.438 38.4472L32.4074 38.3415C32.2841 37.9143 32.3497 37.4545 32.4324 37.1234C32.4616 37.0067 32.494 36.9017 32.524 36.814C32.1539 36.6598 31.9235 36.441 31.7837 36.2326C31.6992 36.1067 31.651 35.9894 31.6236 35.9007C31.6099 35.8564 31.6014 35.819 31.5961 35.7909C31.5934 35.7769 31.5916 35.7651 31.5903 35.7559C31.5897 35.7513 31.5892 35.7474 31.5888 35.7441L31.5883 35.7396L31.5881 35.7378L31.5881 35.737L31.588 35.7366C31.588 35.7364 31.588 35.7362 31.8568 35.7113L31.588 35.7362L31.5597 35.4305L31.8665 35.4415C32.6181 35.4685 33.43 35.285 34.1464 35.0238C34.8149 34.78 35.3794 34.4761 35.7139 34.2355L36.0277 33.1556L32.9691 31.0243L33.5987 30.1212L36.6572 32.2524L37.5613 31.5845C37.6757 31.1724 37.7628 30.5293 37.757 29.816C37.7508 29.0538 37.6387 28.2373 37.3592 27.5574L37.2425 27.2734L37.539 27.1939L37.6089 27.4547C37.539 27.1939 37.5392 27.1939 37.5394 27.1938L37.5397 27.1937L37.5405 27.1935L37.5423 27.1931L37.5466 27.192C37.5498 27.1912 37.5537 27.1903 37.5583 27.1893C37.5673 27.1873 37.579 27.1849 37.5931 27.1825C37.6213 27.1778 37.6594 27.1728 37.7057 27.1702C37.7984 27.1652 37.9252 27.1696 38.0727 27.2052C38.3167 27.264 38.6019 27.4041 38.8747 27.6978C38.9464 27.6393 39.0335 27.5725 39.1326 27.5048C39.4143 27.3123 39.8228 27.0912 40.2668 27.0591L40.3762 27.0511L40.4601 27.1218ZM39.0352 28.2766L39.0353 28.2764L39.0358 28.2759L39.0402 28.2716C39.0444 28.2675 39.0511 28.261 39.0601 28.2525C39.0782 28.2354 39.1055 28.2102 39.1409 28.1795C39.2119 28.1178 39.314 28.0348 39.4373 27.9506C39.658 27.7997 39.9242 27.6603 40.1891 27.6125C40.229 27.6565 40.2806 27.7185 40.3359 27.7984C40.4642 27.9836 40.6112 28.263 40.6807 28.6351L40.7532 29.023L41.0881 28.8152L41.0883 28.815L41.0885 28.8149L41.0887 28.8148L41.0929 28.8122C41.0971 28.8097 41.1039 28.8057 41.1131 28.8005C41.1315 28.79 41.1595 28.7745 41.1953 28.7562C41.2674 28.7193 41.3697 28.6714 41.4897 28.6282C41.6808 28.5593 41.895 28.5099 42.0957 28.518C42.1019 28.5769 42.1075 28.6481 42.1102 28.729C42.1185 28.9768 42.0991 29.3075 41.9929 29.649L41.9128 29.9068L42.1706 29.987C42.5121 30.0932 42.7954 30.2649 42.9947 30.4121C43.0597 30.4601 43.1151 30.5051 43.16 30.5436C43.0526 30.7136 42.8905 30.8619 42.7255 30.9801C42.6219 31.0543 42.5245 31.1114 42.4534 31.1498C42.4179 31.1689 42.3894 31.1832 42.3703 31.1924C42.3608 31.1969 42.3537 31.2003 42.3492 31.2023L42.3447 31.2043L42.3445 31.2044L42.3444 31.2045L42.3443 31.2045L42.3442 31.2046L41.9834 31.3623L42.2611 31.642C42.528 31.9108 42.6744 32.1908 42.754 32.4018C42.7884 32.4929 42.8101 32.5707 42.8236 32.6285C42.634 32.8194 42.368 32.9595 42.1181 33.0559C41.9786 33.1096 41.8522 33.1467 41.761 33.1703C41.7155 33.182 41.6792 33.1903 41.6549 33.1955C41.6427 33.1981 41.6336 33.2 41.6278 33.2011L41.6217 33.2023L41.621 33.2024L41.6209 33.2024L41.6207 33.2025L41.3059 33.2589L41.4147 33.5599C41.5473 33.9267 41.5241 34.1874 41.4722 34.3559C41.043 33.8069 40.4918 33.3258 39.9448 32.9415C39.2884 32.4803 38.6173 32.144 38.135 31.9942L38.0046 31.9537L36.6823 32.929L40.4568 35.5593L40.5668 35.5398C40.9821 35.4659 41.6084 35.2428 42.2417 34.9068C42.7545 34.6349 43.2883 34.2804 43.7281 33.8544C43.7431 34.0023 43.7214 34.2116 43.5837 34.4818L43.4384 34.767L43.7437 34.862L43.7439 34.8621L43.7441 34.8621L43.7495 34.8639C43.7543 34.8655 43.7621 34.8681 43.7724 34.8717C43.7931 34.8789 43.824 34.8901 43.8626 34.9054C43.9402 34.9361 44.0471 34.9827 44.1637 35.0452C44.3686 35.1553 44.5799 35.3028 44.7232 35.4831C44.7052 35.53 44.6793 35.5899 44.6433 35.6582C44.5507 35.8335 44.392 36.062 44.129 36.2675L43.8183 36.5102L44.1564 36.7119L44.1565 36.712L44.1567 36.712L44.1568 36.7121L44.1569 36.7122L44.1604 36.7143C44.164 36.7165 44.1698 36.7202 44.1776 36.7252C44.1932 36.7353 44.2166 36.751 44.2455 36.7716C44.3037 36.8132 44.3828 36.8741 44.4655 36.9506C44.5915 37.0673 44.7104 37.2062 44.7853 37.3556C44.7458 37.3811 44.6993 37.4095 44.6465 37.4392C44.4551 37.5465 44.1876 37.6657 43.8764 37.7211L43.6106 37.7683L43.6578 38.0341C43.7132 38.3455 43.6938 38.6381 43.6593 38.8551C43.6498 38.9149 43.6393 38.9684 43.629 39.0143C43.4629 38.9956 43.2915 38.9322 43.1385 38.8543C43.0381 38.8033 42.9537 38.7502 42.8946 38.7099C42.8652 38.6899 42.8425 38.6734 42.8276 38.6622C42.824 38.6595 42.8208 38.6572 42.8182 38.6551C42.8154 38.653 42.8131 38.6512 42.8114 38.6499L42.8082 38.6474L42.8081 38.6473L42.8079 38.6471L42.8077 38.647L42.5012 38.3993L42.3812 38.7754C42.28 39.093 42.1207 39.321 41.9883 39.4688C41.9366 39.5264 41.8893 39.5716 41.8515 39.6047C41.6332 39.5332 41.4218 39.3861 41.2475 39.2319C41.1484 39.1442 41.0677 39.0599 41.0119 38.9977C40.9842 38.9667 40.9629 38.9415 40.949 38.9246C40.942 38.9162 40.9369 38.9098 40.9337 38.9058L40.9302 38.9013L40.9301 38.9012L40.9299 38.901L40.7351 38.6474L40.5178 38.8826C40.3124 39.1049 40.1239 39.1978 39.98 39.2351C40.2466 38.6349 40.392 37.9789 40.4629 37.3916C40.5492 36.6766 40.5283 36.0362 40.4656 35.6864L40.4459 35.5764L36.6714 32.9461L36.2143 34.5233L36.2976 34.6317C36.6337 35.0691 37.2032 35.5871 37.8666 36.0363C38.4137 36.4068 39.0392 36.7404 39.6688 36.9434C39.5285 37.0505 39.2919 37.1625 38.9021 37.165L38.5815 37.1671L38.638 37.4823L38.638 37.4824L38.6381 37.4826L38.6382 37.4833L38.6392 37.4894C38.6401 37.4952 38.6416 37.5044 38.6434 37.5168C38.6469 37.5414 38.6518 37.5783 38.6566 37.625C38.6661 37.7187 38.6752 37.8501 38.6731 37.9995C38.6695 38.2671 38.6303 38.565 38.5169 38.8087C38.458 38.8159 38.3776 38.8224 38.2804 38.8216C38.0549 38.8198 37.7415 38.7793 37.3968 38.6224L37.0383 38.4593L37.0154 38.852L37.0154 38.8522L37.0154 38.8523L37.0154 38.8525L37.0154 38.8527L37.015 38.8576C37.0146 38.8625 37.014 38.8703 37.013 38.8808C37.011 38.9019 37.0075 38.9336 37.0019 38.9734C36.9906 39.0534 36.9707 39.1645 36.9371 39.2874C36.8834 39.4831 36.8004 39.6867 36.6781 39.8465C36.6265 39.8178 36.5652 39.7815 36.4976 39.7372C36.2905 39.6014 36.0313 39.3953 35.813 39.1117L35.6483 38.8978L35.4343 39.0625C35.1508 39.2807 34.8474 39.4135 34.6124 39.4916C34.5357 39.5171 34.467 39.5365 34.4097 39.551C34.3327 39.3657 34.3048 39.1479 34.303 38.9448C34.3019 38.8174 34.3112 38.7049 34.3208 38.6245C34.3255 38.5845 34.3303 38.5529 34.3337 38.532C34.3355 38.5216 34.3368 38.5138 34.3377 38.509L34.3386 38.5041L34.3387 38.5039L34.3387 38.5037L34.3388 38.5035L34.417 38.1182L34.0289 38.184C33.6563 38.2472 33.3434 38.206 33.125 38.15C33.031 38.1258 32.9549 38.099 32.8998 38.0769C32.853 37.812 32.8915 37.5139 32.9563 37.2544C32.9925 37.1094 33.0349 36.9847 33.0681 36.8966C33.0846 36.8527 33.0987 36.8183 33.1084 36.7954C33.1133 36.7839 33.117 36.7754 33.1194 36.77L33.122 36.7644L33.1223 36.7637L33.1223 36.7636L33.1224 36.7634L33.2571 36.4739L32.9488 36.3894C32.5732 36.2866 32.3734 36.1175 32.2653 35.9778C32.9785 35.9423 33.7 35.7614 34.3314 35.5311C35.086 35.2559 35.7358 34.9014 36.1124 34.6122L36.1825 34.5583L36.6543 32.9341L33.721 30.89L33.7329 30.8729L36.6664 32.917L38.0262 31.9124L38.0525 31.828C38.1995 31.3554 38.3035 30.6143 38.297 29.8117C38.2916 29.1424 38.2093 28.4125 38.0002 27.7451M39.9803 36.4738C39.3685 36.2992 38.734 35.9715 38.1694 35.5892C37.5957 35.2007 37.112 34.7679 36.81 34.4075L36.9804 33.8196L39.9502 35.8891C39.9688 36.0385 39.981 36.2388 39.9803 36.4738ZM41.1408 34.813C40.7448 34.2691 40.1968 33.7785 39.6344 33.3833C39.0716 32.9879 38.5113 32.6999 38.1022 32.5527L37.6089 32.9165L40.5791 34.9863C40.7362 34.9506 40.928 34.8925 41.1408 34.813Z" fill="#333333"/>
<path d="M32.4075 11.3475C31.9993 11.7762 32.0231 12.5582 32.0231 12.5582C31.3092 12.3054 30.7541 12.5063 30.7541 12.5063C30.4614 13.1079 30.6947 13.9643 30.6947 13.9643C29.8091 14.0496 29.6525 14.6361 29.6525 14.6361C31.037 14.824 32.5134 15.823 33.0361 16.39L32.8676 20.4983L31.8135 20.0922C31.5662 19.1861 31.5079 17.2227 32.1516 15.8036C32.1516 15.8036 31.5025 15.6038 30.8966 16.3911C30.8966 16.3911 30.2249 15.661 29.4818 15.5811C29.4818 15.5811 28.9623 15.9871 28.7755 16.8133C28.7755 16.8133 28.0508 16.3263 27.4007 16.457C27.4007 16.457 27.2225 17.1438 27.4309 17.9095C26.6663 18.118 26.1641 18.6191 26.1641 18.6191C26.3801 19.2444 27.1685 19.6235 27.1685 19.6235C26.5507 20.2024 26.4632 20.8558 26.4632 20.8558C26.9103 21.4552 27.878 21.6658 27.878 21.6658C27.5076 22.587 28.0087 23.046 28.0087 23.046C28.9083 21.7684 30.6417 20.8234 31.5284 20.5815L32.8439 21.0869L32.6948 24.7351L33.2543 24.7578L33.4033 21.1096L34.7555 20.7132C35.5838 21.0135 37.2524 22.0794 38.0624 23.4564C38.0624 23.4564 38.5992 23.0395 38.3054 22.0913C38.3054 22.0913 39.2872 21.9617 39.7818 21.4001C39.7818 21.4001 39.7483 20.7413 39.1802 20.1138C39.1802 20.1138 39.9967 19.8006 40.2624 19.1947C40.2624 19.1947 39.8034 18.6547 39.0582 18.3837C39.3282 17.6385 39.2072 16.9386 39.2072 16.9386C38.5711 16.755 37.8076 17.1816 37.8076 17.1816C37.6898 16.3425 37.2049 15.8953 37.2049 15.8953C36.4576 15.9137 35.7286 16.5866 35.7286 16.5866C35.1886 15.7517 34.5254 15.8975 34.5254 15.8975C35.0233 17.2853 34.8624 19.2315 34.5114 20.1991L33.4281 20.5177L33.5966 16.4094C34.0697 15.9731 35.6141 15.0173 37.112 14.9385C37.112 14.9385 37.004 14.3412 36.1281 14.1836C36.1281 14.1836 36.4306 13.3487 36.1876 12.7256C36.1876 12.7256 35.6508 12.4804 34.9186 12.6737C34.9186 12.6737 35.006 11.8972 34.6345 11.436C34.6345 11.436 34.0157 11.5786 33.494 12.0592C33.0123 11.5397 32.4075 11.3475 32.4075 11.3475Z" fill="#92BF32"/>
<path fill-rule="evenodd" clip-rule="evenodd" d="M32.4894 11.0903L32.4076 11.3476C32.4894 11.0903 32.4894 11.0903 32.4895 11.0903L32.49 11.0905L32.4909 11.0908L32.4934 11.0916C32.4953 11.0922 32.4978 11.093 32.5008 11.094C32.507 11.0961 32.5153 11.099 32.5257 11.1027C32.5465 11.1102 32.5755 11.1211 32.6114 11.1357C32.683 11.1648 32.7823 11.209 32.8975 11.2705C33.0751 11.3655 33.2944 11.5039 33.5084 11.6955C33.7373 11.5211 33.9672 11.4004 34.1522 11.3199C34.272 11.2678 34.3747 11.2317 34.4485 11.2084C34.4854 11.1968 34.5153 11.1883 34.5367 11.1825C34.5473 11.1796 34.5559 11.1774 34.5622 11.1759C34.5653 11.1751 34.5679 11.1745 34.5698 11.174L34.5723 11.1734L34.5732 11.1732L34.5736 11.1731L34.5738 11.1731C34.5739 11.1731 34.5739 11.173 34.6345 11.4361L34.5739 11.173L34.7387 11.1351L34.8448 11.2668C35.0796 11.5582 35.1581 11.9305 35.1846 12.2017C35.1896 12.2526 35.1928 12.3012 35.1948 12.3468C35.4596 12.3153 35.6908 12.3311 35.8715 12.3608C35.9993 12.3818 36.1024 12.4099 36.1753 12.4335C36.2118 12.4453 36.2409 12.456 36.2618 12.4642C36.2723 12.4683 36.2807 12.4718 36.2871 12.4745C36.2902 12.4759 36.2929 12.477 36.295 12.4779L36.2978 12.4792L36.2989 12.4797L36.2993 12.4799L36.2996 12.48C36.2997 12.48 36.2998 12.4801 36.1876 12.7257L36.2998 12.4801L36.3994 12.5256L36.4391 12.6276C36.5865 13.0055 36.5636 13.4269 36.5157 13.7304C36.5005 13.8266 36.4822 13.9146 36.4642 13.9903C36.7976 14.1005 37.0175 14.2759 37.1586 14.4506C37.2459 14.5587 37.2994 14.6619 37.3316 14.7409C37.3477 14.7805 37.3585 14.8142 37.3657 14.8397C37.3693 14.8525 37.372 14.8633 37.3739 14.8719C37.3749 14.8762 37.3757 14.8799 37.3763 14.883L37.3771 14.8872L37.3775 14.889L37.3776 14.8898L37.3777 14.8902C37.3777 14.8904 37.3778 14.8905 37.1121 14.9386L37.3778 14.8905L37.4323 15.1921L37.1263 15.2082C36.4621 15.2432 35.7765 15.464 35.1838 15.7378C35.3766 15.8247 35.5827 15.9687 35.7778 16.1996C35.8522 16.1443 35.9423 16.0815 36.0445 16.0183C36.3348 15.8388 36.7533 15.6365 37.1983 15.6255L37.3076 15.6229L37.388 15.697L37.2049 15.8955C37.388 15.697 37.388 15.697 37.3881 15.6971L37.3883 15.6973L37.3887 15.6976L37.3896 15.6985L37.3919 15.7007L37.3934 15.702C37.3949 15.7035 37.3966 15.7051 37.3986 15.7071C37.4039 15.7122 37.411 15.7192 37.4195 15.728C37.4366 15.7456 37.4598 15.7704 37.4873 15.8024C37.5422 15.8664 37.6148 15.9593 37.6908 16.0804C37.8025 16.2585 37.9223 16.4985 38.0038 16.7975C38.0602 16.776 38.1224 16.7541 38.189 16.7335C38.4781 16.644 38.889 16.5658 39.2821 16.6793L39.4445 16.7262L39.4733 16.8928L39.2073 16.9387C39.4733 16.8928 39.4733 16.8928 39.4733 16.8929L39.4734 16.8931L39.4734 16.8935L39.4736 16.8944L39.474 16.8971C39.4744 16.8993 39.4749 16.9021 39.4754 16.9056C39.4765 16.9125 39.4779 16.9221 39.4795 16.9341C39.4828 16.9582 39.4869 16.9923 39.4908 17.035C39.4987 17.1202 39.5059 17.2405 39.504 17.3853C39.501 17.615 39.475 17.9111 39.3897 18.2288C39.6881 18.3671 39.9319 18.5367 40.11 18.6814C40.2223 18.7726 40.31 18.8551 40.3703 18.9157C40.4005 18.946 40.424 18.9709 40.4404 18.9888C40.4486 18.9977 40.455 19.005 40.4596 19.0102C40.462 19.0129 40.4638 19.015 40.4653 19.0166L40.467 19.0187L40.4677 19.0195L40.4679 19.0197L40.468 19.0199C40.4681 19.0199 40.4681 19.02 40.2624 19.1949L40.4681 19.02L40.5775 19.1487L40.5097 19.3033C40.3454 19.6779 40.0224 19.9434 39.7687 20.1081C39.7101 20.1461 39.6535 20.1799 39.6008 20.2094C39.7779 20.4633 39.8855 20.7089 39.9507 20.9086C39.9951 21.0445 40.02 21.1597 40.034 21.2428C40.041 21.2844 40.0452 21.318 40.0478 21.3424C40.0491 21.3546 40.0499 21.3645 40.0505 21.3719C40.0508 21.3756 40.051 21.3787 40.0512 21.3811L40.0514 21.3843L40.0514 21.3855L40.0514 21.3861L40.0515 21.3863C40.0515 21.3864 40.0515 21.3865 39.7818 21.4002L40.0515 21.3865L40.057 21.4962L39.9844 21.5787C39.6903 21.9127 39.2673 22.1045 38.9437 22.2125C38.8297 22.2506 38.7239 22.2796 38.6339 22.3014C38.7028 22.6961 38.6421 23.0079 38.5415 23.2378C38.4807 23.3768 38.4076 23.4805 38.3476 23.5513C38.3176 23.5867 38.2907 23.614 38.2698 23.6335C38.2594 23.6433 38.2505 23.6512 38.2434 23.6572C38.2399 23.6603 38.2368 23.6628 38.2342 23.6649L38.2308 23.6677L38.2293 23.6688L38.2287 23.6693L38.2284 23.6696C38.2282 23.6697 38.2281 23.6698 38.0625 23.4565L38.2281 23.6698L37.9855 23.8582L37.8297 23.5934C37.4483 22.945 36.8572 22.359 36.2517 21.8955C35.6868 21.463 35.127 21.1505 34.7443 20.998L33.6652 21.3143L33.5131 25.0387L32.4141 24.9941L32.5662 21.2696L31.5164 20.8662C31.1076 20.9914 30.5187 21.2637 29.9205 21.6519C29.2811 22.0669 28.6528 22.6004 28.2295 23.2016L28.0528 23.4526L27.8264 23.2452L28.0088 23.0461C27.8264 23.2452 27.8262 23.2451 27.8261 23.245L27.8258 23.2447L27.8252 23.2442L27.8239 23.2429L27.8206 23.2399C27.8183 23.2376 27.8154 23.2348 27.8121 23.2315C27.8056 23.2249 27.7973 23.2163 27.7877 23.2057C27.7685 23.1845 27.7439 23.1551 27.7168 23.1174C27.6628 23.042 27.5984 22.9327 27.5491 22.7892C27.4676 22.5518 27.4325 22.236 27.5336 21.848C27.4457 21.8189 27.3425 21.7812 27.232 21.7339C26.9185 21.5995 26.5127 21.3738 26.2469 21.0173L26.1811 20.9291L26.1957 20.8201L26.4633 20.8559C26.1957 20.8201 26.1957 20.82 26.1957 20.8199L26.1957 20.8196L26.1958 20.8191L26.196 20.8179L26.1964 20.8147C26.1968 20.8123 26.1972 20.8093 26.1978 20.8056C26.199 20.7983 26.2007 20.7885 26.203 20.7764C26.2075 20.7524 26.2145 20.7192 26.2249 20.6783C26.2456 20.5967 26.2799 20.484 26.3353 20.3522C26.4167 20.1586 26.5441 19.9228 26.7414 19.6843C26.6914 19.6506 26.6377 19.6123 26.5824 19.5697C26.3429 19.3849 26.0424 19.0939 25.9089 18.7074L25.8537 18.5475L25.9734 18.4281L26.1641 18.6192C25.9734 18.4281 25.9735 18.428 25.9735 18.428L25.9746 18.4269L25.9766 18.425C25.9781 18.4235 25.9801 18.4215 25.9827 18.419C25.9877 18.4142 25.9947 18.4075 26.0037 18.3992C26.0215 18.3827 26.0469 18.3598 26.0795 18.332C26.1447 18.2766 26.2388 18.2015 26.3583 18.1198C26.5477 17.9902 26.8045 17.8411 27.1132 17.728C27.0541 17.4041 27.0525 17.1068 27.0683 16.8776C27.0783 16.7331 27.0954 16.6138 27.1102 16.5295C27.1177 16.4873 27.1246 16.4537 27.1298 16.43C27.1324 16.4181 27.1346 16.4087 27.1362 16.4019C27.1371 16.3984 27.1377 16.3957 27.1383 16.3936L27.1389 16.3909L27.1392 16.39L27.1393 16.3896L27.1393 16.3894C27.1393 16.3893 27.1394 16.3893 27.4007 16.4571L27.1394 16.3893L27.1818 16.2257L27.3475 16.1924C27.749 16.1116 28.1519 16.223 28.4326 16.3357C28.4973 16.3617 28.5574 16.3886 28.6117 16.4146C28.7176 16.1234 28.8567 15.894 28.9826 15.7257C29.0682 15.6113 29.1481 15.5246 29.2081 15.4654C29.2381 15.4358 29.2632 15.413 29.2816 15.3968C29.2909 15.3888 29.2985 15.3824 29.3042 15.3777C29.3071 15.3753 29.3095 15.3733 29.3114 15.3718L29.3139 15.3698L29.3148 15.3691L29.3152 15.3687L29.3154 15.3686C29.3155 15.3685 29.3156 15.3685 29.4819 15.5812L29.3156 15.3685L29.4019 15.301L29.5107 15.3127C29.9531 15.3603 30.3536 15.5962 30.6282 15.7989C30.7249 15.8703 30.8096 15.9402 30.8792 16.0014C31.0919 15.7879 31.3085 15.6615 31.5074 15.5907C30.9235 15.2631 30.2527 14.9901 29.6162 14.9037L29.3126 14.8625L29.3917 14.5665L29.6525 14.6362C29.3917 14.5665 29.3917 14.5663 29.3917 14.5662L29.3918 14.5658L29.3921 14.565L29.3925 14.5633L29.3937 14.5591C29.3946 14.5561 29.3957 14.5524 29.397 14.5483C29.3997 14.5399 29.4032 14.5294 29.4078 14.5169C29.4171 14.492 29.4307 14.4593 29.4499 14.4212C29.4885 14.3451 29.5502 14.2466 29.646 14.146C29.8009 13.9835 30.0344 13.8267 30.3756 13.7442C30.3638 13.6673 30.3527 13.5783 30.3454 13.4812C30.3224 13.1748 30.3338 12.7531 30.5113 12.3883L30.5592 12.2898L30.6622 12.2525L30.7541 12.5064C30.6622 12.2525 30.6623 12.2525 30.6624 12.2525L30.6627 12.2524L30.6631 12.2522L30.6643 12.2518L30.6671 12.2508C30.6693 12.25 30.6721 12.2491 30.6753 12.248C30.6819 12.2458 30.6906 12.243 30.7014 12.2398C30.7229 12.2333 30.7528 12.225 30.7901 12.2162C30.8647 12.1986 30.9698 12.179 31.0989 12.1685C31.2815 12.1536 31.5132 12.1566 31.7745 12.2097C31.7802 12.1643 31.7875 12.116 31.7966 12.0656C31.8451 11.7974 31.9539 11.4325 32.212 11.1614L32.3285 11.0391L32.4894 11.0903ZM32.293 12.5502L32.293 12.5503L32.293 12.5506L32.305 12.9445L31.933 12.8128C31.6187 12.7015 31.3407 12.6905 31.1429 12.7067C31.0659 12.713 31.0014 12.7234 30.9521 12.7334C30.8772 12.9511 30.8665 13.2087 30.8839 13.4408C30.8938 13.5728 30.9121 13.6881 30.9279 13.7701C30.9358 13.8109 30.943 13.8431 30.948 13.8644C30.9505 13.8751 30.9525 13.883 30.9538 13.8879L30.9552 13.8935L30.9552 13.8936L30.9553 13.8938L31.0394 14.2025L30.7206 14.2332C30.4188 14.2623 30.2306 14.3564 30.1139 14.4486C30.7098 14.5905 31.2957 14.85 31.8006 15.1361C32.4243 15.4893 32.9488 15.8971 33.2347 16.2071L33.3105 16.2894L33.122 20.8857L31.5891 20.2952L31.5531 20.1634C31.4202 19.6765 31.3429 18.9298 31.3788 18.1283C31.4086 17.4604 31.5178 16.737 31.7501 16.0799C31.5801 16.1267 31.3481 16.2472 31.1106 16.5558L30.9151 16.81L30.6982 16.5743L30.6981 16.5742L30.698 16.574L30.6975 16.5735L30.6932 16.569C30.6892 16.5647 30.6827 16.558 30.674 16.5491C30.6565 16.5314 30.6301 16.5052 30.5958 16.4731C30.5269 16.4088 30.4278 16.3221 30.3076 16.2334C30.0922 16.0744 29.8313 15.9255 29.5687 15.8685C29.5272 15.9111 29.4733 15.9713 29.415 16.0492C29.2798 16.2299 29.1224 16.5038 29.0389 16.873L28.952 17.2574L28.6254 17.0378L28.6249 17.0375L28.6248 17.0374L28.6206 17.0347C28.6166 17.0321 28.6099 17.0279 28.6009 17.0223C28.583 17.0112 28.5556 16.9947 28.5205 16.9751C28.4499 16.9357 28.3495 16.8843 28.2313 16.8368C28.0429 16.7611 27.8305 16.704 27.6291 16.7048C27.6207 16.7633 27.6126 16.8342 27.607 16.9148C27.5899 17.162 27.5974 17.4933 27.6915 17.8387L27.7624 18.0992L27.502 18.1702C27.1569 18.2642 26.8677 18.4255 26.6633 18.5654C26.5967 18.611 26.5397 18.6539 26.4935 18.6907C26.5947 18.8641 26.7514 19.018 26.9123 19.1422C27.0133 19.2201 27.1086 19.2807 27.1785 19.3217C27.2133 19.3421 27.2414 19.3574 27.2601 19.3673C27.2695 19.3722 27.2765 19.3758 27.2809 19.378L27.2853 19.3802L27.2855 19.3803L27.2856 19.3803L27.2857 19.3804L27.2859 19.3805L27.6408 19.5511L27.3531 19.8206C27.0771 20.0793 26.9205 20.3536 26.8331 20.5615C26.7955 20.6509 26.7709 20.7277 26.7552 20.785C26.9381 20.9825 27.1988 21.1322 27.4447 21.2375C27.582 21.2963 27.7068 21.338 27.797 21.3649C27.8419 21.3783 27.8779 21.3878 27.902 21.394C27.914 21.397 27.9231 21.3992 27.9288 21.4005L27.9348 21.4019L27.9355 21.4021L27.9356 21.4021L27.9358 21.4021L28.2478 21.4701L28.1286 21.7666C27.9832 22.1281 27.9973 22.3896 28.0434 22.5601C28.4939 22.0251 29.0652 21.5633 29.6265 21.199C30.2997 20.7621 30.9803 20.4513 31.4574 20.3211L31.5427 20.2978L33.1216 20.9045L32.9757 24.4764L32.9955 24.4772L33.1415 20.9051L34.7644 20.4294L34.8475 20.4595C35.294 20.6213 35.9423 20.9785 36.58 21.4668C37.1138 21.8754 37.6543 22.3866 38.0676 22.9689C38.1275 22.8026 38.1628 22.5432 38.0476 22.1713L37.9529 21.8656L38.2698 21.8238L38.2699 21.8238L38.2701 21.8237L38.2708 21.8236L38.2769 21.8228C38.2827 21.8219 38.2919 21.8205 38.3042 21.8184C38.3287 21.8143 38.3653 21.8078 38.4112 21.7981C38.5032 21.7788 38.631 21.7476 38.7726 21.7003C39.0263 21.6156 39.2983 21.4879 39.4967 21.3057C39.4858 21.2473 39.4676 21.1686 39.4374 21.0762C39.3674 20.8617 39.2339 20.5755 38.9801 20.2952L38.7156 20.003L39.0831 19.862L39.0833 19.8619L39.0834 19.8619L39.0836 19.8619L39.0837 19.8618L39.0884 19.8599C39.0909 19.8589 39.0942 19.8575 39.0984 19.8558C39.1017 19.8544 39.1056 19.8528 39.1099 19.851C39.1294 19.8426 39.1586 19.8297 39.1949 19.8122C39.2679 19.7771 39.3678 19.7245 39.4747 19.6551C39.6451 19.5445 39.8137 19.4039 39.9285 19.2393C39.8854 19.1988 39.8322 19.1514 39.7695 19.1005C39.5773 18.9444 39.3023 18.7599 38.9659 18.6375L38.7125 18.5453L38.8044 18.2918C38.9262 17.9556 38.9608 17.6262 38.964 17.3783C38.9651 17.2974 38.9628 17.226 38.9593 17.1669C38.7591 17.1497 38.5429 17.1892 38.3487 17.2493C38.2269 17.287 38.1224 17.3301 38.0487 17.3637C38.012 17.3804 37.9834 17.3945 37.9645 17.4042C37.9551 17.409 37.9481 17.4127 37.9438 17.415L37.9394 17.4174L37.9393 17.4174L37.9392 17.4175L37.9391 17.4176L37.9389 17.4176L37.595 17.6098L37.5402 17.2193C37.4876 16.8443 37.3533 16.5584 37.2334 16.3674C37.1816 16.2849 37.1328 16.2204 37.0949 16.1747C36.8284 16.2098 36.5562 16.3368 36.3285 16.4776C36.2015 16.5561 36.0956 16.6344 36.0218 16.6929C35.985 16.7221 35.9565 16.746 35.9376 16.7623C35.9282 16.7704 35.9212 16.7765 35.9168 16.7805L35.9122 16.7846L35.9117 16.7851L35.9116 16.7852L35.9115 16.7853L35.6761 17.0026L35.5019 16.7333C35.29 16.4058 35.0684 16.2665 34.9027 16.2059C35.0703 16.8461 35.1252 17.553 35.1067 18.2135C35.0842 19.0144 34.9532 19.7731 34.7652 20.2913L34.7187 20.4197L33.143 20.8832L33.3315 16.2868L33.4136 16.2111C33.6751 15.9699 34.2039 15.608 34.8533 15.2966C35.3865 15.0408 36.0177 14.811 36.6669 14.7132C36.558 14.612 36.3783 14.503 36.0803 14.4494L35.7653 14.3927L35.8742 14.0921L35.8742 14.0919L35.8743 14.0917L35.8745 14.0913L35.8762 14.0863C35.8779 14.0815 35.8805 14.0737 35.8839 14.0633C35.8906 14.0424 35.9004 14.011 35.9116 13.9709C35.934 13.8905 35.9617 13.7771 35.9823 13.6463C36.0186 13.4163 36.0289 13.1587 35.9718 12.9358C35.9236 12.9218 35.8601 12.9062 35.7839 12.8937C35.588 12.8615 35.31 12.8497 34.9875 12.9349L34.6061 13.0356L34.6502 12.6442L34.6502 12.644L34.6503 12.6438L34.6503 12.6437L34.6503 12.6436L34.6507 12.6395C34.6511 12.6354 34.6517 12.6285 34.6524 12.6193C34.6538 12.6008 34.6555 12.5727 34.6566 12.5372C34.6587 12.4658 34.6581 12.3661 34.6472 12.2541C34.6305 12.0834 34.5918 11.9049 34.5182 11.755C34.474 11.771 34.4232 11.7909 34.3677 11.8151C34.1663 11.9027 33.9094 12.0438 33.677 12.2579L33.4791 12.4402L33.2961 12.2429C33.0814 12.0114 32.8366 11.8503 32.6429 11.7468C32.5894 11.7182 32.5403 11.6942 32.4975 11.6746C32.4118 11.818 32.3585 11.9928 32.3279 12.1618C32.3079 12.2726 32.2991 12.372 32.2954 12.4434C32.2936 12.4789 32.293 12.507 32.2929 12.5256C32.2928 12.5349 32.2929 12.5418 32.2929 12.5459L32.293 12.5501L32.293 12.5502ZM34.3393 16.1964C34.5213 16.8058 34.586 17.5169 34.5669 18.1984C34.5475 18.8909 34.4423 19.5315 34.3007 19.9798L33.7134 20.1525L33.8617 16.5367C33.9778 16.4404 34.1405 16.3223 34.3393 16.1964ZM28.1944 22.8501C28.1945 22.8502 28.1945 22.8502 28.1943 22.85L28.1944 22.8501ZM32.3134 16.1146C32.0678 16.7404 31.9489 17.466 31.9182 18.1524C31.8875 18.8395 31.9459 19.4669 32.0417 19.8909L32.6133 20.1111L32.7616 16.4947C32.6469 16.3814 32.4947 16.2512 32.3134 16.1146Z" fill="#333333"/>
<path d="M15.3555 18.0782V21.316L10.9491 24.7461C9.92527 25.5431 9.64771 26.9731 10.299 28.0952C10.7634 28.8944 11.6176 29.3868 12.5421 29.3868H18.8309V17.4907H15.943C15.619 17.4907 15.3555 17.7542 15.3555 18.0782Z" fill="#F4D9B2"/>
<path d="M22.3075 18.0782V21.316L26.7139 24.7461C27.7378 25.5431 28.0153 26.9731 27.3641 28.0952C26.8997 28.8944 26.0454 29.3868 25.1209 29.3868H18.8321V17.4907H21.72C22.044 17.4907 22.3075 17.7542 22.3075 18.0782Z" fill="#D9B27E"/>
<path d="M15.6018 22.6012L12.7323 24.9448C12.5584 25.0863 12.4579 25.299 12.4579 25.5226C12.4579 25.9351 12.7917 26.2689 13.2042 26.2689C13.4029 26.2689 13.8015 26.2689 13.8015 26.2689C14.0725 26.2689 14.322 26.122 14.4538 25.8855L16.2844 22.6001H15.6018V22.6012Z" fill="#DAAD74"/>
<path d="M17.3321 22.6012L16.1603 25.3357C15.7726 26.2419 17.2532 26.6944 17.4336 25.7213L18.0136 22.6001H17.3321V22.6012Z" fill="#DAAD74"/>
<path d="M22.0602 22.6012L24.9297 24.9448C25.1036 25.0863 25.204 25.299 25.204 25.5226C25.204 25.9351 24.8703 26.2689 24.4578 26.2689H23.8605C23.5894 26.2689 23.34 26.122 23.2082 25.8855L21.3776 22.6001H22.0602V22.6012Z" fill="#BA884F"/>
<path d="M20.3311 22.6012L21.5029 25.3357C21.8917 26.2429 20.4099 26.6933 20.2296 25.7213L19.6496 22.6001H20.3311V22.6012Z" fill="#BA884F"/>
<path d="M35.0083 18.0782V21.316L30.6019 24.7461C29.5781 25.5431 29.3005 26.9731 29.9518 28.0952C30.4162 28.8944 31.2704 29.3868 32.1949 29.3868H38.4838V17.4907H35.5958C35.2708 17.4907 35.0083 17.7542 35.0083 18.0782Z" fill="#F4D9B2"/>
<path d="M41.9592 18.0782V21.316L46.3657 24.7461C47.3895 25.5431 47.6671 26.9731 47.0158 28.0952C46.5514 28.8944 45.6971 29.3868 44.7726 29.3868H38.4838V17.4907H41.3717C41.6968 17.4907 41.9592 17.7542 41.9592 18.0782Z" fill="#D9B27E"/>
<path d="M35.2546 22.6012L32.3851 24.9448C32.2112 25.0863 32.1107 25.299 32.1107 25.5226C32.1107 25.9351 32.4445 26.2689 32.857 26.2689C33.0557 26.2689 33.4543 26.2689 33.4543 26.2689C33.7253 26.2689 33.9748 26.122 34.1066 25.8855L35.9372 22.6001H35.2546V22.6012Z" fill="#DAAD74"/>
<path d="M36.9838 22.6012L35.812 25.3357C35.4243 26.2419 36.9049 26.6944 37.0853 25.7213L37.6653 22.6001H36.9838V22.6012Z" fill="#DAAD74"/>
<path d="M41.713 22.6012L44.5825 24.9448C44.7564 25.0863 44.8568 25.299 44.8568 25.5226C44.8568 25.9351 44.5231 26.2689 44.1106 26.2689H43.5133C43.2422 26.2689 42.9928 26.122 42.861 25.8855L41.0304 22.6001H41.713V22.6012Z" fill="#BA884F"/>
<path d="M39.9839 22.6012L41.1557 25.3357C41.5445 26.2429 40.0627 26.6933 39.8823 25.7213L39.3024 22.6001H39.9839V22.6012Z" fill="#BA884F"/>
<path fill-rule="evenodd" clip-rule="evenodd" d="M34.9694 18.1906C34.9694 17.7261 35.3462 17.3492 35.8107 17.3492H41.4267C41.8912 17.3492 42.268 17.7261 42.268 18.1906V21.2068L46.4481 24.4607C46.4482 24.4607 46.4482 24.4607 46.4482 24.4607C47.5506 25.3181 47.8493 26.8579 47.15 28.0653L47.1498 28.0655C46.6501 28.9264 45.7295 29.456 44.7347 29.456H32.5048C31.5089 29.456 30.5894 28.9263 30.0897 28.0655C29.3892 26.8582 29.6867 25.3181 30.7893 24.4607L34.9694 21.2068V18.1906ZM35.8107 17.8892C35.6444 17.8892 35.5094 18.0243 35.5094 18.1906V21.4707L31.1208 24.8869C30.2318 25.5782 29.9915 26.8202 30.5567 27.7944C30.9598 28.4888 31.7014 28.916 32.5048 28.916H44.7347C45.5371 28.916 46.2797 28.4888 46.6828 27.7944C47.2469 26.8203 47.0057 25.5783 46.1166 24.8869L46.1165 24.8869L41.728 21.4707V18.1906C41.728 18.0243 41.5929 17.8892 41.4267 17.8892H35.8107Z" fill="#333333"/>
<path fill-rule="evenodd" clip-rule="evenodd" d="M14.9894 18.1906C14.9894 17.7261 15.3662 17.3492 15.8307 17.3492H21.4467C21.9112 17.3492 22.288 17.7261 22.288 18.1906V21.2068L26.4681 24.4607C26.4682 24.4607 26.4682 24.4607 26.4682 24.4607C27.5706 25.3181 27.8693 26.8579 27.17 28.0653L27.1698 28.0655C26.6701 28.9264 25.7495 29.456 24.7547 29.456H12.5248C11.5289 29.456 10.6095 28.9263 10.1097 28.0655C9.40921 26.8582 9.70668 25.3181 10.8093 24.4607L14.9894 21.2068V18.1906ZM15.8307 17.8892C15.6645 17.8892 15.5294 18.0243 15.5294 18.1906V21.4707L11.1408 24.8869C10.2519 25.5782 10.0115 26.8202 10.5767 27.7944C10.9799 28.4888 11.7214 28.916 12.5248 28.916H24.7547C25.5571 28.916 26.2997 28.4888 26.7028 27.7944C27.2669 26.8203 27.0257 25.5783 26.1366 24.8869L26.1365 24.8869L21.748 21.4707V18.1906C21.748 18.0243 21.6129 17.8892 21.4467 17.8892H15.8307Z" fill="#333333"/>
<path d="M24.4643 20.5631V24.4695L19.1474 28.6081C17.9119 29.5693 17.5771 31.2951 18.3634 32.6483C18.9228 33.6128 19.9542 34.2068 21.0698 34.2068H28.6579V19.8536H25.1728C24.7807 19.8547 24.4643 20.1722 24.4643 20.5631Z" fill="#F4D9B2"/>
<path d="M32.8516 20.5631V24.4695L38.1684 28.6081C39.404 29.5693 39.7388 31.2951 38.9525 32.6483C38.3931 33.6128 37.3617 34.2068 36.246 34.2068H28.658V19.8536H32.1431C32.5341 19.8547 32.8516 20.1722 32.8516 20.5631Z" fill="#D9B27E"/>
<path d="M24.7613 26.0203L21.2988 28.8477C21.0893 29.0183 20.9683 29.2743 20.9683 29.5454C20.9683 30.0422 21.3711 30.4461 21.869 30.4461C22.1088 30.4461 22.5894 30.4461 22.5894 30.4461C22.9155 30.4461 23.2169 30.269 23.3756 29.9839L25.5842 26.0203H24.7613Z" fill="#DAAD74"/>
<path d="M26.8478 26.0203L25.4341 29.3197C24.9653 30.4126 26.7527 30.9591 26.9709 29.7851L27.6707 26.0203H26.8478Z" fill="#DAAD74"/>
<path d="M32.5536 26.0203L36.016 28.8477C36.2256 29.0183 36.3465 29.2743 36.3465 29.5454C36.3465 30.0422 35.9437 30.4461 35.4458 30.4461H34.7254C34.3982 30.4461 34.098 30.269 33.9392 29.9839L31.7306 26.0203H32.5536Z" fill="#BA884F"/>
<path d="M30.4668 26.0203L31.8816 29.3197C32.3504 30.4137 30.5619 30.958 30.3448 29.7852L29.646 26.0203H30.4668Z" fill="#BA884F"/>
<path fill-rule="evenodd" clip-rule="evenodd" d="M23.9804 20.5329C23.9804 19.9931 24.4175 19.5544 24.9589 19.5544H31.9292C32.4698 19.5544 32.9088 19.9912 32.9088 20.5329V24.3073L38.1214 28.3647C39.4634 29.4088 39.8273 31.2835 38.9722 32.7536M24.9589 20.0944C24.7162 20.0944 24.5204 20.2908 24.5204 20.5329V24.5713L19.0994 28.7909C17.9705 29.6692 17.6646 31.246 18.3829 32.4825C18.8952 33.3639 19.8367 33.9066 20.856 33.9066H36.0321C37.0515 33.9066 37.9939 33.3638 38.5051 32.4826L38.5052 32.4823C39.2246 31.246 38.9187 29.6692 37.7898 28.7909L32.3688 24.5713V20.5329C32.3688 20.2905 32.1727 20.0944 31.9292 20.0944H24.9589ZM23.9804 20.5329V24.3073V20.5329ZM23.9804 24.3073L18.7678 28.3647C18.7678 28.3647 18.7677 28.3648 18.7678 28.3647C17.4257 29.4089 17.0619 31.2837 17.916 32.7538C18.5248 33.8012 19.644 34.4466 20.856 34.4466H36.0321C37.244 34.4466 38.3644 33.8013 38.9722 32.7536" fill="#333333"/>
<path d="M27 54C41.9117 54 54 41.9117 54 27C54 12.0883 41.9117 0 27 0C12.0883 0 0 12.0883 0 27C0 41.9117 12.0883 54 27 54Z" fill="#FFD74A"/>
<path d="M40.7419 34.1161C40.7419 36.8615 35.3311 39.0874 28.6578 39.0874C21.9834 39.0874 16.5737 36.8615 16.5737 34.1161C16.5737 31.3708 21.9845 29.1438 28.6578 29.1438C35.3311 29.1449 40.7419 31.3708 40.7419 34.1161Z" fill="#C1C1C1"/>
<path d="M28.6578 39.3584C21.7307 39.3584 16.3037 37.0559 16.3037 34.1172C16.3037 31.1774 21.7307 28.8749 28.6578 28.8749C35.5849 28.8749 41.0119 31.1774 41.0119 34.1172C41.0119 37.0559 35.5849 39.3584 28.6578 39.3584ZM28.6578 29.4149C25.4642 29.4149 22.4662 29.9246 20.2154 30.8502C18.0727 31.7315 16.8437 32.9227 16.8437 34.1161C16.8437 35.3095 18.0727 36.4997 20.2154 37.382C22.4662 38.3076 25.4642 38.8174 28.6578 38.8174C31.8514 38.8174 34.8494 38.3076 37.1002 37.382C39.2429 36.5008 40.4719 35.3095 40.4719 34.1161C40.4719 32.9227 39.2429 31.7315 37.1002 30.8502C34.8494 29.9246 31.8514 29.4149 28.6578 29.4149Z" fill="#333333"/>
<path d="M28.6578 37.8994C39.5392 37.8994 48.3602 33.9073 48.3602 28.9829C48.3602 24.0585 39.5392 20.0664 28.6578 20.0664C17.7764 20.0664 8.95535 24.0585 8.95535 28.9829C8.95535 33.9073 17.7764 37.8994 28.6578 37.8994Z" fill="white"/>
<path d="M28.6578 20.0664C39.5388 20.0664 48.3602 24.0581 48.3602 28.9829C48.3602 33.9077 39.5388 37.8994 28.6578 37.8994C17.7768 37.8994 8.95534 33.9077 8.95534 28.9829C8.95534 24.0581 17.7757 20.0664 28.6578 20.0664ZM28.6578 19.5264C23.3204 19.5264 18.293 20.4714 14.5033 22.1854C10.5775 23.962 8.41534 26.3758 8.41534 28.9818C8.41534 31.5879 10.5775 34.0017 14.5033 35.7783C18.293 37.4933 23.3194 38.4372 28.6578 38.4372C33.9962 38.4372 39.0226 37.4922 42.8123 35.7783C46.7381 34.0017 48.9002 31.5879 48.9002 28.9818C48.9002 26.3758 46.7381 23.962 42.8123 22.1854C39.0226 20.4714 33.9952 19.5264 28.6578 19.5264Z" fill="#333333"/>
<path d="M28.6578 34.452C36.533 34.452 42.917 31.8255 42.917 28.5854C42.917 25.3454 36.533 22.7189 28.6578 22.7189C20.7826 22.7189 14.3986 25.3454 14.3986 28.5854C14.3986 31.8255 20.7826 34.452 28.6578 34.452Z" fill="white"/>
<path d="M20.6507 32.5468C18.8913 32.5134 16.916 31.4928 16.1309 30.8178L15.7723 29.2723L19.2704 27.1101L18.9389 26.5734L15.4407 28.7355L14.2182 27.7236C13.9763 26.7613 13.9179 24.5322 14.6923 22.9079C14.6923 22.9079 13.9655 22.6692 13.2656 23.5429C13.2656 23.5429 12.5247 22.7081 11.6899 22.6011C11.6899 22.6011 11.097 23.0483 10.8702 23.9738C10.8702 23.9738 10.0634 23.4101 9.33009 23.5451C9.33009 23.5451 9.11517 24.314 9.33333 25.1802C8.46825 25.3983 7.89153 25.9524 7.89153 25.9524C8.12265 26.6619 9.00069 27.1047 9.00069 27.1047C8.29221 27.7441 8.18097 28.4785 8.18097 28.4785C8.67021 29.1632 9.75777 29.4202 9.75777 29.4202C9.31929 30.4506 9.87441 30.9765 9.87441 30.9765C10.8561 29.6362 12.7721 28.5584 13.8963 28.2754L14.877 29.0854L10.9382 31.5208C10.233 31.3545 8.36565 30.5175 7.34721 29.1697C7.34721 29.1697 6.85798 29.647 7.26406 30.5629C7.26406 30.5629 6.29421 30.807 5.86653 31.4269C5.86653 31.4269 5.97669 32.0824 6.6193 32.644C6.6193 32.644 5.83953 33.0534 5.64297 33.6906C5.64297 33.6906 6.1657 34.1787 6.9433 34.3623C6.75969 35.1399 6.96274 35.8257 6.96274 35.8257C7.62046 35.9359 8.33541 35.4207 8.33541 35.4207C8.55033 36.2469 9.08818 36.6379 9.08818 36.6379C9.83446 36.532 10.4857 35.7739 10.4857 35.7739C11.124 36.5461 11.7698 36.3225 11.7698 36.3225C11.0711 34.9131 11.0721 32.9043 11.2719 32.0598L15.2107 29.6244L15.4969 30.8631C14.8068 31.6656 13.0129 32.9583 11.2827 33.2532C11.2827 33.2532 11.5063 33.9843 12.623 34.0534C12.623 34.0534 12.366 35.141 12.7602 35.884C12.7602 35.884 13.4665 36.113 14.3553 35.7652C14.3553 35.7652 14.3586 36.7491 14.8899 37.2729C14.8899 37.2729 15.6427 37.0051 16.2259 36.329C16.9031 36.9111 17.6871 37.0634 17.6871 37.0634C18.1353 36.4672 17.9917 35.4931 17.9917 35.4931C18.9216 35.7048 19.5869 35.3743 19.5869 35.3743C19.8644 34.5794 19.4497 33.5437 19.4497 33.5437C20.5394 33.3039 20.6507 32.5468 20.6507 32.5468Z" fill="#7AA229"/>
<path d="M14.8176 37.5818L14.6966 37.463C14.3057 37.0775 14.1631 36.4986 14.1113 36.126C13.3077 36.3388 12.7019 36.1487 12.6738 36.14L12.5701 36.1066L12.5193 36.0094C12.2126 35.4305 12.2515 34.6918 12.3055 34.2868C11.9167 34.2187 11.6402 34.0708 11.4458 33.9131C11.5009 34.668 11.6629 35.505 12.0085 36.2016L12.1446 36.4759L11.8551 36.5764C11.8249 36.5872 11.1618 36.8053 10.4792 36.1627C10.2071 36.4187 9.69731 36.8226 9.12383 36.9036L9.01583 36.9187L8.92727 36.8539C8.90567 36.8377 8.45639 36.504 8.18315 35.8225C7.87967 35.9802 7.39367 36.1692 6.91739 36.0893L6.75107 36.0612L6.70355 35.8992C6.69491 35.8711 6.52427 35.2782 6.63227 34.5514C5.93459 34.3224 5.47991 33.9044 5.45831 33.885L5.33411 33.7694L5.38379 33.6074C5.52635 33.1452 5.91191 32.7964 6.18947 32.5955C5.70239 32.0468 5.60411 31.495 5.59979 31.469L5.58143 31.361L5.64407 31.2714C5.97347 30.794 6.56207 30.5197 6.91307 30.3901C6.64415 29.4926 7.13555 28.9969 7.15931 28.9742L7.37855 28.7604L7.56323 29.0056C8.03195 29.6255 8.70803 30.146 9.35927 30.5316C9.30419 30.2875 9.29663 29.9743 9.40895 29.5952C9.02231 29.4624 8.34407 29.1676 7.96391 28.634L7.90019 28.5444L7.91639 28.4364C7.92071 28.4062 8.02223 27.7808 8.57195 27.1566C8.26199 26.9438 7.80731 26.5572 7.63775 26.0345L7.58483 25.8736L7.70687 25.7558C7.73063 25.7332 8.23715 25.2526 9.02015 24.989C8.88083 24.1736 9.06335 23.5008 9.07199 23.4695L9.11735 23.3064L9.28367 23.2762C9.82367 23.1768 10.3799 23.3939 10.7147 23.5656C11.003 22.7869 11.5063 22.4003 11.5301 22.3819L11.6175 22.316L11.7266 22.3301C12.3768 22.4132 12.9589 22.8701 13.2581 23.1476C14.0043 22.4068 14.7452 22.6379 14.7798 22.6487L15.0714 22.7437L14.9396 23.0213C14.2355 24.4976 14.2387 26.5648 14.4633 27.5702L15.4667 28.4008L19.0296 26.1986L19.6452 27.1944L16.0823 29.3965L16.376 30.6655C17.1741 31.3168 19.0209 32.2434 20.6582 32.2736L20.9649 32.279L20.9196 32.5825C20.9142 32.6182 20.7889 33.3839 19.7931 33.7208C19.9065 34.1129 20.0556 34.8365 19.8396 35.4553L19.8029 35.559L19.7046 35.6076C19.6776 35.6206 19.1063 35.897 18.2811 35.8074C18.2855 36.1843 18.2315 36.7794 17.901 37.2179L17.7995 37.3529L17.6331 37.3205C17.6018 37.314 16.9171 37.1768 16.2507 36.6876C15.6643 37.2708 15.0087 37.5095 14.9774 37.5203L14.8176 37.5818ZM14.6199 35.3689L14.621 35.7631C14.621 35.7707 14.6297 36.4856 14.9612 36.9446C15.1988 36.8312 15.6481 36.5785 16.0175 36.1508L16.1935 35.9467L16.3976 36.1228C16.8264 36.491 17.3081 36.6736 17.5597 36.7502C17.7735 36.3312 17.7519 35.7437 17.7206 35.5298L17.6634 35.14L18.0479 35.2274C18.6743 35.37 19.1603 35.2426 19.3611 35.1713C19.5296 34.4974 19.1981 33.6506 19.1948 33.642L19.0771 33.345L19.3892 33.277C19.859 33.1754 20.1107 32.9692 20.2424 32.7953C18.5231 32.6344 16.7367 31.6948 15.9559 31.0241L15.8889 30.9668L15.4677 29.146L18.9 27.0216L18.8525 26.9438L15.4191 29.066L13.9795 27.8748L13.9579 27.7895C13.7063 26.7905 13.6652 24.772 14.2895 23.1628C14.0756 23.2038 13.7775 23.3356 13.4773 23.7114L13.2775 23.9609L13.0647 23.7222C13.0583 23.7157 12.4502 23.0407 11.772 22.8895C11.6175 23.0396 11.2838 23.422 11.1326 24.0386L11.0387 24.421L10.7157 24.1952C10.7093 24.1909 10.1293 23.7935 9.56771 23.7935C9.56231 23.7935 9.55799 23.7935 9.55259 23.7935C9.50831 24.0527 9.45647 24.5657 9.59363 25.1143L9.65951 25.3757L9.39815 25.4416C8.85059 25.5798 8.42399 25.8682 8.21555 26.0312C8.43587 26.4481 8.92835 26.7667 9.12059 26.8639L9.47267 27.041L9.17999 27.3046C8.70911 27.7301 8.53091 28.2053 8.47151 28.4126C8.92511 28.9375 9.80855 29.1535 9.81827 29.1557L10.1293 29.2302L10.0051 29.524C9.81611 29.9678 9.84095 30.2918 9.90683 30.5003C10.935 29.308 12.6781 28.3025 13.8283 28.013L13.9611 27.9796L15.3371 29.1168L10.9825 31.8082L10.8734 31.7822C10.2081 31.6256 8.50283 30.8869 7.39475 29.6525C7.35263 29.8339 7.35263 30.0996 7.50815 30.4528L7.63775 30.7454L7.32671 30.8232C7.31915 30.8254 6.55235 31.0252 6.15707 31.4863C6.21539 31.6732 6.38063 32.0792 6.79319 32.44L7.09019 32.6992L6.74135 32.8828C6.73595 32.886 6.19595 33.1754 5.96591 33.6064C6.15815 33.7489 6.53075 33.9865 7.00271 34.0978L7.26515 34.1593L7.20359 34.4218C7.09235 34.8926 7.13879 35.3333 7.17983 35.5687C7.66907 35.5568 8.16803 35.2026 8.17451 35.1983L8.49419 34.9693L8.59355 35.3495C8.73071 35.8776 9.01907 36.207 9.16163 36.3442C9.65195 36.22 10.1261 35.7696 10.2773 35.5946L10.4857 35.3516L10.6898 35.599C10.935 35.896 11.1737 36.0148 11.3551 36.058C10.7978 34.6378 10.8043 32.8439 11.0041 31.9939L11.03 31.8848L15.3846 29.1935L15.7863 30.9334L15.6967 31.037C15.0239 31.82 13.3952 33.0178 11.7191 33.4346C11.8757 33.5858 12.1543 33.7522 12.6349 33.7824L12.9546 33.8018L12.8811 34.114C12.879 34.1226 12.677 35.0104 12.9438 35.6508C13.1555 35.6908 13.6598 35.7448 14.2517 35.5126L14.6199 35.3689ZM11.5074 32.2261C11.4717 32.4162 11.4437 32.6624 11.4307 32.9476C12.9578 32.6203 14.5152 31.5209 15.1977 30.7865L15.0282 30.051L11.5074 32.2261ZM10.2125 30.9766C10.4727 31.0921 10.706 31.1774 10.8918 31.2304L14.4126 29.0542L13.8305 28.5725C12.7213 28.8932 11.111 29.8588 10.2125 30.9766Z" fill="#333333"/>
<path d="M45.1094 37.4555C44.9669 36.8809 44.2951 36.4802 44.2951 36.4802C44.8924 36.0137 45.0209 35.438 45.0209 35.438C44.6709 34.8678 43.8242 34.6043 43.8242 34.6043C44.2282 33.8115 43.8178 33.3644 43.8178 33.3644C42.916 34.4304 41.2787 35.1389 40.5194 35.2739L37.1455 32.9227L38.0549 32.252C38.9523 32.5307 40.6382 33.5372 41.4893 34.8429C41.4893 34.8429 42.0066 34.4034 41.6686 33.4681C41.6686 33.4681 42.6449 33.2931 43.1125 32.7099C43.1125 32.7099 43.0499 32.0533 42.4526 31.4517C42.4526 31.4517 43.2529 31.1018 43.4916 30.4841C43.4916 30.4841 43.0077 29.9646 42.2507 29.7291C42.4861 28.9721 42.3328 28.2787 42.3328 28.2787C41.6891 28.1243 40.946 28.5854 40.946 28.5854C40.7905 27.7527 40.2861 27.3283 40.2861 27.3283C39.5399 27.3823 38.8433 28.0865 38.8433 28.0865C38.2655 27.2786 37.6088 27.4547 37.6088 27.4547C38.2028 28.8997 38.0678 30.8696 37.7946 31.7477L36.6617 32.5847L33.6658 30.497L33.345 30.9571L36.3409 33.0447L35.9478 34.398C35.249 34.9347 33.453 35.7685 31.8568 35.7113C31.8568 35.7113 31.9194 36.3874 32.8774 36.6498C32.8774 36.6498 32.4594 37.5484 32.6668 38.2666C32.6668 38.2666 33.2402 38.5916 34.074 38.4501C34.074 38.4501 33.9001 39.3066 34.2673 39.8563C34.2673 39.8563 34.9704 39.7602 35.5989 39.2764C36.0828 39.9049 36.7373 40.1781 36.7373 40.1781C37.2341 39.7397 37.2848 38.8681 37.2848 38.8681C38.056 39.2191 38.6931 39.0517 38.6931 39.0517C39.0787 38.4113 38.9038 37.4349 38.9038 37.4349C39.8974 37.4285 40.1317 36.7913 40.1317 36.7913C38.6942 36.464 37.139 35.2836 36.5116 34.4671L36.8258 33.3828L40.1998 35.7339C40.3132 36.3668 40.2894 38.1834 39.5507 39.4891C39.5507 39.4891 40.1123 39.7191 40.716 39.0657C40.716 39.0657 41.2571 39.7699 41.9126 39.8995C41.9126 39.8995 42.4083 39.5787 42.6384 38.8573C42.6384 38.8573 43.2464 39.3487 43.835 39.2839C43.835 39.2839 44.0478 38.6856 43.9236 37.9868C44.6224 37.8626 45.1094 37.4555 45.1094 37.4555Z" fill="#92BF32"/>
<path d="M36.7902 40.4946L36.6336 40.4288C36.6077 40.418 36.0439 40.1782 35.5525 39.6404C34.9391 40.0335 34.3332 40.121 34.3051 40.1242L34.1377 40.1469L34.0438 40.0065C33.777 39.608 33.75 39.0928 33.7684 38.7526C33.0415 38.7828 32.5566 38.5139 32.5339 38.4999L32.4389 38.4459L32.4086 38.34C32.2488 37.7882 32.4054 37.1639 32.5253 36.8129C31.6667 36.4565 31.5932 35.7664 31.59 35.7351L31.5619 35.4294L31.8686 35.4402C33.3104 35.491 34.9758 34.7696 35.7156 34.235L36.0288 33.155L32.9702 31.0241L33.5999 30.1212L36.6584 32.2521L37.5635 31.5836C37.8086 30.7034 37.9091 28.89 37.3615 27.5573L37.2449 27.2733L37.5419 27.1934C37.5721 27.1847 38.246 27.0152 38.8778 27.6977C39.1662 27.4634 39.6965 27.1005 40.27 27.0594L40.379 27.0519L40.4633 27.1232C40.4838 27.1404 40.9039 27.5022 41.1275 28.1945C41.4396 28.0595 41.9332 27.9062 42.3986 28.0185L42.5628 28.0584L42.5995 28.2237C42.606 28.2518 42.7334 28.8501 42.5779 29.5618C43.2529 29.8372 43.673 30.2822 43.6925 30.3038L43.808 30.428L43.7465 30.5856C43.5737 31.0328 43.1676 31.3514 42.8792 31.5317C43.3231 32.1095 43.3804 32.6614 43.3836 32.6873L43.3944 32.7964L43.3264 32.8817C42.9678 33.3299 42.3673 33.5621 42.0098 33.6658C42.0768 33.966 42.0649 34.2166 42.0185 34.4186C42.593 34.1118 43.187 33.6982 43.6158 33.1917L43.8134 32.9573L44.0208 33.183C44.0402 33.2046 44.455 33.6701 44.185 34.4542C44.496 34.5914 44.9896 34.8646 45.2552 35.2977L45.3125 35.3916L45.2887 35.4986C45.2833 35.5223 45.1721 35.9975 44.726 36.4598C44.9626 36.6574 45.2736 36.9825 45.3751 37.3918L45.4162 37.556L45.2866 37.664C45.2671 37.6802 44.8502 38.0247 44.2271 38.1975C44.2811 38.8422 44.1029 39.352 44.0942 39.3768L44.037 39.5356L43.8685 39.554C43.4495 39.5993 43.0358 39.4211 42.7691 39.2678C42.4904 39.8466 42.0822 40.1156 42.0628 40.1285L41.971 40.1879L41.863 40.1663C41.364 40.067 40.9374 39.6987 40.7009 39.4546C40.0583 39.9795 39.4783 39.7516 39.4513 39.7408L39.1673 39.6242L39.3185 39.3574C39.6457 38.7807 39.8282 38.0787 39.9168 37.4339C39.744 37.5484 39.5118 37.6456 39.2072 37.6866C39.2332 38.0571 39.2245 38.7008 38.9275 39.1932L38.8714 39.2872L38.7655 39.3153C38.7396 39.3228 38.2018 39.4589 37.5062 39.2429C37.4371 39.5756 37.2784 40.067 36.9187 40.3834L36.7902 40.4946ZM35.6486 38.8995L35.8128 39.1133C36.1044 39.4924 36.4705 39.7322 36.6779 39.8488C36.9727 39.4643 37.0138 38.8606 37.0148 38.8541L37.0397 38.4621L37.3972 38.6241C37.8896 38.8487 38.3227 38.8336 38.5171 38.8098C38.7709 38.2655 38.6402 37.4922 38.6381 37.4836L38.583 37.1693L38.9027 37.1672C39.2818 37.165 39.5215 37.057 39.6684 36.9458C38.2158 36.4814 36.8518 35.3549 36.2977 34.6335L36.2146 34.5255L36.6714 32.9476L40.446 35.5774L40.4654 35.6876C40.5713 36.2794 40.5734 37.9016 39.9805 39.2364C40.1296 39.1976 40.3175 39.1014 40.5173 38.8844L40.7344 38.6489L40.9298 38.9027C40.9342 38.9081 41.3532 39.4438 41.8511 39.6069C41.9839 39.4892 42.241 39.2192 42.3814 38.7774L42.5012 38.4016L42.808 38.6489C42.9322 38.7483 43.2875 38.9762 43.6288 39.015C43.6752 38.8055 43.7292 38.4362 43.6579 38.0355L43.6104 37.7698L43.8761 37.7223C44.2768 37.651 44.6051 37.4717 44.7854 37.3551C44.6008 36.9846 44.1623 36.7157 44.1569 36.7125L43.8178 36.5105L44.1288 36.2675C44.4949 35.9813 44.6602 35.6476 44.7239 35.4824C44.3988 35.0709 43.7508 34.8635 43.7443 34.8614L43.4398 34.7652L43.5845 34.4812C43.7184 34.2188 43.7432 34.0092 43.7281 33.8548C42.7626 34.7901 41.324 35.4046 40.568 35.5396L40.4579 35.559L36.6833 32.9292L38.0052 31.954L38.1359 31.995C39.0042 32.265 40.5346 33.1539 41.4731 34.3559C41.5271 34.1799 41.5444 33.9174 41.4148 33.56L41.3057 33.2586L41.621 33.2025C41.6286 33.2014 42.3997 33.0567 42.8231 32.6301C42.7777 32.44 42.6427 32.0274 42.2615 31.643L41.9839 31.3632L42.3446 31.2056C42.35 31.2034 42.903 30.955 43.16 30.5457C42.9797 30.3912 42.6276 30.131 42.1708 29.9884L41.9137 29.9085L41.9936 29.6514C42.1373 29.1903 42.1222 28.755 42.0973 28.5207C41.6156 28.5002 41.0951 28.8144 41.0886 28.8177L40.7538 29.0229L40.6814 28.6373C40.5821 28.106 40.3207 27.7604 40.189 27.6146C39.6954 27.7042 39.1964 28.1157 39.0355 28.2777L38.8098 28.5045L38.624 28.2442C38.4037 27.9364 38.1769 27.8014 38.0009 27.7463C38.4577 29.2011 38.3216 30.9626 38.0527 31.8287L38.0268 31.913L36.6671 32.9184L33.7338 30.874L33.7219 30.8913L36.6552 32.9346L36.1832 34.559L36.113 34.613C35.3938 35.1659 33.7878 35.9036 32.2661 35.9781C32.3795 36.1239 32.5836 36.2891 32.9497 36.3896L33.2586 36.4738L33.1236 36.7643C33.1204 36.7719 32.7953 37.4847 32.9011 38.0765C33.0826 38.1489 33.4973 38.2752 34.0308 38.1845L34.4196 38.1186L34.3408 38.5053C34.3397 38.5118 34.2241 39.1058 34.412 39.5518C34.6421 39.4935 35.0579 39.3552 35.437 39.0636L35.6486 38.8995ZM36.8107 34.4088C37.4576 35.1854 38.7763 36.1325 39.9827 36.4749C39.9838 36.247 39.9719 36.0472 39.9514 35.8895L36.9814 33.8202L36.8107 34.4088ZM37.6099 32.9174L40.5799 34.9866C40.7354 34.951 40.9266 34.8927 41.1404 34.8128C40.3391 33.7112 38.9318 32.8515 38.1035 32.5534L37.6099 32.9174Z" fill="#333333"/>
<path d="M32.4075 11.3476C31.9993 11.7764 32.0231 12.5583 32.0231 12.5583C31.3092 12.3056 30.7541 12.5064 30.7541 12.5064C30.4614 13.108 30.6947 13.9644 30.6947 13.9644C29.8091 14.0498 29.6525 14.6362 29.6525 14.6362C31.037 14.8241 32.5134 15.8231 33.0361 16.3901L32.8676 20.4984L31.8135 20.0924C31.5662 19.1862 31.5079 17.2228 32.1516 15.8037C32.1516 15.8037 31.5025 15.6039 30.8966 16.3912C30.8966 16.3912 30.2249 15.6611 29.4818 15.5812C29.4818 15.5812 28.9623 15.9873 28.7755 16.8135C28.7755 16.8135 28.0508 16.3264 27.4007 16.4571C27.4007 16.4571 27.2225 17.144 27.4309 17.9097C26.6663 18.1181 26.1641 18.6192 26.1641 18.6192C26.3801 19.2446 27.1685 19.6236 27.1685 19.6236C26.5507 20.2025 26.4632 20.8559 26.4632 20.8559C26.9103 21.4553 27.878 21.6659 27.878 21.6659C27.5076 22.5871 28.0087 23.0461 28.0087 23.0461C28.9083 21.7685 30.6417 20.8235 31.5284 20.5816L32.8439 21.087L32.6948 24.7353L33.2543 24.7579L33.4033 21.1097L34.7555 20.7133C35.5838 21.0136 37.2524 22.0795 38.0624 23.4565C38.0624 23.4565 38.5992 23.0397 38.3054 22.0914C38.3054 22.0914 39.2872 21.9618 39.7818 21.4002C39.7818 21.4002 39.7483 20.7414 39.1802 20.114C39.1802 20.114 39.9967 19.8008 40.2624 19.1949C40.2624 19.1949 39.8034 18.6549 39.0582 18.3838C39.3282 17.6386 39.2072 16.9388 39.2072 16.9388C38.5711 16.7552 37.8076 17.1818 37.8076 17.1818C37.6898 16.3426 37.2049 15.8955 37.2049 15.8955C36.4576 15.9138 35.7286 16.5867 35.7286 16.5867C35.1886 15.7518 34.5254 15.8976 34.5254 15.8976C35.0233 17.2854 34.8624 19.2316 34.5114 20.1993L33.4281 20.5179L33.5966 16.4096C34.0697 15.9732 35.6141 15.0174 37.112 14.9386C37.112 14.9386 37.004 14.3414 36.1281 14.1837C36.1281 14.1837 36.4306 13.3488 36.1876 12.7257C36.1876 12.7257 35.6508 12.4805 34.9186 12.6738C34.9186 12.6738 35.006 11.8973 34.6345 11.4362C34.6345 11.4362 34.0157 11.5787 33.494 12.0593C33.0123 11.5398 32.4075 11.3476 32.4075 11.3476Z" fill="#92BF32"/>
<path d="M33.5124 25.042L32.4129 24.9966L32.5652 21.2728L31.5154 20.8688C30.6417 21.1345 29.0585 22.0255 28.229 23.2038L28.0519 23.4554L27.8251 23.2481C27.8013 23.2265 27.297 22.7502 27.5324 21.8506C27.1803 21.7339 26.5885 21.4812 26.2461 21.02L26.1803 20.9315L26.1954 20.8224C26.1986 20.7954 26.2775 20.2468 26.7419 19.6862C26.46 19.4962 26.0658 19.1624 25.9092 18.7088L25.8541 18.549L25.974 18.4291C25.9945 18.4086 26.4297 17.9798 27.1145 17.7282C26.9838 17.0111 27.1328 16.4182 27.1404 16.3901L27.1825 16.2259L27.3488 16.1924C27.8197 16.0974 28.3057 16.268 28.6124 16.4149C28.8608 15.7302 29.295 15.3846 29.3155 15.3684L29.4019 15.3014L29.511 15.3133C30.0823 15.3749 30.5996 15.7561 30.8793 16.0013C31.0964 15.7831 31.3146 15.6589 31.5101 15.5898C30.9431 15.2701 30.2735 14.9915 29.6168 14.9029L29.3133 14.8619L29.3922 14.566C29.3997 14.5379 29.5693 13.9374 30.3761 13.7441C30.3253 13.4082 30.2896 12.8455 30.5121 12.3887L30.5596 12.2904L30.6623 12.2537C30.6849 12.2461 31.1461 12.0841 31.7746 12.2116C31.8135 11.9059 31.9205 11.4685 32.212 11.1629L32.3287 11.0408L32.4896 11.0916C32.5144 11.0992 33.0285 11.2666 33.5091 11.6986C34.0232 11.3065 34.5502 11.1823 34.5751 11.1769L34.7403 11.1391L34.8462 11.2709C35.1108 11.5992 35.181 12.0442 35.195 12.3509C35.8333 12.2753 36.2793 12.474 36.3009 12.4837L36.4003 12.5291L36.4402 12.6317C36.6249 13.1047 36.5439 13.6631 36.4651 13.9936C37.2524 14.2528 37.3734 14.8651 37.3777 14.8932L37.4328 15.1945L37.126 15.2107C36.464 15.2453 35.7739 15.4688 35.1831 15.741C35.3721 15.8263 35.5795 15.9678 35.7782 16.2032C36.0763 15.9818 36.6238 15.6438 37.1984 15.6298L37.3075 15.6265L37.3885 15.701C37.4079 15.7194 37.8118 16.0985 38.0041 16.8016C38.3216 16.6806 38.8206 16.551 39.2817 16.6838L39.4437 16.7303L39.4729 16.8966C39.4772 16.9247 39.5776 17.5284 39.3897 18.2326C40.0507 18.5382 40.4503 19.0026 40.4686 19.0242L40.5777 19.1527L40.5097 19.3072C40.3174 19.7467 39.8973 20.047 39.6003 20.2133C40.0161 20.8105 40.0496 21.3635 40.0518 21.3905L40.0572 21.5006L39.9848 21.5827C39.6046 22.0136 38.9955 22.2178 38.6348 22.3052C38.7957 23.2211 38.2536 23.6542 38.2287 23.6736L37.9857 23.8615L37.8302 23.5969C37.1012 22.356 35.5946 21.3376 34.7457 21.0006L33.6668 21.317L33.5124 25.042ZM32.9745 24.4793L32.995 24.4804L33.1408 20.9088L34.7641 20.4336L34.8472 20.4638C35.7004 20.7738 37.1854 21.7307 38.0667 22.9738C38.1283 22.7999 38.1585 22.5385 38.0462 22.1756L37.9512 21.87L38.2687 21.8279C38.2762 21.8268 39.0528 21.7177 39.4956 21.3106C39.4588 21.1183 39.3422 20.7014 38.9793 20.2997L38.7147 20.0081L39.083 19.8666C39.0884 19.8644 39.6522 19.642 39.9276 19.2445C39.7548 19.0825 39.4146 18.806 38.9642 18.6419L38.7104 18.5501L38.8022 18.2963C38.9653 17.8459 38.9707 17.4085 38.9566 17.1709C38.475 17.1266 37.9425 17.4182 37.9371 17.4215L37.5937 17.6116L37.5386 17.2228C37.463 16.6871 37.2178 16.3296 37.0926 16.1784C36.4964 16.2562 35.9154 16.7832 35.9089 16.7886L35.6734 17.0046L35.4996 16.7368C35.2944 16.4192 35.074 16.2745 34.9012 16.2097C35.2911 17.6839 35.074 19.44 34.7641 20.2954L34.7176 20.4239L33.1419 20.8872L33.3298 16.2907L33.4119 16.2151C33.8547 15.808 35.2209 14.9342 36.6649 14.7172C36.5515 14.6124 36.369 14.5055 36.0795 14.4536L35.7642 14.3975L35.8732 14.0962C35.8754 14.0897 36.1022 13.4482 35.9715 12.9406C35.8009 12.8909 35.4348 12.8207 34.9866 12.9395L34.6053 13.0399L34.6496 12.6479C34.6669 12.4902 34.668 12.0679 34.5168 11.759C34.3148 11.8325 33.9746 11.9858 33.6754 12.2612L33.4767 12.4438L33.2942 12.245C33.0177 11.9459 32.6916 11.7655 32.4972 11.6759C32.3211 11.9718 32.2887 12.3919 32.2931 12.5518L32.3038 12.9438L31.9334 12.8131C31.4971 12.6587 31.1266 12.6986 30.9517 12.7343C30.8102 13.1479 30.902 13.7009 30.9549 13.8942L31.0392 14.2031L30.7206 14.2333C30.4268 14.2614 30.2367 14.3532 30.1147 14.4482C31.4226 14.7593 32.7142 15.6427 33.2348 16.2065L33.3104 16.2886L33.1225 20.885L31.59 20.2943L31.5543 20.1625C31.3157 19.2856 31.2422 17.5165 31.752 16.0801C31.5748 16.1298 31.3437 16.2562 31.1126 16.5564L30.9171 16.8102L30.7001 16.5748C30.6947 16.5694 30.1579 15.9959 29.5715 15.8695C29.4354 16.0088 29.1611 16.3458 29.0412 16.8739L28.9548 17.2584L28.6275 17.0392C28.6221 17.0359 28.121 16.7065 27.6383 16.7065C27.6361 16.7065 27.6339 16.7065 27.6318 16.7065C27.5983 16.942 27.5681 17.3783 27.6933 17.8405L27.7646 18.1008L27.5043 18.1721C27.0432 18.2984 26.6814 18.5458 26.4956 18.6937C26.6987 19.0415 27.1209 19.3039 27.2873 19.3838L27.6426 19.5545L27.3542 19.8245C26.96 20.1938 26.8088 20.5999 26.7559 20.7889C27.0972 21.1561 27.7117 21.357 27.9353 21.4056L28.2485 21.4736L28.1286 21.7706C27.9871 22.1227 27.9957 22.3852 28.0433 22.5634C29.0239 21.3959 30.5823 20.5632 31.4571 20.3256L31.5424 20.3029L33.1214 20.9099L32.9745 24.4793ZM33.8612 16.5402L33.7132 20.1571L34.3008 19.9843C34.6075 19.022 34.696 17.3999 34.3375 16.1989C34.1452 16.3199 33.9832 16.4376 33.8612 16.5402ZM32.0414 19.8914L32.6127 20.1118L32.7607 16.4948C32.6473 16.3836 32.495 16.2529 32.3136 16.1158C31.8157 17.3837 31.847 19.0318 32.0414 19.8914Z" fill="#333333"/>
<path d="M15.3555 18.0781V21.316L10.9491 24.746C9.92521 25.5431 9.64765 26.973 10.2989 28.0951C10.7633 28.8943 11.6176 29.3868 12.5421 29.3868H18.8309V17.4906H15.943C15.619 17.4906 15.3555 17.7541 15.3555 18.0781Z" fill="#F4D9B2"/>
<path d="M22.3074 18.0781V21.316L26.7138 24.746C27.7377 25.5431 28.0152 26.973 27.364 28.0951C26.8996 28.8943 26.0453 29.3868 25.1208 29.3868H18.832V17.4906H21.7199C22.0439 17.4906 22.3074 17.7541 22.3074 18.0781Z" fill="#D9B27E"/>
<path d="M15.6017 22.6012L12.7321 24.9448C12.5583 25.0863 12.4578 25.299 12.4578 25.5226C12.4578 25.9351 12.7915 26.2689 13.2041 26.2689C13.4028 26.2689 13.8013 26.2689 13.8013 26.2689C14.0724 26.2689 14.3219 26.122 14.4537 25.8855L16.2843 22.6001H15.6017V22.6012Z" fill="#DAAD74"/>
<path d="M17.3319 22.6012L16.1601 25.3357C15.7723 26.2419 17.253 26.6944 17.4334 25.7213L18.0133 22.6001H17.3319V22.6012Z" fill="#DAAD74"/>
<path d="M22.0601 22.6012L24.9297 24.9448C25.1035 25.0863 25.204 25.299 25.204 25.5226C25.204 25.9351 24.8703 26.2689 24.4577 26.2689H23.8605C23.5894 26.2689 23.3399 26.122 23.2081 25.8855L21.3775 22.6001H22.0601V22.6012Z" fill="#BA884F"/>
<path d="M20.331 22.6012L21.5028 25.3357C21.8916 26.2429 20.4099 26.6933 20.2295 25.7213L19.6495 22.6001H20.331V22.6012Z" fill="#BA884F"/>
<path d="M35.0082 18.0781V21.316L30.6018 24.746C29.578 25.5431 29.3004 26.973 29.9517 28.0951C30.4161 28.8943 31.2703 29.3868 32.1948 29.3868H38.4836V17.4906H35.5957C35.2706 17.4906 35.0082 17.7541 35.0082 18.0781Z" fill="#F4D9B2"/>
<path d="M41.9591 18.0781V21.316L46.3655 24.746C47.3894 25.5431 47.6669 26.973 47.0157 28.0951C46.5513 28.8943 45.697 29.3868 44.7725 29.3868H38.4837V17.4906H41.3716C41.6967 17.4906 41.9591 17.7541 41.9591 18.0781Z" fill="#D9B27E"/>
<path d="M35.2545 22.6012L32.3849 24.9448C32.211 25.0863 32.1106 25.299 32.1106 25.5226C32.1106 25.9351 32.4443 26.2689 32.8569 26.2689C33.0556 26.2689 33.4541 26.2689 33.4541 26.2689C33.7252 26.2689 33.9747 26.122 34.1064 25.8855L35.937 22.6001H35.2545V22.6012Z" fill="#DAAD74"/>
<path d="M36.9836 22.6012L35.8118 25.3357C35.424 26.2419 36.9047 26.6944 37.0851 25.7213L37.665 22.6001H36.9836V22.6012Z" fill="#DAAD74"/>
<path d="M41.7129 22.6012L44.5824 24.9448C44.7563 25.0863 44.8567 25.299 44.8567 25.5226C44.8567 25.9351 44.523 26.2689 44.1105 26.2689H43.5132C43.2421 26.2689 42.9927 26.122 42.8609 25.8855L41.0303 22.6001H41.7129V22.6012Z" fill="#BA884F"/>
<path d="M39.9838 22.6012L41.1556 25.3357C41.5444 26.2429 40.0626 26.6933 39.8823 25.7213L39.3023 22.6001H39.9838V22.6012Z" fill="#BA884F"/>
<path d="M44.7336 29.4559H32.5026C31.5112 29.4559 30.5856 28.9235 30.0877 28.0659C29.39 26.8639 29.6914 25.3141 30.7876 24.4609L34.9683 21.2069V18.1904C34.9683 17.726 35.3452 17.3491 35.8096 17.3491H41.4266C41.891 17.3491 42.268 17.7271 42.268 18.1904V21.2069L46.4486 24.4609C47.5448 25.3141 47.8462 26.8639 47.1485 28.0659C46.6506 28.9235 45.7251 29.4559 44.7336 29.4559ZM35.8096 17.888C35.6433 17.888 35.5083 18.023 35.5083 18.1894V21.4693L31.1191 24.8854C30.2346 25.5744 29.9916 26.8239 30.5554 27.7927C30.9571 28.485 31.7034 28.9137 32.5026 28.9137H44.7336C45.5339 28.9137 46.2802 28.4839 46.6809 27.7927C47.2435 26.8239 47.0005 25.5733 46.1171 24.8854L41.728 21.4693V18.1894C41.728 18.023 41.593 17.888 41.4266 17.888H35.8096Z" fill="#333333"/>
<path d="M24.7536 29.4559H12.5226C11.5312 29.4559 10.6056 28.9235 10.1077 28.0659C9.41004 26.8639 9.71136 25.3141 10.8076 24.4609L14.9882 21.2069V18.1904C14.9882 17.726 15.3652 17.3491 15.8296 17.3491H21.4467C21.9111 17.3491 22.288 17.7271 22.288 18.1904V21.2069L26.4687 24.4609C27.5649 25.3141 27.8662 26.8639 27.1685 28.0659C26.6706 28.9235 25.7451 29.4559 24.7536 29.4559ZM15.8296 17.888C15.6632 17.888 15.5282 18.023 15.5282 18.1894V21.4693L11.1391 24.8854C10.2546 25.5744 10.0116 26.8239 10.5754 27.7927C10.9771 28.485 11.7234 28.9137 12.5226 28.9137H24.7536C25.5539 28.9137 26.3002 28.4839 26.7009 27.7927C27.2635 26.8239 27.0205 25.5733 26.1371 24.8854L21.748 21.4693V18.1894C21.748 18.023 21.613 17.888 21.4467 17.888H15.8296Z" fill="#333333"/>
<path d="M24.4641 20.5632V24.4696L19.1473 28.6081C17.9118 29.5693 17.577 31.2952 18.3632 32.6484C18.9226 33.6128 19.954 34.2069 21.0697 34.2069H28.6578V19.8536H25.1726C24.7806 19.8547 24.4641 20.1722 24.4641 20.5632Z" fill="#F4D9B2"/>
<path d="M32.8514 20.5632V24.4696L38.1682 28.6081C39.4038 29.5693 39.7386 31.2952 38.9523 32.6484C38.3929 33.6128 37.3615 34.2069 36.2458 34.2069H28.6577V19.8536H32.1429C32.5339 19.8547 32.8514 20.1722 32.8514 20.5632Z" fill="#D9B27E"/>
<path d="M24.7611 26.0204L21.2986 28.8479C21.0891 29.0185 20.9681 29.2745 20.9681 29.5456C20.9681 30.0424 21.371 30.4463 21.8689 30.4463C22.1086 30.4463 22.5892 30.4463 22.5892 30.4463C22.9154 30.4463 23.2167 30.2692 23.3755 29.984L25.5841 26.0204H24.7611Z" fill="#DAAD74"/>
<path d="M26.8477 26.0204L25.4339 29.3199C24.9652 30.4128 26.7526 30.9593 26.9708 29.7853L27.6706 26.0204H26.8477Z" fill="#DAAD74"/>
<path d="M32.5533 26.0204L36.0158 28.8479C36.2253 29.0185 36.3463 29.2745 36.3463 29.5456C36.3463 30.0424 35.9434 30.4463 35.4455 30.4463H34.7252C34.3979 30.4463 34.0977 30.2692 33.9389 29.984L31.7303 26.0204H32.5533Z" fill="#BA884F"/>
<path d="M30.4667 26.0204L31.8816 29.3199C32.3503 30.4139 30.5618 30.9582 30.3447 29.7853L29.6459 26.0204H30.4667Z" fill="#BA884F"/>
<path d="M36.0331 34.4466H20.8569C19.6495 34.4466 18.5231 33.7975 17.9172 32.7543C17.0672 31.2909 17.4344 29.4041 18.7693 28.3651L23.9814 24.3076V20.533C23.9814 19.993 24.4209 19.5545 24.9599 19.5545H31.9291C32.4691 19.5545 32.9087 19.9941 32.9087 20.533V24.3076L38.1207 28.3651C39.4556 29.4041 39.8217 31.2919 38.9729 32.7543C38.367 33.7975 37.2405 34.4466 36.0331 34.4466ZM24.9599 20.0934C24.7179 20.0934 24.5214 20.29 24.5214 20.5319V24.57L19.1009 28.7896C17.9777 29.6633 17.6699 31.2509 18.3848 32.4821C18.8946 33.3601 19.8428 33.9055 20.858 33.9055H36.0342C37.0494 33.9055 37.9976 33.3601 38.5074 32.4821C39.2223 31.2509 38.9135 29.6644 37.7913 28.7896L32.3708 24.57V20.5319C32.3708 20.29 32.1743 20.0934 31.9313 20.0934H24.9599Z" fill="#333333"/>
</svg>
