<svg width="54" height="54" viewBox="0 0 54 54" fill="none" xmlns="http://www.w3.org/2000/svg">
<path d="M27 54C41.9117 54 54 41.9117 54 27C54 12.0883 41.9117 0 27 0C12.0883 0 0 12.0883 0 27C0 41.9117 12.0883 54 27 54Z" fill="#FFD74A"/>
<path d="M17.1645 27.7711C14.6826 27.7711 12.3444 27.4925 10.5829 26.987C8.69185 26.4449 7.69177 25.7094 7.69177 24.8616C7.69177 24.0138 8.69185 23.2783 10.5829 22.7362C12.3444 22.2307 14.6815 21.9521 17.1645 21.9521C19.6474 21.9521 21.9834 22.2307 23.746 22.7362C25.6371 23.2783 26.6371 24.0138 26.6371 24.8616C26.6371 25.7094 25.6371 26.4449 23.746 26.987C21.9845 27.4925 19.6463 27.7711 17.1645 27.7711Z" fill="#AA444A"/>
<path d="M17.1645 22.2221C22.2469 22.2221 26.3661 23.4036 26.3661 24.8616C26.3661 26.3185 22.2459 27.5011 17.1645 27.5011C12.0831 27.5011 7.96286 26.3196 7.96286 24.8616C7.96286 23.4036 12.082 22.2221 17.1645 22.2221ZM17.1645 21.6821C14.6578 21.6821 12.2937 21.9639 10.5084 22.4759C8.4899 23.0547 7.42178 23.8799 7.42178 24.8616C7.42178 25.8433 8.48882 26.6673 10.5084 27.2473C12.2937 27.7592 14.6578 28.0411 17.1645 28.0411C19.6711 28.0411 22.0353 27.7592 23.8205 27.2473C25.8401 26.6684 26.9071 25.8433 26.9071 24.8616C26.9071 23.8799 25.8401 23.0558 23.8205 22.4759C22.0353 21.9639 19.6711 21.6821 17.1645 21.6821Z" fill="#333333"/>
<path d="M13.7572 30.3263C13.5163 30.3263 13.3209 30.1309 13.3209 29.89V14.6102C13.3209 14.3866 13.4926 14.2117 13.7118 14.2117C13.7475 14.2117 13.7842 14.216 13.8198 14.2257L15.4636 14.661C15.6699 14.716 15.8254 14.918 15.8254 15.1308V29.8911C15.8254 30.1319 15.6299 30.3274 15.3891 30.3274H13.7572V30.3263Z" fill="#ECD35C"/>
<path d="M13.7129 14.4817C13.7259 14.4817 13.7388 14.4838 13.7529 14.4871L15.3966 14.9223C15.4852 14.9461 15.5575 15.04 15.5575 15.1307V29.8911C15.5575 29.9829 15.483 30.0574 15.3912 30.0574H13.7583C13.6665 30.0574 13.5919 29.9829 13.5919 29.8911V14.6102C13.5919 14.5335 13.6427 14.4817 13.7129 14.4817ZM13.7129 13.9417C13.3425 13.9417 13.0519 14.2354 13.0519 14.6102V29.8911C13.0519 30.2799 13.3684 30.5974 13.7583 30.5974H15.3912C15.78 30.5974 16.0975 30.281 16.0975 29.8911V15.1307C16.0975 14.7938 15.861 14.486 15.5349 14.4007L13.8911 13.9654C13.8317 13.9492 13.7723 13.9417 13.7129 13.9417Z" fill="#333333"/>
<path d="M15.5617 32.6796C15.3208 32.6796 15.1254 32.4841 15.1254 32.2433V16.9635C15.1254 16.7399 15.2971 16.5649 15.5163 16.5649C15.552 16.5649 15.5887 16.5693 15.6243 16.579L17.2692 17.0142C17.4754 17.0693 17.631 17.2713 17.631 17.484V32.2444C17.631 32.4852 17.4355 32.6807 17.1946 32.6807H15.5617V32.6796Z" fill="#E2C556"/>
<path d="M15.5163 16.8339C15.5293 16.8339 15.5423 16.836 15.5563 16.8393L17.2011 17.2745C17.2897 17.2983 17.3621 17.3912 17.3621 17.483V32.2433C17.3621 32.3351 17.2875 32.4096 17.1957 32.4096H15.5617C15.4699 32.4096 15.3954 32.3351 15.3954 32.2433V16.9635C15.3954 16.8857 15.4472 16.8339 15.5163 16.8339ZM15.5163 16.2939C15.1459 16.2939 14.8554 16.5876 14.8554 16.9624V32.2433C14.8554 32.6321 15.1718 32.9496 15.5617 32.9496H17.1957C17.5845 32.9496 17.9021 32.6332 17.9021 32.2433V17.483C17.9021 17.146 17.6655 16.8382 17.3394 16.7529L15.6945 16.3176C15.6362 16.3025 15.5757 16.2939 15.5163 16.2939Z" fill="#333333"/>
<path d="M11.5592 35.1C11.327 35.1 11.1359 34.9186 11.1229 34.6864L10.3345 19.4249C10.3291 19.3115 10.3669 19.2046 10.4414 19.1257C10.5149 19.048 10.6153 19.0059 10.7255 19.0059C10.7546 19.0059 10.7849 19.0091 10.814 19.0156L12.4794 19.3709C12.6878 19.4152 12.8531 19.6096 12.8639 19.8213L13.6253 34.5632C13.6318 34.6799 13.5918 34.7911 13.513 34.8775C13.4341 34.9639 13.3272 35.0147 13.2116 35.0201L11.5733 35.1H11.5592Z" fill="#E2C556"/>
<path d="M10.7256 19.2758C10.7364 19.2758 10.7472 19.2769 10.758 19.2791L12.4233 19.6344C12.513 19.6538 12.5897 19.7435 12.594 19.8353L13.3554 34.5773C13.3597 34.668 13.2895 34.7468 13.1977 34.7511L11.5658 34.83C11.5637 34.83 11.5604 34.83 11.5583 34.83C11.4708 34.83 11.3963 34.7609 11.3919 34.6723L10.6035 19.4108C10.6003 19.3309 10.6532 19.2758 10.7256 19.2758ZM10.7256 18.7358C10.5409 18.7358 10.3713 18.8082 10.2461 18.94C10.1197 19.0728 10.056 19.2499 10.0657 19.4389L10.8541 34.7004C10.8735 35.0762 11.1835 35.3711 11.5593 35.3711C11.5701 35.3711 11.582 35.3711 11.5928 35.37L13.2247 35.2911C13.4137 35.2825 13.5865 35.1993 13.7139 35.06C13.8403 34.9196 13.9051 34.7393 13.8954 34.5503L13.134 19.8083C13.1167 19.4724 12.8651 19.1776 12.5367 19.1074L10.8714 18.752C10.8228 18.7412 10.7742 18.7358 10.7256 18.7358Z" fill="#333333"/>
<path d="M18.7608 32.9777C18.5199 32.9777 18.3244 32.7822 18.3244 32.5414V17.2605C18.3244 17.0369 18.4962 16.8619 18.7154 16.8619C18.751 16.8619 18.7878 16.8663 18.8234 16.876L20.4682 17.3112C20.6745 17.3652 20.829 17.5672 20.829 17.781V32.5414C20.829 32.7822 20.6335 32.9777 20.3926 32.9777H18.7608Z" fill="#E2C556"/>
<path d="M18.7154 17.1319C18.7284 17.1319 18.7413 17.1341 18.7554 17.1373L20.4002 17.5726C20.4888 17.5963 20.5611 17.6903 20.5611 17.781V32.5414C20.5611 32.6332 20.4866 32.7077 20.3948 32.7077H18.7618C18.67 32.7077 18.5955 32.6332 18.5955 32.5414V17.2604C18.5944 17.1838 18.6463 17.1319 18.7154 17.1319ZM18.7154 16.5919C18.345 16.5919 18.0544 16.8857 18.0544 17.2604V32.5414C18.0544 32.9302 18.3709 33.2477 18.7608 33.2477H20.3937C20.7825 33.2477 21.1 32.9312 21.1 32.5414V17.781C21.1 17.444 20.8635 17.1373 20.5384 17.0509L18.8936 16.6157C18.8353 16.5995 18.7748 16.5919 18.7154 16.5919Z" fill="#333333"/>
<path d="M22.3063 32.9378C22.0655 32.9378 21.87 32.7423 21.87 32.5015V17.2206C21.87 16.997 22.0417 16.8221 22.261 16.8221C22.2977 16.8221 22.3333 16.8264 22.37 16.8361L24.0138 17.2714C24.2201 17.3264 24.3756 17.5284 24.3756 17.7412V32.5015C24.3756 32.7423 24.1801 32.9378 23.9393 32.9378H22.3063Z" fill="#E2C556"/>
<path d="M22.261 17.0921C22.2739 17.0921 22.2869 17.0942 22.3009 17.0975L23.9458 17.5327C24.0343 17.5565 24.1067 17.6504 24.1067 17.7411V32.5015C24.1067 32.5933 24.0322 32.6678 23.9404 32.6678H22.3074C22.2156 32.6678 22.1411 32.5933 22.1411 32.5015V17.2206C22.1411 17.1439 22.1918 17.0921 22.261 17.0921ZM22.261 16.5521C21.8905 16.5521 21.6 16.8458 21.6 17.2206V32.5015C21.6 32.8903 21.9164 33.2078 22.3063 33.2078H23.9393C24.3281 33.2078 24.6456 32.8914 24.6456 32.5015V17.7411C24.6456 17.4042 24.4091 17.0964 24.0829 17.0111L22.4392 16.5758C22.3808 16.5596 22.3214 16.5521 22.261 16.5521Z" fill="#333333"/>
<path d="M17.3308 34.1874C17.09 34.1874 16.8945 33.9919 16.8945 33.7511V18.4712C16.8945 18.2477 17.0662 18.0727 17.2855 18.0727C17.3211 18.0727 17.3578 18.077 17.3935 18.0867L19.0383 18.522C19.2446 18.576 19.4001 18.7779 19.4001 18.9918V33.7521C19.4001 33.993 19.2046 34.1885 18.9638 34.1885H17.3308V34.1874Z" fill="#ECD35C"/>
<path d="M17.2855 18.3427C17.2984 18.3427 17.3114 18.3448 17.3254 18.3481L18.9703 18.7833C19.0588 18.8071 19.1312 18.9 19.1312 18.9918V33.7521C19.1312 33.8439 19.0567 33.9184 18.9649 33.9184H17.3319C17.2401 33.9184 17.1656 33.8439 17.1656 33.7521V18.4712C17.1645 18.3945 17.2164 18.3427 17.2855 18.3427ZM17.2855 17.8027C16.915 17.8027 16.6245 18.0964 16.6245 18.4712V33.751C16.6245 34.1398 16.941 34.4574 17.3308 34.4574H18.9638C19.3526 34.4574 19.6701 34.1409 19.6701 33.751V18.9918C19.6701 18.6548 19.4336 18.347 19.1074 18.2617L17.4637 17.8264C17.4043 17.8102 17.3449 17.8027 17.2855 17.8027Z" fill="#333333"/>
<path d="M20.547 30.3263C20.3062 30.3263 20.1107 30.1309 20.1107 29.89V14.6102C20.1107 14.3866 20.2824 14.2117 20.5017 14.2117C20.5384 14.2117 20.574 14.216 20.6108 14.2257L22.2556 14.661C22.4619 14.715 22.6174 14.9169 22.6174 15.1308V29.8911C22.6174 30.1319 22.4219 30.3274 22.1811 30.3274H20.547V30.3263Z" fill="#ECD35C"/>
<path d="M20.5017 14.4817C20.5146 14.4817 20.5276 14.4838 20.5416 14.4871L22.1865 14.9223C22.275 14.9461 22.3474 15.04 22.3474 15.1307V29.8911C22.3474 29.9829 22.2729 30.0574 22.1811 30.0574H20.547C20.4552 30.0574 20.3807 29.9829 20.3807 29.8911V14.6102C20.3807 14.5335 20.4326 14.4817 20.5017 14.4817ZM20.5017 13.9417C20.1312 13.9417 19.8407 14.2354 19.8407 14.6102V29.8911C19.8407 30.2799 20.1572 30.5974 20.547 30.5974H22.1811C22.5699 30.5974 22.8874 30.281 22.8874 29.8911V15.1307C22.8874 14.7938 22.6509 14.486 22.3247 14.4007L20.6799 13.9654C20.6205 13.9492 20.5611 13.9417 20.5017 13.9417Z" fill="#333333"/>
<path d="M24.1543 34.629C24.1403 34.629 24.1262 34.6279 24.1111 34.6268L22.4857 34.467C22.3691 34.4551 22.2654 34.399 22.1909 34.3093C22.1174 34.2186 22.0829 34.1052 22.0948 33.9896L23.677 18.7865C23.6986 18.5791 23.8616 18.4279 24.0658 18.4279C24.1154 18.4279 24.1651 18.4366 24.2126 18.4549L25.8024 19.0489C26.0033 19.1234 26.1372 19.3405 26.1145 19.5533L24.5863 34.2391C24.5658 34.4605 24.3779 34.629 24.1543 34.629Z" fill="#ECD35C"/>
<path d="M24.0668 18.6969C24.083 18.6969 24.1014 18.7001 24.1187 18.7066L25.7084 19.3006C25.7938 19.333 25.8564 19.4334 25.8467 19.5241L24.3185 34.21C24.3098 34.2953 24.2364 34.3601 24.1522 34.3601C24.1468 34.3601 24.1414 34.3601 24.136 34.359L22.5106 34.1992C22.4198 34.1905 22.3529 34.1085 22.3626 34.0177L23.9448 18.8146C23.9545 18.7422 24.0042 18.6969 24.0668 18.6969ZM24.0668 18.1569C23.7277 18.1569 23.4448 18.415 23.4091 18.7573L21.8269 33.9616C21.8075 34.1495 21.8626 34.3342 21.9824 34.48C22.1023 34.6269 22.2719 34.7176 22.4598 34.7359L24.0852 34.8958C24.109 34.8979 24.1316 34.899 24.1543 34.899C24.5172 34.899 24.8196 34.6269 24.8574 34.2651L26.3856 19.5792C26.4202 19.2423 26.216 18.9129 25.8996 18.7941L24.3088 18.2001C24.2299 18.172 24.1489 18.1569 24.0668 18.1569Z" fill="#333333"/>
<path d="M13.3953 33.4982C13.1696 33.4982 12.9785 33.3222 12.9601 33.0965L11.7257 17.8631C11.7159 17.7475 11.7527 17.6384 11.8272 17.5574C11.9006 17.4775 12.0032 17.4332 12.1155 17.4332C12.1404 17.4332 12.1663 17.4354 12.1933 17.4408L13.8684 17.7497C14.0779 17.7885 14.2485 17.9765 14.2658 18.1892L15.4581 32.9042C15.4679 33.0209 15.4311 33.1332 15.3545 33.2218C15.2789 33.3103 15.173 33.3643 15.0564 33.373L13.4277 33.4972C13.4169 33.4982 13.4061 33.4982 13.3953 33.4982Z" fill="#ECD35C"/>
<path d="M12.1145 17.7032C12.1242 17.7032 12.1339 17.7043 12.1437 17.7064L13.8187 18.0153C13.9084 18.0315 13.9883 18.1201 13.9959 18.2108L15.1882 32.9258C15.1957 33.0165 15.1266 33.0965 15.0359 33.104L13.4073 33.2282C13.4029 33.2282 13.3986 33.2282 13.3943 33.2282C13.309 33.2282 13.2355 33.1613 13.228 33.0749L11.9935 17.8414C11.9871 17.7604 12.04 17.7032 12.1145 17.7032ZM12.1145 17.1632C11.9287 17.1632 11.7516 17.2399 11.6274 17.3738C11.5021 17.5088 11.4395 17.6956 11.4546 17.8846L12.6891 33.1181C12.7182 33.482 13.0282 33.7682 13.3932 33.7682C13.4105 33.7682 13.4289 33.7671 13.4472 33.7661L15.0759 33.6419C15.2649 33.6278 15.4355 33.5403 15.5586 33.3967C15.6817 33.2531 15.7411 33.0705 15.7249 32.8815L14.5326 18.1665C14.5056 17.8317 14.2464 17.5444 13.9159 17.484L12.2409 17.1751C12.1998 17.1675 12.1566 17.1632 12.1145 17.1632Z" fill="#333333"/>
<path d="M10.3227 35.5374C10.097 35.5374 9.90582 35.3613 9.88746 35.1356L8.65303 19.9012C8.64331 19.7856 8.68002 19.6765 8.75454 19.5955C8.82798 19.5156 8.93058 19.4713 9.0429 19.4713C9.06774 19.4713 9.09366 19.4735 9.12066 19.4789L10.7957 19.7878C11.0042 19.8266 11.1748 20.0146 11.1921 20.2273L12.3844 34.9423C12.3941 35.0589 12.3574 35.1713 12.2818 35.2598C12.2062 35.3484 12.1004 35.4024 11.9837 35.411L10.3551 35.5352C10.3454 35.5363 10.3335 35.5374 10.3227 35.5374Z" fill="#ECD35C"/>
<path d="M9.04293 19.7413C9.05265 19.7413 9.06237 19.7424 9.07209 19.7435L10.7472 20.0523C10.8368 20.0685 10.9167 20.1571 10.9243 20.2478L12.1166 34.9628C12.1242 35.0535 12.055 35.1335 11.9643 35.141L10.3357 35.2652C10.3314 35.2652 10.327 35.2652 10.3227 35.2652C10.2374 35.2652 10.164 35.1983 10.1564 35.1119L8.92197 19.8795C8.91549 19.7985 8.96733 19.7413 9.04293 19.7413ZM9.04293 19.2013C8.85717 19.2013 8.68005 19.278 8.55585 19.4119C8.43057 19.5469 8.36793 19.7337 8.38305 19.9227L9.61749 35.1561C9.64665 35.5201 9.95661 35.8063 10.3216 35.8063C10.3389 35.8063 10.3573 35.8052 10.3756 35.8041L12.0043 35.6799C12.1922 35.6659 12.3639 35.5784 12.487 35.4348C12.6102 35.2911 12.6696 35.1086 12.6534 34.9196L11.461 20.2046C11.434 19.8698 11.1748 19.5825 10.8444 19.5221L9.16929 19.2132C9.12717 19.2056 9.08505 19.2013 9.04293 19.2013Z" fill="#333333"/>
<path d="M10.0613 37.5471L7.63779 24.5914H26.689L24.3583 37.6087L10.0613 37.5471Z" fill="#BE494B"/>
<path d="M26.3661 24.8614L24.1327 37.3376L10.286 37.2782L7.96289 24.8614H26.3661ZM27.0119 24.3214H26.3672H7.96289H7.31165L7.43153 24.9608L9.75461 37.3764L9.83669 37.8149L10.2827 37.8171L24.1294 37.8765L24.583 37.8786L24.6629 37.4315L26.8964 24.9554L27.0119 24.3214Z" fill="#333333"/>
<path d="M29.7561 42.0262L32.4291 35.7676L28.8349 34.3215L26.1759 40.5466C26.1306 40.525 26.0852 40.5024 26.0377 40.4829C24.8929 40.0207 23.5785 40.5477 23.1022 41.659C22.626 42.7714 23.1692 44.0469 24.3129 44.5092C25.1272 44.8375 26.0247 44.6647 26.6479 44.1398C26.6878 44.9563 27.1976 45.7155 28.026 46.0503C29.1708 46.5115 30.4851 45.9866 30.9603 44.8742C31.4355 43.764 30.8966 42.4906 29.7561 42.0262Z" fill="#EED593"/>
<path fill-rule="evenodd" clip-rule="evenodd" d="M28.6905 33.9724L32.7859 35.6201L30.1066 41.8932C31.2106 42.4875 31.7091 43.8109 31.2087 44.9803C30.6736 46.233 29.201 46.8147 27.9252 46.3008L27.9249 46.3006C27.1537 45.9889 26.6263 45.3464 26.445 44.609C25.7892 44.9826 24.9686 45.0646 24.2121 44.7596L24.2119 44.7595C22.9331 44.2427 22.3161 42.8094 22.8541 41.5528C23.3756 40.3361 24.7826 39.7497 26.0336 40.1927L28.6905 33.9724ZM25.9362 40.7331C24.9231 40.3243 23.767 40.7938 23.3506 41.7653C22.936 42.7334 23.4054 43.851 24.414 44.2587C25.1326 44.5485 25.9248 44.3959 26.4741 43.9333L26.891 43.5821L26.9177 44.1266C26.9525 44.8388 27.3973 45.5048 28.127 45.7999C29.1408 46.2083 30.2969 45.7402 30.7121 44.7681L30.7122 44.768C31.1259 43.8014 30.66 42.6858 29.6544 42.2763L29.4001 42.1727L32.0726 35.9152L28.9795 34.6707L26.3139 40.9113L26.0599 40.7904C26.0485 40.7849 26.0378 40.7798 26.0278 40.775C25.993 40.7583 25.9657 40.7452 25.9362 40.7331Z" fill="#333333"/>
<path d="M28.836 34.3172L32.4292 35.7676C32.4292 35.7676 33.2791 32.6486 37.1898 29.1926C41.1005 25.7355 48.2458 20.3819 45.374 14.2421C43.8944 11.0745 36.0256 5.30512 31.0532 14.7562C29.9398 16.873 29.4095 18.9714 30.3934 24.2462C31.3762 29.5209 28.836 34.3172 28.836 34.3172Z" fill="#A4684D"/>
<path fill-rule="evenodd" clip-rule="evenodd" d="M43.3826 11.4482C44.4278 12.3046 45.2271 13.2895 45.6186 14.1277C47.1163 17.3298 45.9834 20.3131 44.0408 22.886C42.4385 25.0084 40.2492 26.8996 38.4428 28.4601C38.0651 28.7864 37.704 29.0983 37.3687 29.3948C35.4366 31.1022 34.2645 32.7229 33.5767 33.9113C33.2327 34.5057 33.0096 34.9922 32.8732 35.3279C32.805 35.4957 32.7585 35.6257 32.7293 35.7127C32.7147 35.7561 32.7045 35.7888 32.6981 35.81C32.6949 35.8206 32.6926 35.8283 32.6912 35.8331L32.6898 35.8381L32.6897 35.8385L32.6896 35.8389L32.6098 36.1316L28.4573 34.4554L28.5974 34.1908L28.5976 34.1905L28.5987 34.1884L28.6035 34.1792C28.6078 34.1707 28.6145 34.1578 28.6232 34.1404C28.6408 34.1056 28.6667 34.0533 28.6996 33.9844C28.7654 33.8466 28.859 33.6426 28.9685 33.381C29.1877 32.8575 29.4705 32.1041 29.723 31.1879C30.2287 29.3529 30.6093 26.879 30.128 24.2956C29.6337 21.6456 29.5158 19.7739 29.6682 18.2893C29.8214 16.7975 30.2463 15.7102 30.8143 14.6305C32.0759 12.2325 33.5358 10.7728 35.0586 10.0023C36.5839 9.23059 38.1466 9.16354 39.5857 9.50437C41.0209 9.84428 42.3349 10.5896 43.3826 11.4482ZM29.2066 34.1755L32.2633 35.4094C32.2922 35.3296 32.3284 35.2343 32.373 35.1245C32.5181 34.7674 32.752 34.2582 33.1093 33.6408C33.8241 32.4057 35.0324 30.7388 37.011 28.9902C37.3552 28.6859 37.7226 28.3684 38.1047 28.0382C39.9111 26.4771 42.0458 24.6323 43.6099 22.5606C45.4997 20.0575 46.5035 17.2941 45.1295 14.3565L45.1294 14.3563C44.7812 13.6108 44.042 12.6866 43.0403 11.8658C42.0411 11.0471 40.7997 10.3468 39.4612 10.0298C38.1266 9.71375 36.6972 9.77845 35.3024 10.4841C33.9052 11.191 32.5168 12.5543 31.2922 14.8819C30.7467 15.9189 30.3497 16.9392 30.2054 18.3445C30.0603 19.757 30.1692 21.5719 30.6588 24.1966C31.1603 26.8879 30.7622 29.4495 30.2436 31.3314C29.9839 32.2736 29.693 33.0489 29.4666 33.5896C29.3638 33.8352 29.2741 34.0327 29.2066 34.1755Z" fill="#333333"/>
<path d="M35.1443 12.7138C35.1443 12.7138 35.2404 12.8196 35.4143 12.9957C35.586 13.1739 35.8366 13.4255 36.1433 13.7204C36.4435 14.0217 36.8172 14.35 37.2071 14.7107C37.4026 14.8911 37.6164 15.0639 37.827 15.2464C38.0409 15.4257 38.2515 15.6158 38.4739 15.7918C38.6953 15.9689 38.9157 16.1471 39.1338 16.321C39.352 16.4949 39.5615 16.6731 39.7818 16.821C39.9989 16.9755 40.2084 17.1245 40.4061 17.2649C40.6069 17.4021 40.7862 17.55 40.972 17.6537C41.6999 18.0933 42.1859 18.386 42.1859 18.386L42.1546 18.4443C42.1546 18.4443 42.1189 18.4356 42.052 18.4194C41.9861 18.4011 41.8846 18.3816 41.7636 18.3428C41.5174 18.2693 41.1675 18.157 40.7581 17.9907C40.5486 17.9151 40.3445 17.7984 40.1242 17.6796C39.9049 17.5598 39.6695 17.4377 39.4384 17.2919C39.2029 17.1526 38.9686 16.9982 38.7429 16.8243C38.515 16.6526 38.2839 16.4776 38.0527 16.3037C37.8303 16.119 37.6218 15.9182 37.4101 15.7292C37.1963 15.5412 37.003 15.3382 36.8151 15.1438C36.6261 14.9494 36.4576 14.7474 36.2967 14.5584C36.1303 14.3738 35.991 14.1837 35.8625 14.0066C35.6011 13.6599 35.4078 13.3456 35.2815 13.121C35.2145 13.0119 35.1735 12.9168 35.1421 12.8553C35.1119 12.7926 35.0957 12.7602 35.0957 12.7602L35.1443 12.7138Z" fill="#894A37"/>
<path d="M33.9477 15.5079C33.9477 15.5079 34.0428 15.6137 34.2177 15.7898C34.3895 15.968 34.64 16.2196 34.9467 16.5144C35.247 16.8158 35.6207 17.143 36.0105 17.5048C36.206 17.6852 36.4199 17.858 36.6305 18.0405C36.8443 18.2198 37.0549 18.4098 37.2774 18.5848C37.4988 18.7619 37.7191 18.9401 37.9373 19.114C38.1554 19.2879 38.3649 19.4661 38.5853 19.614C38.8013 19.7685 39.0108 19.9175 39.2095 20.0579C39.4114 20.1951 39.5897 20.343 39.7754 20.4467C40.5033 20.8863 40.9893 21.179 40.9893 21.179L40.958 21.2373C40.958 21.2373 40.9224 21.2286 40.8554 21.2124C40.7895 21.1941 40.688 21.1746 40.5671 21.1358C40.3208 21.0623 39.9709 20.95 39.5616 20.7837C39.3521 20.7081 39.149 20.5914 38.9287 20.4726C38.7095 20.3528 38.474 20.2307 38.244 20.0849C38.0075 19.9456 37.7742 19.7912 37.5485 19.6173C37.3206 19.4456 37.0895 19.2706 36.8583 19.0967C36.6359 18.912 36.4285 18.7112 36.2157 18.5222C36.0019 18.3342 35.8086 18.1312 35.6207 17.9368C35.4327 17.7424 35.2643 17.5404 35.1033 17.3514C34.937 17.1678 34.7966 16.9767 34.6692 16.7996C34.4078 16.4529 34.2145 16.1386 34.0881 15.914C34.0212 15.8049 33.9801 15.7098 33.9488 15.6483C33.9186 15.5856 33.9024 15.5532 33.9024 15.5532L33.9477 15.5079Z" fill="#894A37"/>
<path d="M32.7619 18.2747C32.7619 18.2747 32.858 18.3806 33.0319 18.5566C33.2036 18.7359 33.4542 18.9864 33.7609 19.2813C34.0611 19.5826 34.4348 19.9098 34.8247 20.2716C35.0202 20.452 35.234 20.6248 35.4446 20.8073C35.6584 20.9866 35.869 21.1767 36.0915 21.3516C36.3129 21.5288 36.5332 21.707 36.7514 21.8808C36.9696 22.0547 37.1791 22.2329 37.3994 22.3809C37.6165 22.5353 37.826 22.6844 38.0236 22.8248C38.2245 22.9619 38.4038 23.1099 38.5885 23.2136C39.3164 23.6531 39.8024 23.9458 39.8024 23.9458L39.7711 24.0041C39.7711 24.0041 39.7354 23.9955 39.6696 23.9793C39.6037 23.9609 39.5022 23.9415 39.3812 23.9026C39.135 23.8292 38.785 23.7168 38.3757 23.5505C38.1651 23.4749 37.9621 23.3583 37.7418 23.2395C37.5225 23.1196 37.2871 22.9976 37.056 22.8518C36.8194 22.7124 36.5862 22.558 36.3605 22.3841C36.1326 22.2124 35.9014 22.0374 35.6703 21.8636C35.4478 21.6789 35.2405 21.478 35.0277 21.289C34.8139 21.1011 34.6206 20.898 34.4326 20.7036C34.2447 20.5092 34.0762 20.3073 33.9142 20.1183C33.7479 19.9347 33.6086 19.7435 33.4801 19.5664C33.2187 19.2197 33.0254 18.9054 32.899 18.6808C32.8321 18.5717 32.791 18.4767 32.7597 18.4151C32.7295 18.3525 32.7133 18.3201 32.7133 18.3201L32.7619 18.2747Z" fill="#894A37"/>
</svg>
