<svg width="54" height="54" viewBox="0 0 54 54" fill="none" xmlns="http://www.w3.org/2000/svg">
<path d="M27 54C41.9117 54 54 41.9117 54 27C54 12.0883 41.9117 0 27 0C12.0883 0 0 12.0883 0 27C0 41.9117 12.0883 54 27 54Z" fill="#FFD74A"/>
<path d="M35.5363 44.6753H18.8957L14.3575 17.0219H39.6425L35.5363 44.6753Z" fill="white"/>
<path d="M35.7696 44.9453H18.6667L14.04 16.7519H39.9557L35.7696 44.9453ZM19.1246 44.4053H35.303L39.3293 17.2919H14.675L19.1246 44.4053Z" fill="#333333"/>
<path d="M15.1751 23.6315C15.1999 23.7827 38.9491 23.6315 38.9491 23.6315L37.2913 34.7544H17.0446L15.1751 23.6315Z" fill="#DEC391"/>
<path d="M37.5235 35.0244H16.8156L14.9094 23.679C14.9094 23.6779 14.9094 23.6758 14.9083 23.6747L15.4408 23.5872V23.5883C15.4181 23.4522 15.3068 23.3842 15.242 23.3734C15.903 23.4835 32.5782 23.4025 38.948 23.3626L39.2634 23.3604L37.5235 35.0244ZM17.2724 34.4844H37.058L38.6359 23.9037C37.3291 23.9112 32.1732 23.9425 27.0724 23.9587C23.6228 23.9695 20.8732 23.9717 18.8989 23.9663C17.726 23.9631 16.8178 23.9555 16.1989 23.9458C15.903 23.9415 15.6686 23.9361 15.498 23.9296L17.2724 34.4844Z" fill="#333333"/>
<path d="M23.2308 29.4332C23.2308 27.3845 24.9415 25.7234 27.0518 25.7234C29.1622 25.7234 30.8729 27.3845 30.8729 29.4332C30.8729 31.482 29.1611 33.143 27.0518 33.143C24.9415 33.143 23.2308 31.482 23.2308 29.4332Z" fill="#78A068"/>
<path d="M24.0592 29.4333C24.0592 27.8284 25.3994 26.5281 27.0518 26.5281C28.7042 26.5281 30.0445 27.8295 30.0445 29.4333C30.0445 31.0371 28.7042 32.3385 27.0518 32.3385C25.3994 32.3385 24.0592 31.0382 24.0592 29.4333Z" fill="#87AB79"/>
<path d="M18.0392 12.8444C18.0392 11.4286 19.2218 10.2805 20.6809 10.2805H32.1656C33.6236 10.2805 34.8073 11.4286 34.8073 12.8444" fill="white"/>
<path d="M35.0773 12.8444H34.5373C34.5373 11.5797 33.4735 10.5505 32.1656 10.5505H20.6809C19.373 10.5505 18.3092 11.5797 18.3092 12.8444H17.7692C17.7692 11.2817 19.075 10.0105 20.6809 10.0105H32.1656C33.7716 10.0094 35.0773 11.2817 35.0773 12.8444Z" fill="#333333"/>
<path d="M14.729 15.3155C14.729 13.243 16.4603 11.5625 18.5954 11.5625H35.4046C37.5397 11.5625 39.2699 13.243 39.2699 15.3155" fill="white"/>
<path d="M39.5399 15.3155H38.9999C38.9999 13.3942 37.3864 11.8325 35.4046 11.8325H18.5954C16.6126 11.8325 14.999 13.3952 14.999 15.3155H14.459C14.459 13.0972 16.3145 11.2925 18.5954 11.2925H35.4046C37.6844 11.2925 39.5399 13.0972 39.5399 15.3155Z" fill="#333333"/>
<path d="M40.6145 14.9083H13.3844V17.1925H40.6145V14.9083Z" fill="#F2F2F2"/>
<path d="M40.8856 17.4625H13.1144V14.6383H40.8845V17.4625H40.8856ZM13.6544 16.9225H40.3445V15.1783H13.6544V16.9225Z" fill="#333333"/>
</svg>
