<svg width="54" height="54" viewBox="0 0 54 54" fill="none" xmlns="http://www.w3.org/2000/svg">
<path d="M54 27C54 41.9117 41.9117 54 27 54C12.0883 54 0 41.9117 0 27C0 12.0883 12.0883 0 27 0C41.9117 0 54 12.0883 54 27Z" fill="#FFD74A"/>
<path d="M38.1511 17.4636C37.9048 17.131 37.5916 16.8739 37.2579 16.7098C36.9112 16.5553 36.5235 16.5089 36.1617 16.5434C36.3194 15.8069 36.0408 15.0271 35.4036 14.4914C35.0709 14.2441 34.7048 14.08 34.3322 14.0281C33.9488 13.9925 33.5719 14.0497 33.236 14.1901C33.2014 13.811 33.0643 13.4622 32.831 13.1663C32.5999 12.8747 32.2996 12.5842 31.9044 12.4567C31.5134 12.3196 31.1203 12.2526 30.7444 12.3304C30.3675 12.4081 30.0252 12.5712 29.7454 12.8045C29.6018 12.4492 29.3631 12.1694 29.0564 11.9502C28.7497 11.7364 28.376 11.5517 27.9602 11.5474C27.5476 11.5312 27.1513 11.5884 26.8154 11.7666C26.4784 11.9534 26.2009 12.2116 26.0011 12.5161C25.8812 12.3757 25.7419 12.2429 25.5885 12.136C25.4362 12.0377 25.2688 11.9588 25.0896 11.8994C24.7353 11.7925 24.3217 11.7148 23.9242 11.8325C23.5236 11.9372 23.1639 12.1144 22.8939 12.379C22.6261 12.6565 22.4371 12.987 22.3366 13.3358C22.0191 13.1263 21.6606 13.0194 21.2847 13.0172C20.9121 13.0151 20.4996 13.0723 20.1518 13.3013C19.8019 13.5216 19.5027 13.784 19.331 14.1307C19.1571 14.4731 19.0707 14.8414 19.0772 15.2042C18.7089 15.0941 18.3493 15.1157 17.9799 15.2118C17.6127 15.309 17.252 15.5023 16.9831 15.8177C16.3966 16.4128 16.2897 17.2692 16.509 17.9464C16.1396 17.9593 15.7908 18.0792 15.4657 18.279C15.3058 18.3805 15.146 18.4993 15.0164 18.6451C14.8922 18.7952 14.7831 18.9648 14.6924 19.1516C14.6017 19.3385 14.5358 19.5286 14.4937 19.7186C14.458 19.912 14.4645 20.1107 14.4829 20.2986C14.5272 20.6777 14.6524 21.0276 14.8641 21.3235C14.2064 21.5719 13.5843 22.1832 13.4882 23.0137C13.4569 23.2189 13.4504 23.4209 13.4655 23.6142C13.4925 23.8097 13.5552 23.9976 13.6286 24.1726C13.7809 24.5214 14.0098 24.8184 14.2939 25.0398C14.0077 25.258 13.7776 25.5539 13.6221 25.9016C13.5465 26.0766 13.4839 26.2634 13.4558 26.4589C13.4396 26.6522 13.4439 26.8542 13.4752 27.0594C13.566 27.891 14.1837 28.5055 14.8393 28.7593C14.6254 29.0541 14.4969 29.4019 14.4516 29.7821C14.4321 29.97 14.4235 30.1687 14.458 30.362C14.4991 30.5521 14.5639 30.7433 14.6524 30.9312C14.7421 31.118 14.8501 31.2887 14.9732 31.4399C15.1028 31.5867 15.2616 31.7066 15.4203 31.8092C15.7443 32.0112 16.0921 32.1332 16.4614 32.1483C16.2379 32.8244 16.3394 33.6819 16.9226 34.2813C17.1894 34.5989 17.5468 34.7943 17.914 34.8937C18.2834 34.9931 18.6441 35.0168 19.0124 34.9088C19.0027 35.2706 19.0869 35.64 19.2586 35.9834C19.4282 36.3301 19.7252 36.5947 20.074 36.8183C20.4186 37.0494 20.8311 37.1088 21.2048 37.1088C21.5806 37.1088 21.9403 37.004 22.2589 36.7967C22.3561 37.1477 22.544 37.4781 22.8086 37.7579C23.0775 38.0235 23.4361 38.2028 23.8346 38.3108C24.232 38.4307 24.6457 38.3562 25.0021 38.2514C25.1814 38.1931 25.3488 38.1143 25.5021 38.0181C25.6555 37.9112 25.7959 37.7795 25.9168 37.6401C26.1145 37.9469 26.391 38.2061 26.7268 38.3951C27.0627 38.5754 27.4569 38.6359 27.8706 38.6219C28.2853 38.6208 28.66 38.4372 28.9689 38.2266C29.2767 38.0084 29.5176 37.7309 29.6644 37.3766C29.9409 37.6099 30.2822 37.7762 30.6591 37.8572C31.0339 37.9371 31.427 37.8745 31.8201 37.7384C32.2165 37.6131 32.5178 37.3259 32.7511 37.0353C32.9854 36.7416 33.1258 36.3938 33.1626 36.0147C33.4974 36.1573 33.8743 36.2167 34.2577 36.1832C34.6303 36.1335 34.9975 35.9726 35.3323 35.7275C35.9716 35.1961 36.2568 34.4185 36.1045 33.6798C36.4674 33.7165 36.854 33.6722 37.2018 33.5199C37.5366 33.359 37.8508 33.1041 38.1003 32.7726C38.5518 32.0717 38.5928 31.2465 38.2321 30.5845C38.5852 30.5132 38.9622 30.3642 39.23 30.1082C39.5043 29.8544 39.7354 29.5218 39.8726 29.1297C39.9784 28.7291 39.9838 28.3251 39.9018 27.9612C39.8186 27.5961 39.5994 27.2624 39.3477 27.0011C39.6631 26.8272 39.9849 26.5756 40.1599 26.2505C40.3478 25.9276 40.4666 25.5409 40.4882 25.1273C40.4688 24.7136 40.3532 24.3259 40.1674 24.003C39.9936 23.6768 39.675 23.422 39.3596 23.2459C39.6123 22.9867 39.8326 22.6541 39.9201 22.2901C40.0033 21.9262 40.0011 21.5222 39.8985 21.1205C39.7646 20.7284 39.5356 20.3936 39.2635 20.1388C38.9967 19.8817 38.6209 19.7305 38.2688 19.656C38.6338 18.9929 38.5982 18.1667 38.1511 17.4636Z" fill="white"/>
<path fill-rule="evenodd" clip-rule="evenodd" d="M27.967 11.2775C28.4589 11.2837 28.8848 11.5014 29.2108 11.7288L29.2134 11.7306C29.4665 11.9115 29.6823 12.1326 29.8445 12.4007C30.0993 12.2422 30.3854 12.1288 30.6899 12.066C31.1313 11.9747 31.5765 12.056 31.9906 12.2009C32.4591 12.353 32.7994 12.6917 33.0426 12.9986L33.043 12.9992C33.2393 13.2481 33.3758 13.53 33.4497 13.8331C33.7398 13.7562 34.0473 13.7305 34.3572 13.7593C34.3613 13.7597 34.3654 13.7602 34.3694 13.7607C34.7949 13.8199 35.2027 14.0057 35.5647 14.2748C35.569 14.278 35.5732 14.2813 35.5773 14.2848C36.1906 14.8004 36.5141 15.5297 36.4713 16.264C36.7721 16.2735 37.0805 16.3352 37.3678 16.4632C37.3709 16.4646 37.374 16.466 37.3771 16.4675C37.7502 16.651 38.0967 16.9364 38.3681 17.303C38.3719 17.3081 38.3755 17.3134 38.3789 17.3187C38.8093 17.9955 38.9015 18.787 38.6458 19.4789C38.9316 19.5744 39.2202 19.7226 39.4494 19.943C39.7513 20.2261 40.0052 20.5975 40.154 21.0332C40.1563 21.04 40.1584 21.0468 40.1601 21.0537C40.2731 21.4962 40.2763 21.9436 40.1833 22.3503L40.1826 22.3532C40.1082 22.663 39.954 22.9456 39.7692 23.1855C40.016 23.3612 40.2518 23.5893 40.4036 23.8721C40.6102 24.2326 40.7366 24.661 40.7579 25.1146C40.7583 25.1235 40.7583 25.1325 40.7578 25.1414C40.7341 25.5957 40.604 26.0227 40.3955 26.3825C40.2425 26.6647 40.0045 26.8907 39.7571 27.0641C39.9409 27.3053 40.094 27.5895 40.165 27.9013L40.1651 27.9018C40.2571 28.3095 40.2502 28.7574 40.1337 29.1987C40.1319 29.2056 40.1298 29.2123 40.1275 29.219C39.9751 29.6544 39.7189 30.0233 39.4149 30.305C39.1847 30.5244 38.8953 30.6711 38.6085 30.7646C38.8591 31.4557 38.7612 32.2452 38.3273 32.9188C38.3238 32.9243 38.32 32.9297 38.3161 32.935C38.0415 33.2999 37.6937 33.5831 37.3187 33.7633C37.3159 33.7647 37.313 33.766 37.3101 33.7673C37.0216 33.8936 36.7132 33.9535 36.4119 33.9612C36.4495 34.6966 36.1203 35.4237 35.5049 35.9352C35.5006 35.9387 35.4963 35.9421 35.4918 35.9453C35.1274 36.2122 34.7185 36.3942 34.2934 36.4509C34.2893 36.4514 34.2852 36.4519 34.2812 36.4522C33.9713 36.4793 33.6637 36.4519 33.374 36.3731C33.2979 36.6761 33.1592 36.9568 32.9621 37.2038L32.9616 37.2044C32.7159 37.5104 32.3745 37.8452 31.9051 37.9948C31.4876 38.1389 31.0425 38.2151 30.6028 38.1213L30.6024 38.1212C30.2982 38.0559 30.0132 37.9401 29.7604 37.7806C29.5961 38.0475 29.3787 38.2671 29.1251 38.4469C29.1237 38.4478 29.1224 38.4488 29.121 38.4497C28.7942 38.6725 28.367 38.8893 27.8756 38.8919C27.4337 38.9064 26.9893 38.8425 26.5991 38.633C26.5975 38.6321 26.596 38.6313 26.5944 38.6304C26.3226 38.4775 26.0845 38.2823 25.8892 38.0539C25.816 38.1201 25.7382 38.1827 25.6565 38.2397C25.6529 38.2422 25.6493 38.2446 25.6455 38.247C25.4735 38.3548 25.286 38.443 25.0856 38.5082C25.0839 38.5088 25.0821 38.5093 25.0804 38.5099L25.0782 38.5105C24.7088 38.6191 24.2338 38.712 23.7604 38.5705C23.3319 38.4539 22.9288 38.2562 22.6188 37.95C22.6167 37.9478 22.6146 37.9457 22.6125 37.9434C22.3988 37.7176 22.2291 37.4607 22.1103 37.1852C21.8258 37.3139 21.5198 37.3788 21.2048 37.3788C20.8088 37.3788 20.3344 37.3171 19.926 37.0441C19.5589 36.8085 19.2168 36.5117 19.0166 36.1031C18.8783 35.8263 18.7904 35.5324 18.7569 35.2357C18.4455 35.2724 18.1418 35.2346 17.8439 35.1545L17.8435 35.1544C17.4368 35.0443 17.0303 34.8257 16.7223 34.4626C16.1528 33.8723 15.9955 33.0722 16.124 32.38C15.8236 32.3218 15.5407 32.2025 15.2775 32.0384C15.2763 32.0376 15.275 32.0368 15.2738 32.036C15.105 31.9269 14.9234 31.7915 14.7708 31.6185C14.7684 31.6159 14.7661 31.6132 14.7638 31.6104C14.6268 31.442 14.5075 31.2533 14.409 31.048L14.4082 31.0463C14.3112 30.8405 14.2397 30.6299 14.1941 30.4191C14.1935 30.4159 14.1928 30.4128 14.1923 30.4096C14.1511 30.1792 14.1627 29.951 14.183 29.7543C14.1831 29.7529 14.1833 29.7515 14.1835 29.7501C14.2206 29.4392 14.3085 29.1438 14.4501 28.8753C13.8366 28.5399 13.2993 27.9162 13.2075 27.0945C13.1735 26.8688 13.1691 26.6475 13.1868 26.4364C13.1872 26.4311 13.1878 26.4258 13.1886 26.4206C13.2211 26.1938 13.2928 25.9831 13.3743 25.7946L13.3757 25.7914C13.5028 25.5071 13.6759 25.2517 13.8879 25.038C13.6778 24.8228 13.506 24.5665 13.3812 24.2806L13.3797 24.2771C13.3012 24.0902 13.2295 23.8784 13.1981 23.6512C13.1973 23.6459 13.1968 23.6406 13.1964 23.6353C13.1797 23.423 13.1867 23.2019 13.2206 22.9778C13.3175 22.1567 13.8592 21.5356 14.4757 21.2045C14.3363 20.9349 14.2508 20.639 14.2147 20.33C14.2146 20.3291 14.2145 20.3283 14.2144 20.3275C14.2143 20.3266 14.2143 20.3257 14.2142 20.3249C14.1948 20.127 14.1858 19.8993 14.2282 19.6697C14.2287 19.6666 14.2294 19.6634 14.2301 19.6603C14.2769 19.4492 14.3498 19.2392 14.4495 19.0337C14.5494 18.8281 14.67 18.6403 14.8084 18.473C14.8104 18.4706 14.8125 18.4682 14.8146 18.4658C14.9678 18.2934 15.1511 18.159 15.3209 18.0511L15.3243 18.049C15.5885 17.8866 15.8722 17.7691 16.173 17.7128C16.0489 17.0201 16.2112 16.2213 16.784 15.6351C17.0947 15.2743 17.5046 15.0584 17.9108 14.9508L17.9119 14.9505C18.2099 14.873 18.5131 14.8373 18.8243 14.8761C18.8598 14.5793 18.9495 14.286 19.0897 14.0097C19.2925 13.601 19.6373 13.3065 20.0057 13.0743C20.4171 12.8044 20.8909 12.745 21.2863 12.7473M27.967 11.2775C27.5269 11.2606 27.0798 11.3207 26.6889 11.5281C26.6874 11.5289 26.6859 11.5297 26.6845 11.5305C26.4117 11.6818 26.1728 11.8757 25.9765 12.1022C25.9033 12.0352 25.8253 11.9719 25.7429 11.9145C25.7403 11.9127 25.7376 11.9109 25.7349 11.9091C25.5621 11.7976 25.3738 11.7092 25.1745 11.6432C25.1722 11.6424 25.1699 11.6417 25.1676 11.641C24.8007 11.5303 24.3256 11.4335 23.8519 11.5724C23.4209 11.6856 23.0164 11.881 22.7049 12.1862C22.7032 12.1879 22.7014 12.1897 22.6996 12.1915C22.4828 12.4162 22.3117 12.6728 22.1912 12.9467C21.9073 12.816 21.6017 12.7491 21.2863 12.7473M26.9441 12.004C26.6455 12.17 26.4016 12.3979 26.2268 12.6643C26.1802 12.7353 26.1029 12.7803 26.0181 12.7856C25.9333 12.791 25.8509 12.7561 25.7958 12.6915C25.6888 12.5662 25.5675 12.4511 25.438 12.3602C25.3083 12.277 25.1643 12.209 25.008 12.1569C24.6687 12.0548 24.3196 11.997 24.0009 12.0914C23.9981 12.0922 23.9954 12.093 23.9925 12.0937C23.6251 12.1898 23.3129 12.3476 23.0856 12.5692C22.8494 12.8149 22.6839 13.1057 22.5961 13.4106C22.5723 13.4931 22.5107 13.5594 22.4301 13.5892C22.3496 13.6189 22.2596 13.6085 22.1879 13.5612C21.9146 13.3809 21.6072 13.2891 21.2832 13.2873H21.2832C20.9341 13.2852 20.5839 13.3401 20.3003 13.5268C20.2988 13.5278 20.2972 13.5288 20.2957 13.5298C19.9654 13.7377 19.7132 13.9674 19.573 14.2506L19.5717 14.253C19.4169 14.5579 19.3415 14.8828 19.3472 15.1995C19.3487 15.2856 19.309 15.3673 19.2404 15.4194C19.1718 15.4715 19.0824 15.4876 18.9998 15.463C18.6917 15.3708 18.3845 15.3856 18.0485 15.473C17.7233 15.5592 17.4148 15.7276 17.1885 15.9929C17.1843 15.9978 17.1799 16.0026 17.1754 16.0072C16.6712 16.5189 16.5722 17.2652 16.7658 17.8632C16.7919 17.9438 16.7787 18.032 16.7301 18.1014C16.6815 18.1707 16.6031 18.2133 16.5184 18.2162C16.2039 18.2273 15.9005 18.329 15.6088 18.508C15.461 18.602 15.3264 18.7037 15.2213 18.821C15.1126 18.9531 15.0161 19.1031 14.9353 19.2696C14.8544 19.4363 14.7959 19.6048 14.7584 19.7723C14.7305 19.9273 14.7344 20.0946 14.7514 20.2698C14.7913 20.6085 14.9023 20.9129 15.0837 21.1665C15.1325 21.2347 15.1468 21.3217 15.1225 21.4019C15.0982 21.4821 15.038 21.5465 14.9595 21.5761C14.3747 21.797 13.8385 22.3357 13.7564 23.0448C13.756 23.048 13.7556 23.0513 13.7551 23.0545C13.7274 23.2362 13.7214 23.4147 13.7341 23.5851C13.7572 23.7456 13.8098 23.9064 13.8768 24.0663C14.0119 24.3749 14.2133 24.6347 14.4599 24.8269C14.5259 24.8784 14.5643 24.9576 14.5639 25.0413C14.5634 25.125 14.5242 25.2038 14.4576 25.2546C14.2101 25.4432 14.0077 25.7016 13.8693 26.0103C13.801 26.1687 13.7483 26.3285 13.7242 26.4896C13.7104 26.6609 13.7147 26.8388 13.7422 27.0187C13.7427 27.0225 13.7432 27.0263 13.7437 27.0301C13.8211 27.7402 14.3535 28.2818 14.9368 28.5076C15.0149 28.5378 15.0745 28.6026 15.0982 28.6829C15.122 28.7633 15.107 28.8501 15.0579 28.9179C14.8742 29.1711 14.7606 29.4735 14.7199 29.812C14.7017 29.9886 14.6961 30.1556 14.723 30.3099C14.7596 30.4774 14.8171 30.6472 14.8963 30.8153C14.9762 30.9816 15.0716 31.1324 15.1791 31.2652C15.2847 31.3838 15.4186 31.4866 15.565 31.5813C15.8558 31.7622 16.1581 31.8657 16.4725 31.8786C16.5572 31.8821 16.6353 31.9251 16.6835 31.9948C16.7317 32.0644 16.7444 32.1527 16.7178 32.2332C16.5204 32.8302 16.6146 33.5776 17.1161 34.0931C17.1207 34.0978 17.1251 34.1027 17.1293 34.1077C17.354 34.3751 17.6596 34.5451 17.9844 34.6331C18.3203 34.7234 18.6285 34.7401 18.9364 34.6498C19.0193 34.6255 19.1087 34.6423 19.1771 34.6949C19.2455 34.7476 19.2846 34.8298 19.2823 34.9161C19.2738 35.2311 19.3472 35.5567 19.5001 35.8627L19.5012 35.8648C19.6398 36.1482 19.8903 36.3799 20.2197 36.591C20.2213 36.592 20.2229 36.593 20.2245 36.5941C20.5046 36.782 20.8542 36.8388 21.2048 36.8388C21.529 36.8388 21.8374 36.7489 22.1116 36.5704C22.1838 36.5235 22.274 36.5137 22.3545 36.5442C22.435 36.5747 22.4961 36.6417 22.5191 36.7246C22.6037 37.03 22.7677 37.3207 23.0016 37.569C23.2283 37.7916 23.5398 37.9512 23.9052 38.0503C23.9077 38.0509 23.9101 38.0516 23.9126 38.0524C24.2317 38.1486 24.5809 38.0935 24.9222 37.9935C25.0768 37.9429 25.2209 37.8751 25.3531 37.7929C25.4832 37.7014 25.6055 37.587 25.713 37.4632C25.7687 37.399 25.8513 37.3648 25.9361 37.3709C26.0208 37.3769 26.0978 37.4225 26.1438 37.4939C26.3163 37.7616 26.5589 37.9903 26.8569 38.1585C27.1369 38.3081 27.4784 38.3651 27.8614 38.3521C27.8642 38.352 27.867 38.3519 27.8699 38.3519C28.2053 38.351 28.5253 38.202 28.8148 38.0049C29.0862 37.8121 29.2906 37.5733 29.415 37.2733C29.448 37.1937 29.517 37.1346 29.6007 37.1143C29.6844 37.094 29.7727 37.1148 29.8386 37.1703C30.0796 37.3737 30.38 37.521 30.7154 37.5932C31.0241 37.659 31.364 37.6106 31.7318 37.4833C31.7341 37.4825 31.7364 37.4818 31.7388 37.481C32.0602 37.3794 32.3201 37.1408 32.5404 36.8666C32.7415 36.6142 32.8621 36.3162 32.8938 35.9888C32.9021 35.9031 32.9507 35.8266 33.0247 35.7826C33.0987 35.7387 33.1892 35.7327 33.2683 35.7664C33.5592 35.8902 33.8894 35.9434 34.228 35.9148C34.5438 35.8715 34.8647 35.7338 35.166 35.5146C35.7311 35.0414 35.97 34.3646 35.84 33.7343C35.8227 33.6502 35.8465 33.5627 35.904 33.4989C35.9616 33.4351 36.0462 33.4025 36.1317 33.4112C36.4541 33.4438 36.7913 33.4039 37.0891 33.2745C37.3796 33.1341 37.6564 32.911 37.8786 32.6182C38.2763 31.9948 38.303 31.2791 37.995 30.7137C37.954 30.6384 37.9511 30.5481 37.9874 30.4704C38.0236 30.3927 38.0946 30.3368 38.1787 30.3199C38.5035 30.2543 38.8258 30.1211 39.0435 29.9131C39.0445 29.9121 39.0456 29.9111 39.0466 29.9101C39.2883 29.6865 39.4921 29.3941 39.6142 29.0506C39.7067 28.694 39.7099 28.338 39.6384 28.0208C39.5694 27.7184 39.3828 27.4269 39.1532 27.1884C39.095 27.1279 39.0682 27.0437 39.0808 26.9607C39.0933 26.8777 39.1438 26.8052 39.2174 26.7647C39.5116 26.6024 39.7823 26.3824 39.9221 26.1226C39.9236 26.1199 39.925 26.1173 39.9265 26.1147C40.0905 25.8329 40.1966 25.4929 40.2178 25.1266C40.1985 24.7596 40.0951 24.4188 39.9334 24.1377C39.932 24.1351 39.9306 24.1326 39.9292 24.13C39.7896 23.8683 39.521 23.6453 39.228 23.4817C39.1546 23.4407 39.1045 23.368 39.0924 23.2848C39.0803 23.2017 39.1076 23.1176 39.1663 23.0575C39.396 22.8218 39.5841 22.5311 39.6572 22.2285C39.7296 21.9107 39.729 21.5547 39.6396 21.1977C39.5203 20.8543 39.3184 20.5601 39.0789 20.3359L39.0761 20.3332C38.8591 20.1241 38.5373 19.9889 38.2129 19.9202C38.1292 19.9025 38.0589 19.8462 38.0233 19.7685C37.9877 19.6907 37.991 19.6007 38.0323 19.5258C38.3446 18.9585 38.322 18.2414 37.9284 17.6166C37.7094 17.3233 37.4335 17.098 37.1434 16.9544C36.8467 16.8233 36.5087 16.7816 36.1874 16.8123C36.1017 16.8204 36.0173 16.7873 35.9601 16.723C35.9029 16.6588 35.8797 16.5711 35.8977 16.487C36.0322 15.8586 35.799 15.1801 35.236 14.7033C34.9364 14.482 34.6165 14.3415 34.301 14.2964C33.9624 14.2659 33.6321 14.3172 33.3401 14.4393C33.2608 14.4724 33.1704 14.4658 33.0967 14.4215C33.0231 14.3771 32.9749 14.3003 32.9671 14.2147C32.9372 13.8866 32.8193 13.5877 32.6192 13.3338C32.4008 13.0583 32.1417 12.817 31.8215 12.7137C31.8193 12.713 31.8172 12.7123 31.815 12.7115C31.4481 12.5828 31.1082 12.5308 30.7992 12.5948L30.799 12.5948C30.4635 12.664 30.1623 12.8084 29.9184 13.0119C29.8521 13.0671 29.7634 13.0874 29.6798 13.0664C29.5961 13.0454 29.5275 12.9857 29.4951 12.9057C29.3734 12.6046 29.1709 12.3642 28.9007 12.1708C28.6145 11.9715 28.2949 11.8209 27.9574 11.8174C27.9548 11.8174 27.9522 11.8173 27.9496 11.8172C27.5668 11.8022 27.2234 11.8565 26.9441 12.004Z" fill="#333333"/>
<mask id="mask0" mask-type="alpha" maskUnits="userSpaceOnUse" x="0" y="0" width="54" height="54">
<path d="M27 54C41.9117 54 54 41.9117 54 27C54 12.0883 41.9117 0 27 0C12.0883 0 0 12.0883 0 27C0 41.9117 12.0883 54 27 54Z" fill="#FFD74A"/>
</mask>
<g mask="url(#mask0)">
<path d="M56.5942 0.00970459L58.3406 2.36194L18.7996 30.3339L18.3612 29.7464L56.5942 0.00970459Z" fill="#DEBE89"/>
<path fill-rule="evenodd" clip-rule="evenodd" d="M56.6464 -0.372986L58.722 2.42277L18.7406 30.7063L17.9864 29.6957L56.6464 -0.372986ZM18.7357 29.797L18.8585 29.9615L57.9591 2.30103L56.542 0.392305L18.7357 29.797Z" fill="#333333"/>
<path d="M50.2492 -6.91199L52.4092 -4.93451L18.9 30.0391L18.36 29.5445L50.2492 -6.91199Z" fill="#DEBE89"/>
<path fill-rule="evenodd" clip-rule="evenodd" d="M50.2279 -7.29761L52.7953 -4.94713L18.9124 30.4166L17.9831 29.5654L50.2279 -7.29761ZM50.2706 -6.52632L18.7371 29.5237L18.8878 29.6617L52.0232 -4.92184L50.2706 -6.52632Z" fill="#333333"/>
</g>
<path d="M41.9516 25.1283L11.9881 25.029C11.9654 31.8708 16.5338 37.652 22.7946 39.4664C21.8485 40.4741 21.2631 41.823 21.2577 43.3134L32.5599 43.3512C32.5653 41.8619 31.9886 40.5076 31.049 39.4945C37.3206 37.7222 41.9279 31.9702 41.9516 25.1283Z" fill="#494949"/>
<path fill-rule="evenodd" clip-rule="evenodd" d="M11.719 24.7581L42.2225 24.8593L42.2216 25.1293C42.1979 31.9472 37.7035 37.7015 31.5261 39.6342C32.3438 40.6522 32.835 41.9446 32.8299 43.3522L32.8289 43.6221L20.9868 43.5825L20.9877 43.3124C20.9928 41.9038 21.4925 40.6159 22.3167 39.603C16.1512 37.6289 11.6955 31.8462 11.7181 25.0281L11.719 24.7581ZM12.2596 25.2999C12.3566 31.8996 16.804 37.4492 22.8697 39.2071L23.2932 39.3298L22.9914 39.6512C22.1473 40.5503 21.6054 41.7331 21.5354 43.0443L32.2842 43.0803C32.2236 41.7694 31.6893 40.5819 30.851 39.6781L30.551 39.3547L30.9756 39.2347C37.0517 37.5176 41.5365 31.9964 41.6782 25.3975L12.2596 25.2999Z" fill="#333333"/>
<path d="M21.2577 43.3124L32.5599 43.3502C32.5653 41.8609 31.9886 40.5065 31.049 39.4935L22.7945 39.4665C21.8485 40.4731 21.2631 41.822 21.2577 43.3124Z" fill="#393939"/>
</svg>
